<svg xmlns="http://www.w3.org/2000/svg" viewBox="0 0 320 240">
    <defs>
        <clipPath id="test">
            <path transform="scale(1.8)" d="M163.3,112.12c9.83-13.64,2.9-38.95-3.9-58.06-4.93-13.83-11.42-23.17-19-29.36A46.5,46.5,0,0,0,124,16.19a74.54,74.54,0,0,0-20.86-2.67C77.61,13.14,72.32,2.57,52.16.3,41.2-.94,32.84,1.72,27.53,7.69c-3.27,3.68-5.39,8.63-6.23,14.7a114.29,114.29,0,0,1-2.67,15.25A85.23,85.23,0,0,1,14.86,49C12.55,54.6,9.59,60.44,5.73,68c-7.28,14.27-11.22,41.2,11,57.82,7.91,5.64,17.48,5.86,27.8,4.23,16.71-2.65,35.35-10.14,52-7.3C116.53,126.16,145.49,139.85,163.3,112.12Z"/>
        </clipPath>

        <style>
            .cls-1 {
            fill: #f8db9d;
            }

            .cls-2 {
            fill: #f9dea5;
            }

            .cls-3 {
            fill: #fae2ae;
            }

            .cls-4 {
            fill: #fbe5b7;
            }

            .cls-5 {
            fill: #fce9c0;
            }

            .cls-6 {
            fill: #fcedc8;
            }

            .cls-7 {
            fill: #fdefd1;
            }

            .cls-8 {
            fill: #fef5da;
            }

            .cls-9 {
            fill: #fef8e5;
            }

            .cls-10 {
            fill: #282861;
            }

            .cls-11 {
            fill: #8da14f;
            }

            .cls-12 {
            fill: #849e32;
            }

            .cls-13 {
            fill: #9f8430;
            }

            .cls-14 {
            fill: #597802;
            }

            .cls-15 {
            fill: #cfa121;
            }

            .cls-16 {
            fill: #9d662c;
            }

            .cls-17 {
            fill: #afaa2f;
            }

            .cls-18 {
            fill: #718e00;
            }

            .cls-19 {
            fill: #edc432;
            }

            .cls-20 {
            fill: #5f350b;
            }

            .cls-21 {
            fill: #ebbe3f;
            }

            .cls-22 {
            fill: #597100;
            }

            .cls-23 {
            fill: #876912;
            }

            .cls-24 {
            fill: #bbce78;
            }

            .cls-25 {
            fill: #e6bf3e;
            }

            .cls-26 {
            fill: #997f33;
            }

            .cls-27 {
            fill: #69510e;
            }

            .cls-28 {
            fill: #ed9349;
            }

            .cls-29 {
            fill: #dcd96f;
            }

            .cls-30 {
            fill: #c1ce92;
            }

            .cls-31 {
            fill: #9ab348;
            }

            .cls-32 {
            fill: #8aa61b;
            }

            .cls-33 {
            fill: #5b7300;
            }

            .cls-34 {
            fill: #c9b060;
            }

            .cls-35 {
            fill: #5c4a16;
            }

            .cls-36 {
            fill: #ba631c;
            }

            .cls-37 {
            fill: #c78b4d;
            }

            .cls-38 {
            fill: #7a4912;
            }

            .cls-39 {
            fill: #819c24;
            }

            .cls-40 {
            fill: #465900;
            }

            .cls-41 {
            fill: #ed8834;
            }

            .cls-42 {
            fill: #db7621;
            }

            .cls-43 {
            fill: #e8e587;
            }

            .cls-44 {
            fill: #d1cb4f;
            }

            .cls-45 {
            fill: #8a8625;
            }

            .cls-46 {
            fill: #7d5226;
            }

            .cls-47 {
            fill: #4d2905;
            }

            .cls-48 {
            fill: #40311e;
            }

            .cls-49 {
            fill: #362714;
            }

            .cls-50 {
            fill: #2b2114;
            }

            .cls-51 {
            fill: #241c11;
            }

            .cls-52 {
            fill: #2c2c61;
            }

            .cls-53 {
            fill: #29295b;
            }

            .cls-54 {
            fill: #303068;
            }

            .cls-55 {
            fill: #363e48;
            }

            .cls-56 {
            fill: #31316e;
            }

            .cls-57 {
            fill: #2a3138;
            }

            .cls-58 {
            fill: #ca9b64;
            }

            .cls-59 {
            fill: #4f5c6c;
            }

            .cls-60 {
            fill: #b58b59;
            }

            .cls-61 {
            fill: #9c812d;
            }

            .cls-62 {
            fill: #bf4841;
            }

            .cls-63 {
            fill: #e5e6e7;
            }

            .cls-64 {
            fill: #e4b883;
            }

            .cls-65 {
            fill: #919396;
            }

            .cls-66 {
            fill: #babcbe;
            }

            .cls-67 {
            fill: #7e8080;
            }

            .cls-68 {
            fill: #d7ae7d;
            }

            .cls-69 {
            fill: #382b1a;
            }

            .cls-70 {
            fill: #262626;
            }

            .cls-71 {
            fill: #fff;
            }

            .cls-72 {
            fill: #c09768;
            }

            .cls-73 {
            fill: #cea678;
            }

            .cls-74 {
            fill: #be4e47;
            }

            .cls-75 {
            fill: #7a6623;
            }

            .cls-76 {
            fill: #c4c4c5;
            }

            .cls-77 {
            fill: #424d5a;
            }

            .cls-78 {
            fill: #e4bf93;
            }

            .cls-79 {
            fill: #e5be8f;
            }

            .cls-80 {
            fill: #3d444d;
            }

            .cls-81 {
            fill: #5c636c;
            }

            .cls-82 {
            fill: none;
            }

            .cls-83 {
            fill: #252554;
            }

            .cls-84 {
            fill: #33336e;
            }

            .cls-85 {
            fill: #473823;
            }
        </style>
    </defs>

    <g id="ololo" clip-path="url(#test)">
        <rect class="cls-1" y="0.2" width="73.85" height="240.01"/>
        <rect class="cls-2" x="72.62" y="0.2" width="27.75" height="240.01"/>
        <rect class="cls-3" x="99.14" y="0.2" width="27.75" height="240.01"/>
        <rect class="cls-4" x="125.66" y="0.2" width="27.75" height="240.01"/>
        <rect class="cls-5" x="152.18" y="0.2" width="27.75" height="240.01"/>
        <rect class="cls-6" x="178.69" y="0.2" width="27.75" height="240.01"/>
        <rect class="cls-7" x="205.21" y="0.2" width="27.75" height="240.01"/>
        <rect class="cls-8" x="231.73" y="0.2" width="27.75" height="240.01"/>
        <rect class="cls-9" x="258.25" y="0.2" width="65.75" height="240.01"/>
        <path class="cls-10" d="M109.74,81.93c-3.13,1.09-6.94,4-8.7,4.33-3.13.67-5.23-4.26-8.71-2a16.14,16.14,0,0,1-4.41,2.39c1.61.18,3.21.42,4.78.72a2.9,2.9,0,0,1,1.22-1,2.14,2.14,0,0,1,2-.11,2.4,2.4,0,0,1,1.35,2,2.45,2.45,0,0,1,0,.27c.39.11.8.21,1.18.34l-.68.21.66.12,6.86,3.63,7.15-4.21-.26-1-.52-.07A58.71,58.71,0,0,1,109.74,81.93Z" transform="translate(46 0.2)"/>
        <g>
            <path class="cls-11" d="M238.23,147.68s-26-41.56-34.32-68-21.22-44.5-27.25-54.82,52.87,52,58.94,82.17S238.23,147.68,238.23,147.68Z" transform="translate(46 0.2)"/>
            <path class="cls-12" d="M235.53,135.73c.06-.48-2.4-27.14-4.63-31.82s-17.08-35.06-20.82-37.42a8.26,8.26,0,0,0-7.09-1s3.8,14,4.21,14.54,20.2,44.85,20.2,44.85Z" transform="translate(46 0.2)"/>
            <path class="cls-13" d="M212.22,112.9C207.05,110,180,96.14,156.91,91.36c-2.14-.3-4.41,3.73-.65,4.51s50.49,18,54.44,20.83S212.22,112.9,212.22,112.9Z" transform="translate(46 0.2)"/>
            <path class="cls-14" d="M98.36-.2c6.6,11.37,19.53,46.13,47.79,60.29s64.25,40.19,73.21,65.48c-.08-11.12-30.31-72.24-65.21-85.74S98.36-.2,98.36-.2Z" transform="translate(46 0.2)"/>
            <path class="cls-15" d="M89.48,78.44c6.74,4.89,32.07,23.37,39.88,24.12s22.91-.23,27.22-8,2.34-21.69-18.11-26.76-32.47-3.12-36.7-3.72-8,.53-7,4-.18,7.34-2,7.27S86.5,76.28,89.48,78.44Z" transform="translate(46 0.2)"/>
            <path class="cls-16" d="M215.67,86.92C167.35,44.06,82.57,51.57,76.5,53.36s-1.3,7.33,1.72,6.55C138.52,48.48,198.29,79.39,215,92Z" transform="translate(46 0.2)"/>
            <path class="cls-17" d="M214.18,70.65C204,53.77,158.26-8.85,67.29,11.9c8.49,5,60,12.43,74.06,25.11s65.47,26.61,72.11,34Z" transform="translate(46 0.2)"/>
            <path class="cls-18" d="M223.8,122c1,11.81-61.21-57.93-67.45-98.74C172.65,29.6,218.21,56.52,223.8,122Z" transform="translate(46 0.2)"/>
            <path class="cls-19" d="M25,71.5c7.2,1.18,34.32,5.68,40.17,3.08S81,65,80.09,57s-9.4-18.45-26.27-14.14S29.51,53.65,26.26,54.9s-5.32,3.71-2.92,6.1,3.62,6,2.32,6.67S21.77,71,25,71.5Z" transform="translate(46 0.2)"/>
            <path class="cls-20" d="M72.61,28.81c4.14,0,55.91,7,70.35,18.13,4.44-2.27-2.4-8.64-2.4-8.64S91.07,25.17,73.4,23.35C69.83,26.23,72.61,28.81,72.61,28.81Z" transform="translate(46 0.2)"/>
            <path class="cls-21" d="M21.87,17.16C28,21.12,51.06,36.08,57.46,36S75.87,33.6,78.22,25.89,77,5.22,59.78,2.43s-26.59.19-30.08,0-6.35,1.27-5.11,4.42.92,6.94-.53,7S19.16,15.41,21.87,17.16Z" transform="translate(46 0.2)"/>
            <path class="cls-22" d="M163.68,66.6c-14.23-3.79-65-14.75-94.23-34,7.12-.64,50.51,7.77,75.15,10S182.68,67,188.65,77.14,171.62,68.71,163.68,66.6Z" transform="translate(46 0.2)"/>
            <path class="cls-23" d="M220.3,107.28C215,100.45,179.16,66.45,169.47,58s-11.43-1.41-3.74,5.76,51.78,47.44,54.89,53.2S220.3,107.28,220.3,107.28Z" transform="translate(46 0.2)"/>
            <path class="cls-24" d="M237.86,151.26c-1.07,4.25-8.71-9.5-10.51-12.18s-17-4.63-19.21-19.74-1.27-21.51-1.27-21.51,12.7,5.47,16.44,10.12S241.58,136.53,237.86,151.26Z" transform="translate(46 0.2)"/>
            <path class="cls-25" d="M117.69,32.15c4.25,5.94,20.15,28.35,26.13,30.67s18,4.53,23-1.77,6.47-19.67-8.48-28.61-24.79-9.63-28-11.06S124,20.22,124,23.61s-1.7,6.79-3.09,6.34S115.82,29.53,117.69,32.15Z" transform="translate(46 0.2)"/>
            <path class="cls-26" d="M169.33,58.93c3,1.13,41.82,39.52,41.82,39.52A13.86,13.86,0,0,1,205,95.11C202,92.35,165.59,57.56,169.33,58.93Z" transform="translate(46 0.2)"/>
            <path class="cls-27" d="M171.42,66.74c-1.68-2.64,30.31,27.63,31.74,29.53S173.89,70.61,171.42,66.74Z" transform="translate(46 0.2)"/>
            <path class="cls-28" d="M164.52,58.24c-.83-3.17-11.16-20.11-26.33-27.53s-4.73-6.52,7.24-.92,22.33,14.37,22.33,21.15S165.36,61.43,164.52,58.24Z" transform="translate(46 0.2)"/>
            <path class="cls-29" d="M159.52,61.88c1.43-.62-29.27-25.67-32-29.34s-6-3.16-3.84,1.39S143.89,68.59,159.52,61.88Z" transform="translate(46 0.2)"/>
            <path class="cls-30" d="M209.26,100.18c3.27,1.69,10,5.69,13.49,11.64s13.58,29.23,14,33.17-5.81-8.47-10.59-12.31S207.88,109,209.26,100.18Z" transform="translate(46 0.2)"/>
            <path class="cls-31" d="M210.21,117.13c.26,3.22,3.65,11.36,11.23,16.57C215.47,125.2,210.21,117.13,210.21,117.13Z" transform="translate(46 0.2)"/>
            <path class="cls-32" d="M163.13,30.12c3.54,2.08,29,18.42,40.07,38.6S218,101.54,218,101.54s-17.1-34.82-27.43-45.92S163.13,30.12,163.13,30.12Z" transform="translate(46 0.2)"/>
            <path class="cls-33" d="M176.23,49.46c5.08,4.47,26.65,32.55,28.65,36.77s-15.71-12-16.17-12.9-18.22-20.47-17.36-23,.2-4.24-1-6.71S176.23,49.46,176.23,49.46Z" transform="translate(46 0.2)"/>
            <path class="cls-34" d="M160.57,93.22c-2.2-1.34,39.39,14.17,43.7,17.1S163.31,94.88,160.57,93.22Z" transform="translate(46 0.2)"/>
            <path class="cls-35" d="M160.92,94.91c-1.88-1.48,37.8,14.66,40.42,15.73S166.56,99.38,160.92,94.91Z" transform="translate(46 0.2)"/>
            <path class="cls-36" d="M101.65,67.33c4.78-.41,32.47.37,43,8s11.11,11.53,10.81,14S145.26,82.89,140,79.51,96.26,67.8,101.65,67.33Z" transform="translate(46 0.2)"/>
            <path class="cls-29" d="M112.28,86.93c3.57,3.21,10.48,11,20.49,11.52s15.11-2.77,17.26-4.31-4.62-3.9-10.78-2.79S109.07,84,112.28,86.93Z" transform="translate(46 0.2)"/>
            <path class="cls-25" d="M100,71c3.54,0,30,6.9,35,9.17s15.88,9.37,16.19,10.45-13.56-2.3-24.5-7.24S94.72,70.93,100,71Z" transform="translate(46 0.2)"/>
            <path class="cls-37" d="M81.31,53.47c2.66-1.28,26.27-1,32.05,0S77.46,55.31,81.31,53.47Z" transform="translate(46 0.2)"/>
            <path class="cls-38" d="M83.47,56.38c2.47-.22,14.33-.76,16.64-.76s-17.26,3.24-17.56,2.31S82.09,56.5,83.47,56.38Z" transform="translate(46 0.2)"/>
            <path class="cls-39" d="M81.06,35.15c-5.68-3.28,42.93,6.61,40.78,6.68S85.89,37.93,81.06,35.15Z" transform="translate(46 0.2)"/>
            <path class="cls-40" d="M101.14,44.53c-5.6-.65,28.86,10.32,31.17,11.09s-1.53-4.47-4-6.78S105.09,45,101.14,44.53Z" transform="translate(46 0.2)"/>
            <path class="cls-29" d="M34,69.64c4.27-.45,35,5.64,40.22-7s-1.7-4.44-6.94-1.51S22.46,70.88,34,69.64Z" transform="translate(46 0.2)"/>
            <path class="cls-41" d="M31.24,54.55c4.11-1.95,22.34-11.46,30.82-10s10.08,2.65,11.51,4.19-8-1.69-14.9-.31S27.75,56.21,31.24,54.55Z" transform="translate(46 0.2)"/>
            <path class="cls-29" d="M72.53,50.1c-4.93.15-8.32.33-12.32,1.62s10.72,2.09,13.5,1.87S74.38,50,72.53,50.1Z" transform="translate(46 0.2)"/>
            <path class="cls-42" d="M29.54,5.24c3.48-1.3,33-4.32,40.53,5.55s9.75,16.53,3.64,13-3.8-12.19-15.82-14.5S25.85,6.63,29.54,5.24Z" transform="translate(46 0.2)"/>
            <path class="cls-43" d="M33.7,18.63c4.73,4.54,16,17,29,13.27s10.48-4.32.92-4.17S30.31,15.37,33.7,18.63Z" transform="translate(46 0.2)"/>
            <path class="cls-44" d="M81.06,11.25c6.86-1.05,36.32-7.28,67.59,7.38C134.47,15.56,78.29,11.67,81.06,11.25Z" transform="translate(46 0.2)"/>
            <path class="cls-45" d="M106.74,18.09c4.91.58,14.62,2.69,16.24,2.47s-22.41.7-37.66-4.54S104.17,17.78,106.74,18.09Z" transform="translate(46 0.2)"/>
            <path class="cls-46" d="M80.15,25.37c3.45.64,31.31,6.6,35.52,8.22s-17.1-2.36-23.26-4.11S77.72,24.92,80.15,25.37Z" transform="translate(46 0.2)"/>
            <path class="cls-47" d="M79.73,27.43C81.45,26.91,93,30,92,30.12S76.65,28.34,79.73,27.43Z" transform="translate(46 0.2)"/>
        </g>
        <path class="cls-10" d="M67.52,87.07C65,86,62.81,82.76,60.32,83.59,56.87,84.72,52.75,87.23,49,87a9.3,9.3,0,0,1-3.22-.85c-.11.82-.22,1.63-.34,2.44-.33.11-.65.24-1,.37l-.07.44.83.83,7.54,4.56L56.59,92l2.25-.93A2.14,2.14,0,0,1,57.11,89c0-1.22,1-2.66,2.36-2.43,0,0,0,0,0,0a2,2,0,0,1,2.23,1.23,2.62,2.62,0,0,1-.33,2.26l2.19-.9c-.49-.14-1-.3-1.48-.43A52,52,0,0,1,67.52,87.07Z" transform="translate(46 0.2)"/>
        <g>
            <path class="cls-10" d="M107.68,73.23c-.34-1.8-.63-3.61-.84-5.37v0s0,0,0,0a4.86,4.86,0,0,1-.87,1c-3.57,3.06-10.11,3.1-14.52,3.31-5.63.27-11.27.06-16.9-.06-5.94-.13-10.8-.48-16.73-.87a23.77,23.77,0,0,1-8.46-1.75,7,7,0,0,1-1.63-1h0a27.94,27.94,0,0,1-.32,4.79h.91a13.09,13.09,0,0,1,2,0,17.79,17.79,0,0,1,4.64,1c1.89.7,3.59,2.65,5.54,3,3.38.57,5-1.48,7.73-2.15s4.61-.57,6.87,1.06c4.79,3.47,8.11-1.64,12.82-1.31a6.12,6.12,0,0,1,2.41,1.06c2.88,1.88,5.22.85,7.65-.66,2-1.28,4-1.71,6.14-.34A6.4,6.4,0,0,0,108.21,76C108,75.06,107.85,74.15,107.68,73.23Z" transform="translate(46 0.2)"/>
            <path class="cls-10" d="M106.85,67.84a4.22,4.22,0,0,0,.35-.66A3.52,3.52,0,0,1,106.85,67.84Z" transform="translate(46 0.2)"/>
            <path class="cls-10" d="M107.22,67.14s0,0,0,0l0,0Z" transform="translate(46 0.2)"/>
        </g>
        <polygon class="cls-48" points="86.23 145.68 83.1 135.73 77.17 122.84 74.77 111.75 76.9 100.75 83.1 94.62 90.64 89.78 92.14 92.14 98.79 95.01 151.15 93.12 158.56 89.05 166.22 91.63 170.99 96.68 176.4 107.25 176.4 115.82 173.87 125.2 170.26 134.11 168.42 138.75 122.4 152.25 86.23 145.68"/>
        <path class="cls-49" d="M41.28,141.6s-1.15-6-1.56-8.44S40.19,122.86,41,122s-2.8-2.25-2.8-2.25-2.67-9.63,2.57-14.64l5.23-5-4.24,9.22-1,8,5.4,2.59-2,2.15L41.55,128s.48,7.85.82,8.12.65,5.72.65,5.72Z" transform="translate(46 0.2)"/>
        <path class="cls-49" d="M120.77,128s-3.48-4.35-4.54-4.75-2-2.27-2-2.27l8.6-2.73s-2-9.25-3.55-12.17-7.93-10.17-8-11.27S116.23,92,116.23,92s2.8-.83.43-2.43-2.61-.48-3.4-.73-4.45,2.31-4.45,2.31l-3.36,2.22,7.41,7.42,3.79,6.9,1.75,7.38-2.48,2.53-9.07,3,5,3.54s4.82,4.25,5.11,4.76,2.66,9.11,2.66,9.11l3.26-.65,3.77-9.37,2.84-9.74s-3.61,8.82-5.23,11.64S121.4,130.38,120.77,128Z" transform="translate(46 0.2)"/>
        <polygon class="cls-50" points="89.81 159.76 94.02 162.69 96.07 162.62 112.41 172.28 118.38 186.75 102.89 205.55 91.42 205.64 82.11 202.76 74.77 199.74 82.04 192.63 86.23 182.7 88.94 172.92 87.75 161.95 87.93 156.69 89.81 159.76"/>
        <path class="cls-50" d="M99.88,184.19s6.4-8.34,6.77-8.39,7.17-12.52,7.17-12.52l3.14-7.89,1.05,1.09.95,1.91.93,1.3s.86,3.5.88,4.2,3.49,8.93,3.49,8.93l4.81,7.32s6.69,9.08,7.09,9.3,6.53,6.19,6.53,6.19l-3.78,2.21-11.22,5.63-2.43-.55-4.33-2.25-5.24-2L110.18,197l-3.52-3-2.34-5.18-1.69-3.13Z" transform="translate(46 0.2)"/>
        <path class="cls-51" d="M111.26,169.06s-3,9.08-1.22,15.61,6.49,14.69,6.49,14.69l-8.5-3.73L104.37,191,103,185.82l-2.63-1.37,3.14-4.32,5.3-7.31Z" transform="translate(46 0.2)"/>
        <path class="cls-51" d="M56,171.43c-.24.61,2.87,12.59,1.71,17.92a40,40,0,0,1-4.27,10.49,41.07,41.07,0,0,1,4.87-2c.46,0,2.27-2.73,2.27-2.73l4-3.35,1.21-2.83,2.21-4-8.45-8.57Z" transform="translate(46 0.2)"/>
        <path class="cls-10" d="M105.65,77.35c-2.52-.68-3.44-3.49-7-.89-1.53,1.12-3.79,3-5.92,2.29a16.38,16.38,0,0,1-3.18-1.61c-3.69-2.14-6,.39-8.82,1.77a5.31,5.31,0,0,1-5.43-.81C72.36,76,69.41,76,66,77.43a13,13,0,0,1-3.23,1.18c-3.18.31-4.68-1.43-7.41-2.68a13.38,13.38,0,0,0-8.22-1.19c-.12.77-.22,1.52-.29,2.21-.27,2.54-.56,5.08-.89,7.62a8.29,8.29,0,0,0,6,.55c2.92-.88,7.15-3.69,10.28-2.84A8.79,8.79,0,0,1,65,84.19c4.59,3.63,7.82,2,11.41-.5,2.26-1.55,3.88-2,6.31-.63s4.84,2.85,7.83.89a7.2,7.2,0,0,1,2.54-1.33,5.88,5.88,0,0,1,4.14,1c3.49,2.09,6.16.73,8.83-1.48a7.45,7.45,0,0,1,3.3-1.36c-.31-1.09-.59-2.2-.85-3.32A7.77,7.77,0,0,1,105.65,77.35Zm-49.11,2.1a2.37,2.37,0,0,1-2.49,1.73,2.64,2.64,0,0,1-1.8-3.45c.4-.9,1.43-.89,2.3-.61a2.52,2.52,0,0,1,1.58.81A1.67,1.67,0,0,1,56.54,79.45Zm15,3.36c-1.59.33-3.49-.74-3-2.56a3.45,3.45,0,0,1,.4-.86,1,1,0,0,1,.54-.64,1.47,1.47,0,0,1,1.73-.41,2.16,2.16,0,0,1,2,.89A2.47,2.47,0,0,1,71.5,82.81Zm16-1a2.24,2.24,0,0,1-2.29-.14,1.85,1.85,0,0,1-.66-1.13c-.39-.5.23-1.58.6-1.9a2.37,2.37,0,0,1,2.53-.34A1.91,1.91,0,0,1,87.5,81.77ZM100,82.84c-1.32.07-2.93-1-2.63-2.46a2.62,2.62,0,0,1,2.9-2,1.83,1.83,0,0,1,2.17,1.74A2.65,2.65,0,0,1,100,82.84Z" transform="translate(46 0.2)"/>
        <polygon class="cls-52" points="110.81 71.61 125.31 71.95 125.31 87.38 115.45 87.93 109.6 89.36 110.81 71.61"/>
        <polygon class="cls-53" points="125 72.04 125 87.38 141.76 88.98 140.12 71.61 125 72.04"/>
        <polygon class="cls-54" points="111.56 71.26 111.06 88.92 98.88 94.35 100.88 70.64 111.56 71.26"/>
        <path class="cls-55" d="M116.56,198.76c-2.44-.3-4.9-.67-6.83-2.28a1.37,1.37,0,0,1-.42-.64.5.5,0,0,1-.27-.18.43.43,0,0,1-.62-.34l-.06-.17-.76-.36L65,190.6l-.53,1.33L62.74,193l-1.87,1.75-1.41,1.37-.36,1.18-8.58,3.76-6.11,5.33-2.83,4.7-.53,7.05-.18,3.15L38.21,225l2,2,.26,1.29-.88,6.21.63,5.71h91.19c-.78-4.8.37-7.13.27-9.83-.23-6.49-.21-12.43-.51-16.36-.16-2-1.75-7.16-3.33-9.14C126.79,203.49,118.78,199,116.56,198.76Z" transform="translate(46 0.2)"/>
        <polygon class="cls-56" points="153.02 66.03 152.47 64.16 148.44 61.02 136.54 59.38 119.57 58.8 106.29 60.08 96.63 62.42 93.4 65.36 93.85 67.99 98.37 70.08 116.83 71.75 138.04 71.75 148.44 70.07 153.02 66.03"/>
        <path class="cls-57" d="M121.12,225a55.86,55.86,0,0,1,.28,5.83,41.18,41.18,0,0,1-1.33,6.26,16.55,16.55,0,0,1-1.67,3.16s-3.91,0-3.91,0l.59-1.93,3.36-5.32.32-4.18-.39-3.81Z" transform="translate(46 0.2)"/>
        <path class="cls-58" d="M85.64,209.22a5.48,5.48,0,0,1,1.47,2,6.6,6.6,0,0,0,.63-1.43c.2-.66.4-1.5.71-2.29a4,4,0,0,1-1.25-4.16c.46-1.33,1.85-2.3,3-3a24.59,24.59,0,0,0,4.7-3.53,18.79,18.79,0,0,0,3.94-6.2c-.56-.94-1.19-1.82-1.72-2.8a25.58,25.58,0,0,1-6.93,3.83c-7,2.45-13.8-.16-19.59-4.16-.29.85-.62,1.7-.88,2.51-.35,1.05-.65,2.15-1,3.22a12,12,0,0,0,1,1.36,43.54,43.54,0,0,0,4.67,4.33,45.14,45.14,0,0,0,6.77,4.74c1.57.9,3.63,2.11,2.86,3.91A18.43,18.43,0,0,1,85.64,209.22Z" transform="translate(46 0.2)"/>
        <path class="cls-59" d="M65.71,191a15.11,15.11,0,0,0-1.77,1.34L59.45,196l-.73,1.86,1.81,5.36-.48,6.36,1.47,3.95s3.42.88,3.6.94,3.58,1.4,3.58,1.4l.31,3-1.31,3.8,4.56,3.52,5.31,5.17,5.66,8.85h7.42l-1.81-5.83-5.49-12.12-2.54-6.85-1.35-3.91-1.6,1.61-1.24,1.23L74,208.67l-3.48-7.74-4.08-7.35Z" transform="translate(46 0.2)"/>
        <path class="cls-60" d="M70.79,187.23c2.24,2.91,11.62,11.36,18,9.85s7.24-3.25,7.62-2.94,1.06,0,1.06,0l1.83-3.54-1.83-3.95-5.2,3.61-6.35,2.27-4.8-1-9.32-4.31Z" transform="translate(46 0.2)"/>
        <path class="cls-61" d="M47.4,159a1.93,1.93,0,0,0-2.09.11l-.36.27a2.86,2.86,0,0,0-.68.92,4,4,0,0,0-.28,2,2.27,2.27,0,0,0,3.25,1.24,2,2,0,0,0,.63-.67q.08-.15.15-.33C48.48,161.48,48.5,159.69,47.4,159Z" transform="translate(46 0.2)"/>
        <path class="cls-62" d="M85.68,172.86a19.11,19.11,0,0,1-6.61-.46c-2-.39-4.14-.49-6.17-.85,1,.85,2.23,2,3,2.78,1.43,1.39,5.74,3.39,7.16,3.25,4-.39,7.57-.85,10.11-4.29.88-1.19,1.73-2.47,2.65-3.69-.94.37-1.88.71-2.77,1.07A33,33,0,0,1,85.68,172.86Z" transform="translate(46 0.2)"/>
        <path class="cls-62" d="M88.68,166.92a21.63,21.63,0,0,0-3.39.67c-2.62.58-5.43-.15-7.9,1.06-1.47.73-2.82,1.73-4.25,2.56,4.55-.48,9,1.84,13.65.8a33.82,33.82,0,0,0,7.12-2.5c.8-.38,1.63-.83,2.49-1.21a27.66,27.66,0,0,1-3-.52A16.43,16.43,0,0,0,88.68,166.92Z" transform="translate(46 0.2)"/>
        <path class="cls-63" d="M106.23,230.29c1,0,2,0,3,.08l-.76-.89c-.59-.72-1.81-2.64-2.93-2.49-1.41.19-2.22,1.88-3,3.3C103.75,230.21,105.08,230.26,106.23,230.29Z" transform="translate(46 0.2)"/>
        <path class="cls-64" d="M117.79,135c-1.53-3.06-2.76-7.07-5.75-8.84a13.49,13.49,0,0,1-5.4-5.06,10.31,10.31,0,0,1-.62-1.34,102.47,102.47,0,0,1-25.18,4.43c-10.58.56-20.45-1.29-30.19-4.06h0c-.46.11-.94.22-1.41.29s-1,.15-1.43.22l-.16,0h0c-.43.07-.85.13-1.27.21-2,2.14-3.77,4.56-4,7.58s.45,5.69.87,8.52a26.14,26.14,0,0,1,.24,3.75c0,.16,0,.3,0,.46,0,.32,0,.62.08.94a6,6,0,0,0-1,0,3.14,3.14,0,0,0-.74.15,4.48,4.48,0,0,0-2.61,2.31,7.89,7.89,0,0,0,.35,8.17c1.46,2.19,3.34,4,5,6l.14-.13a2.74,2.74,0,0,1,2.93-.59,2.82,2.82,0,0,1,1.29,1.57,4.24,4.24,0,0,1,.25,1.33,4.51,4.51,0,0,1-.2,1.47,3.92,3.92,0,0,0,.66-.31c.26-.16.52-.34.78-.49l.62,1c2.56,4.1,4.83,8.37,8,12.1a63.75,63.75,0,0,0,9.73,9.56l.47.35c.24.18.48.37.72.54l.25.18L71,186c3.71,2.59,8.14,5.12,12.69,5.19,4.76.08,9.1-2,12.71-4.94l.49-.39c.15-.15.32-.3.48-.44.52-.44,1-.92,1.52-1.39l.73-.68c6.27-6.24,11.7-13.84,14.28-22.19,3.5-11.29,5.78-2.85,8.91-5.72,1.09-1,3.94-12,4.26-13.44C125.18,134.61,120.07,139.59,117.79,135ZM88.52,152.49c-1.94-.74-3-3.44-3.35-5.31A13.07,13.07,0,0,1,86.24,140a.07.07,0,0,1,.14,0c.13,2.16-.39,4.32-.25,6.49a11.23,11.23,0,0,0,.84,3.1,28.51,28.51,0,0,0,1.69,2.7C88.72,152.39,88.62,152.53,88.52,152.49Zm.35,5.15c-1.38,2.36-5.75.69-7.58-.18-.29-.14-.17-.68.17-.64,1.12.15,2.19.55,3.3.76a5,5,0,0,0,2.39,0,3.36,3.36,0,0,1,1.51-.34A.24.24,0,0,1,88.87,157.64Zm-11.59-.36c.32.26.72.28,1,.55a.21.21,0,0,1-.08.35c-1,.37-1.82-.7-1.82-1.56a10.76,10.76,0,0,1,1-3.44c0-.06.13-.05.12,0-.11.91-.45,1.78-.53,2.68C76.94,156.32,76.89,157,77.28,157.28Zm-27,.35c-2.06-.36-5.62-2.09-5.37-4.6.16-1.5.48-3.08-.49-4.43a5.82,5.82,0,0,0-2.17-1.89c-.54-.25-1-.27-1.41-.7a.23.23,0,0,1,0-.34c.9-.6,2.43.35,3.13.94a5.54,5.54,0,0,1,2.17,3.82c.08,1.11-.6,2.92.11,3.87,1.09,1.44,3.2,1.6,4.12,3.15A.12.12,0,0,1,50.28,157.63ZM51,132.72c3.33-2.35,6.72-6.12,11.12-6.29a11.9,11.9,0,0,1,6.18,1.51c1.08.62,2.12,1.3,3.22,1.86.91.47,1.92.63,2.82,1.11a.17.17,0,0,1,0,.3c-1.56.8-3.52-.16-4.94-.93-2.08-1.13-4.33-2.42-6.78-2.34-4.56.16-7.21,4.21-11.43,5.21A.24.24,0,0,1,51,132.72ZM69.9,142.3c-2,1.37-5.34.71-7.53.61-1.93-.08-3.69,0-5-1.54a41.55,41.55,0,0,1-2.86-3.93c-.19-.25-.37-.51-.55-.76l.51-.21c.82-.37,1.62-.79,2.45-1.16a15.62,15.62,0,0,1,3-1c.39-.08.77-.15,1.16-.21a17.43,17.43,0,0,1,1.76-.16c.21,0,.43,0,.64,0l.6,0a17.06,17.06,0,0,1,4.3.73l.46.14,1.32.45.56.21.56.21a18.36,18.36,0,0,1,3.14,1.56c.23.15.44.31.64.47a2.6,2.6,0,0,0-1.11.36C72.32,139,71.37,141.27,69.9,142.3Zm27.71,26.11c-.17.23-.34.44-.5.67-.49.66-1,1.31-1.44,2A30.08,30.08,0,0,1,92.89,175c-2.31,2.42-5.36,3-8.6,3.25A9.31,9.31,0,0,1,77,176.18c-1.76-1.31-3.48-2.87-5.18-4.26l-.34-.27.82-.59c1.87-1.35,3.88-2.91,6-3.57,2.35-.74,4.85-.27,7.24-1a12.54,12.54,0,0,1,6.9,0,20.52,20.52,0,0,1,3.77,1,5.18,5.18,0,0,0,1.07.36l.13,0,.53.1Zm-7-13.68a4.37,4.37,0,0,1-.68-1.41.11.11,0,0,1,.16-.11c1,.62,1.82,3,.57,3.78,0,0-.1,0-.09-.08,0-.31.23-.59.27-.9A2.15,2.15,0,0,0,90.65,154.73ZM109.82,136a43.19,43.19,0,0,1-2.87,3.91c-1.35,1.55-3.11,1.47-5,1.56-2.18.09-5.57.74-7.52-.62-1.48-1-2.42-3.32-4-4.22a2.91,2.91,0,0,0-1.11-.37,6.14,6.14,0,0,1,.64-.46A17.66,17.66,0,0,1,93,134.27l.56-.22.56-.21c.43-.16.88-.3,1.32-.44l.46-.14a17.38,17.38,0,0,1,4.29-.74h.61l.64,0c.59,0,1.17.09,1.75.17.39.06.78.13,1.16.21a15.43,15.43,0,0,1,3,1c.83.35,1.63.78,2.46,1.14l.5.22C110.19,135.51,110,135.76,109.82,136Zm1.28-5.25c-4.29-.63-7.28-4.46-11.83-4.22-2.47.12-4.59,1.59-6.56,2.9-1.35.89-3.22,2-4.85,1.34a.18.18,0,0,1,0-.3c.86-.54,1.85-.8,2.72-1.34,1-.66,2-1.42,3-2.12a11.82,11.82,0,0,1,6-2c4.4-.2,8.1,3.27,11.63,5.32A.25.25,0,0,1,111.1,130.78Z" transform="translate(46 0.2)"/>
        <path class="cls-65" d="M87,213a7.73,7.73,0,0,0-.31-1.07,6,6,0,0,0-1.47-2.29,11.88,11.88,0,0,1-1.48-1.61,4.75,4.75,0,0,1-.58.67c-1,1-2,1.89-3,2.86.23.44.43.88.61,1.29,1.11,2.52,1.57,5.25,2.56,7.81.88,2.27,2.21,4.4,3.23,6.61l.24.53c0-1,.08-2.08.16-3.11a81.68,81.68,0,0,0,.37-8.84A17.41,17.41,0,0,0,87,213Zm-1.19.16c-.16.32-.42.73-.81.8-.72.14-1.22-.59-1.34-1.2a1.07,1.07,0,0,1,.22-.91.69.69,0,0,1,.42-.22c.09,0,.17-.09.26-.07l0,0a.1.1,0,0,1,.08,0,1.12,1.12,0,0,1,1.08.44A1,1,0,0,1,85.77,213.19Z" transform="translate(46 0.2)"/>
        <path class="cls-63" d="M89.33,206.59l.49.48c1.09,1,2.33,1.83,3.5,2.73a18.76,18.76,0,0,1,2,1.68,32.51,32.51,0,0,0,1.38-3.26,51.18,51.18,0,0,0,1.66-6.67c.51-2.38,1.44-4.67,1.88-7.06a27.56,27.56,0,0,0,.38-5.8,14,14,0,0,1-.68,2c-.15.38-.31.74-.48,1.09s-.35.71-.51,1a20.08,20.08,0,0,1-4.63,5.82c-1.41,1.22-3.15,2-4.54,3.23s-2,2.89-.7,4.44C89.16,206.4,89.24,206.5,89.33,206.59Z" transform="translate(46 0.2)"/>
        <path class="cls-63" d="M78.94,204a56.07,56.07,0,0,1-5.33-4.4,36.35,36.35,0,0,1-5.33-5.27,10.19,10.19,0,0,1-.6-.91,8.54,8.54,0,0,1-1.12-3c0-.17,0-.34-.07-.52a7.82,7.82,0,0,0,1,5.13,56.22,56.22,0,0,1,4.28,8.08,85.07,85.07,0,0,0,4.29,8.4c.31.61.68,1.3,1,2,.14-.18.28-.37.44-.56L79,211.36l.6-.69c.74-.83,1.46-1.66,2.25-2.58C83.58,206,80.28,205,78.94,204Z" transform="translate(46 0.2)"/>
        <path class="cls-66" d="M92.84,214.8a30,30,0,0,1,.64-3.33c-.88-.72-1.86-1.38-2.87-2.11-.44-.31-.9-.66-1.35-1.05l-.12.36a19.85,19.85,0,0,1-.83,2.39,6.46,6.46,0,0,1-.83,1.33,6.77,6.77,0,0,1,.19,1.33,86.13,86.13,0,0,1-.12,9.64c-.06,1.26-.09,2.54-.13,3.81v.24c1.17-2.47,2.62-4.81,3.65-7.37A38.43,38.43,0,0,0,92.84,214.8Zm-3.5,5.79a.78.78,0,0,1-.75-.34c0-.05-.08,0-.08-.11a1.32,1.32,0,0,1-.23-.63,1.21,1.21,0,0,1,.47-1.08,1.19,1.19,0,0,1,1.9.89A1.37,1.37,0,0,1,89.34,220.59Z" transform="translate(46 0.2)"/>
        <path class="cls-67" d="M84,213.56c.28.28,1.61,2.15,2.51,1.34s.85-2.48-.64-2.65C85.06,212.81,84,213.56,84,213.56Z" transform="translate(46 0.2)"/>
        <path class="cls-67" d="M88.59,220.25c.07.84,1.3,1.5,1.92,1.08s.87-2.05.87-2.05l-.94-.28Z" transform="translate(46 0.2)"/>
        <path class="cls-59" d="M105.34,193a10.54,10.54,0,0,1-1.25-2.57c-.56-1.48-1.55-5-3.45-5.52,0,.1.07.21.1.32a6.34,6.34,0,0,1,.63,2.89,26.47,26.47,0,0,1,0,5.34c-.32,2.68-1.33,5.17-1.91,7.79a50.49,50.49,0,0,1-1.79,7.25c-.49,1.29-1,2.58-1.6,3.84-.2.42-.39.83-.6,1.23a8.36,8.36,0,0,0-.75-.92l-.34-.34a12.94,12.94,0,0,1-.57,2.77,40.35,40.35,0,0,1-1.77,5.24,54.8,54.8,0,0,1-4.64,9.09l0,0q.89,2,1.68,4.08c.39,1,.76,2.06,1.13,3.1,1.28-1.3,2.52-2.64,3.68-4.08,2.33-2.89,4.31-6,6.8-8.75,1-1.11,3.5-3.17,3.31-4.79-.12-1-1.35-1.64-1.93-2.38-.91-1.18-1.81-3.27-.45-4.49a17.45,17.45,0,0,1,2.38-1.52c1.78-1.15,2.27-2.85,2.41-4.85a17.13,17.13,0,0,1,.78-4.12c.52-1.6,1.56-3.95.62-5.56C107.17,194.91,106.12,194.08,105.34,193Zm-4.24,26.8a.37.37,0,0,1-.13.2.47.47,0,0,1-.57.07c-.92-.49-1.68-1.35-2.73-1.62-.33-.08-.24-.53.08-.56,1.13-.09,2.24.79,3.13,1.38A.48.48,0,0,1,101.1,219.79Z" transform="translate(46 0.2)"/>
        <path class="cls-68" d="M75.56,133.8c-.51.53-.46,1.4-1.76,5.92S65,144,60.08,143.16s-6.18-5.91-7.1-7.92-.57-2.39,1.84-4.16,5.77-2.85,6.39-3.44,4.23.26,6.18,0c1.08-.15,4.07,3,4.07,3S76.25,133.07,75.56,133.8Z" transform="translate(46 0.2)"/>
        <polygon class="cls-69" points="86.74 117.53 87.55 108.87 91.28 102.24 100.33 93.73 106.25 90.3 115.42 88.2 125.78 87.38 138.26 88.5 151.32 93.02 158.63 100.6 163.32 109.13 164.83 115.82 145.57 122.66 126.31 125.2 109.22 123.87 93.78 120.36 86.74 117.53"/>
        <path class="cls-68" d="M87.77,132.51c.5.53.88,2.92,2.19,7.44s7.91,4,12.86,3.21a11.69,11.69,0,0,0,8.56-6.57c.91-2-.46-5-2.87-6.8s-5.77-2.85-6.4-3.44-4.25-.42-6.17,0-8.08,4.45-8.08,4.45S87.07,131.78,87.77,132.51Z" transform="translate(46 0.2)"/>
        <polygon class="cls-70" points="139.53 134.71 144.63 133.36 150.04 133.65 150.25 135.28 148.75 138.75 145.88 140.5 142.17 139.62 140.09 137.58 139.29 134.71 139.53 134.71"/>
        <path class="cls-63" d="M104.56,133.9c.46,3.47-1.68,7.24-5.79,6.76A6.32,6.32,0,0,1,93,135.37c-.64.32-1.28.65-1.93.95a8,8,0,0,1,1.94,1.91c.7.89,1.4,2,2.59,2.32a14.89,14.89,0,0,0,4.32.27c1.52-.07,3.38.14,4.85-.33a4.33,4.33,0,0,0,2.18-1.87c.73-1,1.47-2,2.25-2.87l-.06,0A29,29,0,0,0,104.56,133.9Z" transform="translate(46 0.2)"/>
        <path class="cls-49" d="M98.77,139.71c3.59.11,5.41-3,4.73-6.05a11.46,11.46,0,0,0-1.56-.19h-.09a3.41,3.41,0,0,1-2.11,4.47c-1.64.49-3.41.2-4.2-1.44a4,4,0,0,1-.31-2.06l-.31.1c-.44.16-.87.35-1.31.56a4.64,4.64,0,0,0,1.24,2.78A5.79,5.79,0,0,0,98.77,139.71Z" transform="translate(46 0.2)"/>
        <path class="cls-70" d="M64.76,138.56a2.53,2.53,0,0,0,3.5-1.36,3.81,3.81,0,0,0,.2-1.54,17.35,17.35,0,0,0-5.06-.78,4.59,4.59,0,0,0-.25.63A2.48,2.48,0,0,0,64.76,138.56Z" transform="translate(46 0.2)"/>
        <path class="cls-70" d="M99.51,137.14a2.48,2.48,0,0,0,1.61-3,3.27,3.27,0,0,0-.25-.64,17.69,17.69,0,0,0-5.05.79,3.8,3.8,0,0,0,.19,1.54A2.54,2.54,0,0,0,99.51,137.14Z" transform="translate(46 0.2)"/>
        <path class="cls-71" d="M97.47,134.54a1.24,1.24,0,0,0,0,1.57,1.09,1.09,0,0,1-1.06-1.24C96.5,134.37,97.47,134.54,97.47,134.54Z" transform="translate(46 0.2)"/>
        <polygon class="cls-70" points="116.6 136.14 111.5 134.79 106.08 135.08 105.88 136.71 107.38 140.17 110.25 141.93 113.96 141.05 116.04 139.01 116.83 136.14 116.6 136.14"/>
        <path class="cls-71" d="M64.29,135.34a1.26,1.26,0,0,0,0,1.58,1.09,1.09,0,0,1-1.06-1.24C63.32,135.17,64.29,135.34,64.29,135.34Z" transform="translate(46 0.2)"/>
        <path class="cls-72" d="M121.87,156c-1.1,1.12-4.26-1.62-4.26-1.62-2.58,8.13-6.78,16.54-14.55,26.23S84.12,196.16,73.15,188c14.94,3.73,23.1-3.38,26.14-7.61,1.55-2.17,1.76-4.93,8.64-17.6s7.46-23.6,6.22-27.93-2.65-5-2.78-5.1c.77-2.69-5.72-5.34-6.86-6.92a9.34,9.34,0,0,1-.59-.94c-.23-.4-.46-.53-.71-1,0,0,.66,1.9.48.61-33,7.81-49.31-.75-49.89-.52a15.8,15.8,0,0,1-2.58.81,16,16,0,0,1-4,.45,20.29,20.29,0,0,0-2.48,5.86c-1.06,3.84-1.32,11.38-1.22,13.77l-2.24-10.27.9-5.2L45,122.18l1.15-2s28.91,9.64,61,.45l9.23,6.88s3.51,7.77,3.87,10.68c.14,1.06,2.19-2.41,6,1.53C128.68,142.29,124.11,153.77,121.87,156Z" transform="translate(46 0.2)"/>
        <path class="cls-73" d="M97.28,168.86c-.65,1.71-2.42,6.65-4.9,8s-10.45,5.93-18.27-3.67c4.65,2.94,6.59,4.37,6.59,4.37l2.71.32,3.44-.32,3.8-1.62L93,174.76l1.77-3Z" transform="translate(46 0.2)"/>
        <path class="cls-73" d="M90.67,153.73c1.12.81,3.54,2.34,1.65,3.9s-1,3-5.84,2.51a31.33,31.33,0,0,1-7.79-1.89c-.47-.07,2.13-1,3.07-.85s3.62,1.11,3.94,1.11a22,22,0,0,0,2.63-.67,4,4,0,0,0,2-1.38A5.43,5.43,0,0,0,90.67,153.73Z" transform="translate(46 0.2)"/>
        <path class="cls-73" d="M86.41,140.56c.48,1.54,1.4,8.71,3.55,10.28a6.59,6.59,0,0,1,2.42,4.26l-2-1.66a11.19,11.19,0,0,0-2.65-1.88c-.7-.11-2.12-3.25-2.07-4.65S86.41,140.56,86.41,140.56Z" transform="translate(46 0.2)"/>
        <path class="cls-73" d="M84,157.84c1.62-.12,5.09.9,4.76-1.87s.12-2.77-1.23-3.2c0,0,.78,4.06-1.38,4.22-2.87.23-4.42.41-4.42.41Z" transform="translate(46 0.2)"/>
        <path class="cls-63" d="M65.5,142.09c-4.1.47-6.25-3.3-5.79-6.76a28.41,28.41,0,0,0-4.62,1.82l-.05,0c.78.9,1.52,1.85,2.25,2.86a4.25,4.25,0,0,0,2.18,1.87c1.46.47,3.32.26,4.85.33a15.27,15.27,0,0,0,4.32-.26c1.19-.31,1.89-1.43,2.59-2.33a8.13,8.13,0,0,1,1.93-1.91c-.64-.3-1.29-.63-1.92-1A6.35,6.35,0,0,1,65.5,142.09Z" transform="translate(46 0.2)"/>
        <path class="cls-49" d="M65.5,141.14a5.74,5.74,0,0,0,3.92-1.84,4.56,4.56,0,0,0,1.24-2.78c-.43-.2-.87-.39-1.31-.55l-.31-.11a3.83,3.83,0,0,1-.31,2.07c-.78,1.63-2.55,1.92-4.19,1.44-2.06-.61-2.64-2.69-2.12-4.48h-.08a13.46,13.46,0,0,0-1.57.19C60.1,138.1,61.92,141.24,65.5,141.14Z" transform="translate(46 0.2)"/>
        <path class="cls-68" d="M106.44,144.2c.49-.35,5-3.58,5.85-4.9s1.85,1.58.26,8a63.51,63.51,0,0,1-5.39,13.46c-.35.61,2.67-13.43,2.09-14.5S104.52,145.54,106.44,144.2Z" transform="translate(46 0.2)"/>
        <path class="cls-74" d="M79,175.17c1.39.22,4.9,1.63,8.91.06s5.17-3.46,6.54-4.55a10.8,10.8,0,0,0,1.91-1.82l-1.91,3.42-2.12,2.79-1.72,1.21s-3.24,1.31-3.52,1.31H80.7S76.1,174.7,79,175.17Z" transform="translate(46 0.2)"/>
        <path class="cls-74" d="M79.93,171.82a26.41,26.41,0,0,0,6.55-.57c2.83-.74,4-1.15,5.13-1.38S97,168.21,97,168.21s-1.64,1.64-2.18,1.38-3.69,1.48-3.69,1.48L86,172.81H81.5Z" transform="translate(46 0.2)"/>
        <path class="cls-75" d="M44,162.26a1.65,1.65,0,0,0,2.92,0c.71-1.35,1.21-3.53,0-3.7a2.73,2.73,0,0,1,1.77,1.64v1.68l-.34,1.72-1.67.93-2-.93-1.31-.66Z" transform="translate(46 0.2)"/>
        <path class="cls-73" d="M41.31,146.35A4.87,4.87,0,0,1,44,151a5,5,0,0,0,3.21,5.38c2.28,1-1.61-2.25-1.56-2.51s.25-4.56,0-4.85-1.69-2.62-2.3-2.71A15.81,15.81,0,0,0,41.31,146.35Z" transform="translate(46 0.2)"/>
        <path class="cls-73" d="M48,158.39c.5.59,2.29,1.59,2,2.34s1.29.5,1.29.5,6.56,12.42,12.57,18.89c-.59.29-4.43-3.79-4.43-3.79s-6.1-8-6.2-8.12-3.18-5.69-3.18-5.69l-1.75.76L49,161a10.42,10.42,0,0,1-.93-1.8A3.74,3.74,0,0,0,48,158.39Z" transform="translate(46 0.2)"/>
        <path class="cls-76" d="M72,203.79c1.65,2.44,4.48,8.06,5.3,7.69s5.08-5.14,5.25-5.31.3,1.15.36,1.48-2.6,2.77-2.6,2.77L77.87,214l-1.31.66-2.33-5.44-2.86-5.44Z" transform="translate(46 0.2)"/>
        <path class="cls-76" d="M88,205.93c1.6,1.4,6.38,4,7,3.79s2.68-7.17,3-8.21,3.22-5.55,3-5.87-2,5.4-2,5.69-.72,3.7-1.12,4.08-.61,3.26-.84,3.44a41.35,41.35,0,0,0-1.65,3.93L90,208.31Z" transform="translate(46 0.2)"/>
        <path class="cls-60" d="M83.6,205.45c.64.37,3.31,2,3.82,2.86a14.93,14.93,0,0,1,.91,1.82l-.91,1.43-.94-.8-2.39-2.2-.74-.94Z" transform="translate(46 0.2)"/>
        <path class="cls-77" d="M94.14,213.92,96,215.1a18.82,18.82,0,0,0,2.08-4c.63-1.91,2-10,2.58-11.29s2.18-5.41,2.77-5.68,2.39,3,3,3.56.13,2.71,0,4.07-.06,4.73-.08,4.9,1-4.46,1-4.46l1.23-3.67-.67-3.42s-3.3-3.38-3.38-3.54-.9-3.28-1-3.55-.89-2.73-1.26-2.46-2.16-.9-2.16-.9.17,1.74.23,2,.71,3.3.71,3.3l-.1,2.35-.37,3.48-.81,3.58L98,203.49,96.86,208,95,211.82l-.89-.57-.66,1.85Z" transform="translate(46 0.2)"/>
        <path class="cls-77" d="M80.33,214l-4.59,4.85a51.38,51.38,0,0,0-2.36-7.92,87.34,87.34,0,0,1-2.89-9.38s3.11,7,3,7.17,3.28,5.59,3.28,5.59L79,211.76l.93,1Z" transform="translate(46 0.2)"/>
        <path class="cls-67" d="M84.69,208.51l-2.93,3.57s1.75,5.52,2.62,8,2.63,7.4,2.63,7.37v1.27s-3.37-5.8-3.41-5.89-2.52-6.68-2.52-6.68l-1.52-4.55a25.29,25.29,0,0,1,2.32-2.33,16,16,0,0,0,1.8-2.19l-.08.89Z" transform="translate(46 0.2)"/>
        <path class="cls-67" d="M87.93,211.75a9.06,9.06,0,0,1,.74,4.72c-.33,2.55-.74,8.46-.74,8.46s.08,2.4.08,2.48a10.19,10.19,0,0,1-1.23.86l.7-4.62-.06-4.79-.32-5,.18-1.81Z" transform="translate(46 0.2)"/>
        <path class="cls-55" d="M89.11,219a.86.86,0,0,0-.27.32,2.92,2.92,0,0,0,0,.36,1.3,1.3,0,0,1,.21.31.28.28,0,0,0,.26.06c.29-.06.71-.28.7-.63A.57.57,0,0,0,89.11,219Z" transform="translate(46 0.2)"/>
        <path class="cls-55" d="M84.68,212.09a2.36,2.36,0,0,0-.25,0l0,0a.26.26,0,0,0-.16.11.61.61,0,0,0,0,.46c0,.32.24.82.62.88a.68.68,0,0,0,.57-.35.63.63,0,0,0-.07-.8A1.12,1.12,0,0,0,84.68,212.09Z" transform="translate(46 0.2)"/>
        <path class="cls-57" d="M109.73,196.48a1.37,1.37,0,0,1-.42-.64.54.54,0,0,1-.27-.18.44.44,0,0,1-.63-.34,1.13,1.13,0,0,0-.23-.48l-.25.28s.58,2.95.68,3.42a16.77,16.77,0,0,1-.68,3l-1.21,2.86-.59,4.08-1.89,2.63-2.16.67-.12,1.76a17.86,17.86,0,0,0,.51,2.19c.08,0,2.47,3.11,2.47,3.11l-1.85,3.21-4.15,4.55-5.46,7.6-3,3.5.2,2.47h1.82s-.62-2.12,0-2.73,6.28-7.17,9-10.48,4.43-6.48,4.64-8.49-2-3.41-2.78-4.48,3.1-1.9,4.25-4.77,4.81-11.29,5.59-11.11A6.88,6.88,0,0,1,109.73,196.48Z" transform="translate(46 0.2)"/>
        <path class="cls-57" d="M121.12,225c-1-5.74-4.78-6.18-6-8.6V218l3.09,4.88.59,5.93.11,3.51.71-2.62C120,227.06,120.7,227.58,121.12,225Z" transform="translate(46 0.2)"/>
        <path class="cls-57" d="M57.33,223c-.77,3.06-.53,10.83,2.66,13.58s4.69,3.58,6.42,3.58h-7l-2.49-2-2.4-5.27.4-5.53,1.49-3.64Z" transform="translate(46 0.2)"/>
        <path class="cls-57" d="M60.2,212.78a3.28,3.28,0,0,0,2.83,2.8c2.15.49,5.07,1.15,4.67,2.28a14.74,14.74,0,0,0-.79,3.72,2.62,2.62,0,0,0,.35,1.74,15.39,15.39,0,0,0,1.43,1.27c1.81,1.46,4.7,3.72,6,5.78,1.81,2.83,5.63,9.83,5.63,9.83h2.9l-3.15-4.91-2.92-4.91L72.9,227l-4.44-3.74-.57-1.11L69,218.86l.64-2.51-1.77-.77-.62-.91-2.14-.17Z" transform="translate(46 0.2)"/>
        <path class="cls-57" d="M40.22,230.37s2.93,1.61,3.09,2.57-1.55-3.4-1.55-3.4L40,227.93Z" transform="translate(46 0.2)"/>
        <path class="cls-57" d="M54.75,230.37c0,.51-.31,9.82-2.9,9.82h6.93L56,236Z" transform="translate(46 0.2)"/>
        <path class="cls-78" d="M60.63,123.32A1.34,1.34,0,0,1,60.2,125c-.92.76-8.72,6.68-9.6,6.86s.45,4.26.9,4.73,5.88,8.81,6.89,8.9,10.11-1.16,11.26.83c1.73,3-10,4.32-10.2,6.44S62,167.52,63.76,169.6,73,183.12,75.41,184.1s-.58,2.84-3.69.57-11.27-12.16-14.39-17.76-7.47-14.36-9-14.41-1-5.16-2.23-6.28-3.51-2.56-4.9-1.6-1.48-.84,1.05-1.46,2.31-1.73,2.36-3.21,3.1-14.47,3.29-15.26,5.36-1.68,7.66-2.57C56.34,121.81,60.46,122.23,60.63,123.32Z" transform="translate(46 0.2)"/>
        <path class="cls-79" d="M84.69,140.56s-2.73,6.9.6,10.13-2.73,6-3.46,1.3S84,138.71,84.69,140.56Z" transform="translate(46 0.2)"/>
        <path class="cls-79" d="M78.37,153.14s-1.76,2.38-1,2.88,2.94-.67,2.94-.67a20.3,20.3,0,0,1-.25-2.59C80.17,152.44,78.8,152.51,78.37,153.14Z" transform="translate(46 0.2)"/>
        <path class="cls-72" d="M47.24,122.26c1.38.78,24.23,5.44,34,4.73s26-4,27-4.73a2.75,2.75,0,0,0-.89-1.8l-13.71,3.05L79.79,125l-15.31-1.2L51.4,121l-3.76.48Z" transform="translate(46 0.2)"/>
        <path class="cls-80" d="M57.33,200.09c-1.34.64-7,3.4-10.21,6.43s-3.83,4.88-4.15,6.57,3-.5,4.15-2,5.49-6,7.11-6.09,4.93.47,4.63-1.18S58.62,199.47,57.33,200.09Z" transform="translate(46 0.2)"/>
        <path class="cls-81" d="M60.53,197.26A19.28,19.28,0,0,1,64,194.14c1.1-.68,2.45,3.12,2.45,3.12s-3.6,3.66-4.3,4.3S60.08,197.94,60.53,197.26Z" transform="translate(46 0.2)"/>
        <path class="cls-81" d="M61.28,211.24c0-.89.94-5.11.83-6.2s3,3.51,3.66,5.46A1.89,1.89,0,0,1,63,212.78C61.76,212,61.26,211.91,61.28,211.24Z" transform="translate(46 0.2)"/>
        <path class="cls-81" d="M88.84,229.71c.53-.89,5.57-13.1,5.65-13.31s1,.83,0,3-5.65,11.05-5.65,11.05S88.33,230.59,88.84,229.71Z" transform="translate(46 0.2)"/>
        <path class="cls-80" d="M40.23,224.67s.54-1.95,1.42-2,.64,4.32.64,4.32S39.77,225.79,40.23,224.67Z" transform="translate(46 0.2)"/>
        <path class="cls-80" d="M59.45,217.12c-.14.45-.69,6.53-1.2,6.88s-.39,3.79,1.21,3.41,5.64-.94,7.8-.43-1.84-3.21-1.84-4.32S60.22,214.68,59.45,217.12Z" transform="translate(46 0.2)"/>
        <path class="cls-80" d="M104.94,224.35c2.17-.23,10.4.46,11.4,1.05s-2.19-6.75-2.9-7.45-5.52.38-6,1.06S103.87,224.46,104.94,224.35Z" transform="translate(46 0.2)"/>
        <path class="cls-57" d="M110.77,202.05c.73-1.47,3.73-.68,6.79,0s9.8,4,9.71,14.55,1.58,10.17,2,11.67-.61,5.18-.79,6.32a44.22,44.22,0,0,0,.26,5.61h2.7v-8.14l.72-4.4-1.52-6.94.25-8.46-2.85-8-5.12-2.64-8.37-3.72-3.69-.59L110,200Z" transform="translate(46 0.2)"/>
        <path class="cls-82" d="M78.94,204a56.07,56.07,0,0,1-5.33-4.4,36.35,36.35,0,0,1-5.33-5.27,10.19,10.19,0,0,1-.6-.91,8.54,8.54,0,0,1-1.12-3c0-.17,0-.34-.07-.52a7.82,7.82,0,0,0,1,5.13,56.22,56.22,0,0,1,4.28,8.08,85.07,85.07,0,0,0,4.29,8.4c.31.61.68,1.3,1,2,.14-.18.28-.37.44-.56L79,211.36l.6-.69c.74-.83,1.46-1.66,2.25-2.58C83.58,206,80.28,205,78.94,204Z" transform="translate(46 0.2)"/>
        <path class="cls-82" d="M99,192.82a20.08,20.08,0,0,1-4.63,5.82c-1.41,1.22-3.15,2-4.54,3.23s-2,2.89-.7,4.44c.08.09.16.19.25.28s.33.32.49.47c1.09,1,2.33,1.84,3.5,2.73a20.17,20.17,0,0,1,2,1.69,33.53,33.53,0,0,0,1.38-3.26,51.18,51.18,0,0,0,1.66-6.67c.51-2.38,1.44-4.67,1.88-7.06a27.66,27.66,0,0,0,.38-5.81,13.7,13.7,0,0,1-.68,2c-.15.38-.31.74-.48,1.09S99.11,192.5,99,192.82Z" transform="translate(46 0.2)"/>
        <path class="cls-82" d="M69.67,194.56a42.54,42.54,0,0,0,4.67,4.33,45.14,45.14,0,0,0,6.77,4.74c1.57.9,3.63,2.12,2.86,3.92a17.3,17.3,0,0,1,1.67,1.67,5.48,5.48,0,0,1,1.47,2,6.6,6.6,0,0,0,.63-1.43c.2-.66.4-1.5.71-2.29a4,4,0,0,1-1.25-4.16c.46-1.32,1.85-2.3,3-3a24.59,24.59,0,0,0,4.7-3.53,18.79,18.79,0,0,0,3.94-6.2c-.56-.94-1.19-1.82-1.72-2.8a25.49,25.49,0,0,1-6.94,3.83c-7,2.45-13.79-.16-19.58-4.16-.29.85-.62,1.7-.89,2.51-.34,1.05-.64,2.15-1,3.22A12,12,0,0,0,69.67,194.56Z" transform="translate(46 0.2)"/>
        <path class="cls-82" d="M47.4,159a1.93,1.93,0,0,0-2.09.11l-.36.27a2.86,2.86,0,0,0-.68.92,4,4,0,0,0-.28,2,2.27,2.27,0,0,0,3.25,1.24,2,2,0,0,0,.63-.67q.08-.15.15-.33C48.48,161.48,48.5,159.69,47.4,159Z" transform="translate(46 0.2)"/>
        <path class="cls-82" d="M68,191.93c.28-1,.63-1.9.92-2.79s.47-1.54.7-2.33c-.45-.32-.88-.65-1.32-1-.28.54-.6,1.08-.91,1.63a4.79,4.79,0,0,0-.13,1.71A9.47,9.47,0,0,0,68,191.93Z" transform="translate(46 0.2)"/>
        <path class="cls-82" d="M99.25,189.44a7.18,7.18,0,0,0,.52-3.91q-.85.81-1.77,1.56A11.59,11.59,0,0,0,99,189Z" transform="translate(46 0.2)"/>
        <path class="cls-82" d="M41,181.75c-2,6.34-5.61,13.47-11.11,17.78a95.83,95.83,0,0,0,11.76,4c1.29.31,2.6.54,3.92.74.47-.43,1-.85,1.47-1.25.86-.65,1.72-1.29,2.62-1.87a5.72,5.72,0,0,0,.76-.47l.5-.3v0a13.43,13.43,0,0,1,1.27-.6c2.2-.89,4.54-1.47,6.39-3a2.86,2.86,0,0,1,.94-1.46c1.12-1,2.6-1.63,3.63-2.71a29.73,29.73,0,0,0,2.16-2.51,12.29,12.29,0,0,1,1.76-3.72,6.41,6.41,0,0,1,.64-1.11c-.66-.54-1.31-1.08-1.94-1.63-6.33-5.53-12.22-12.62-15.7-20.41l-.2.11a9.15,9.15,0,0,1-1.69.42,3,3,0,0,1-4.37-.19A58.74,58.74,0,0,1,41,181.75Z" transform="translate(46 0.2)"/>
        <path class="cls-83" d="M93.93,71.43l1.46,17.19,9.4,4.31,7.68-4.79s-4.57-14.38-4.26-14.64-1.12-7-1.12-7l-3.89,3.2-5.4,1.38Z" transform="translate(46 0.2)"/>
        <path class="cls-82" d="M105.15,92A37.87,37.87,0,0,0,110,89.24a46.24,46.24,0,0,0-8.52.72,24.32,24.32,0,0,1,3.33,1.75Z" transform="translate(46 0.2)"/>
        <path class="cls-82" d="M43.81,159.67l-.3-.36c0,.25.07.51.1.77A3.11,3.11,0,0,1,43.81,159.67Z" transform="translate(46 0.2)"/>
        <path class="cls-82" d="M107.6,202.86c-.49,1.95-.33,4-.94,5.78,6.09-1.78,12.39-2.89,18.4-5l.43-.16c-4.7-3.79-11.67-3.66-16.8-7.44C109.41,198.27,108.21,200.45,107.6,202.86Z" transform="translate(46 0.2)"/>
        <path class="cls-82" d="M107.23,201.64c.52-1.6,1.56-3.95.62-5.56-.68-1.17-1.73-2-2.51-3.09a10.36,10.36,0,0,1-1.25-2.57c-.56-1.48-1.55-5-3.45-5.52a3,3,0,0,1,.1.32,6.34,6.34,0,0,1,.63,2.89,26.47,26.47,0,0,1,0,5.34c-.32,2.69-1.33,5.17-1.91,7.8a50.36,50.36,0,0,1-1.79,7.24c-.49,1.29-1,2.58-1.6,3.84q-.28.63-.6,1.23a9.41,9.41,0,0,0-.75-.92l-.34-.34a13.58,13.58,0,0,1-.56,2.77,41.42,41.42,0,0,1-1.78,5.24,54.8,54.8,0,0,1-4.64,9.09l0,0c.59,1.35,1.16,2.71,1.68,4.08.39,1,.76,2.07,1.14,3.11,1.27-1.31,2.51-2.65,3.67-4.09,2.33-2.89,4.31-6,6.8-8.75,1-1.11,3.51-3.17,3.31-4.79-.12-1-1.35-1.64-1.93-2.38-.91-1.18-1.81-3.27-.45-4.49a17.45,17.45,0,0,1,2.38-1.52l.28-.21c-.54.06-1.09.14-1.63.19-.38,0-.4-.52-.09-.63,1-.37,2-.7,3-1a7.6,7.6,0,0,0,.83-3.19A16.64,16.64,0,0,1,107.23,201.64Z" transform="translate(46 0.2)"/>
        <path class="cls-82" d="M44.58,90.93a.68.68,0,0,1-.59-.27,20.74,20.74,0,0,0-12,11c-4,8.84-2.14,17.69,1.92,26.13,2.5,5.18,5.45,9.06,6.71,14,.23-.08.45-.15.67-.24a.52.52,0,0,0,.18-.1,5.64,5.64,0,0,1,1-.25c-.15-1.66-.4-3.32-.67-5-.48-2.89-1.24-6.12-.5-9a14.81,14.81,0,0,1,3.5-5.91.54.54,0,0,1-.2.1l-.11.08a.61.61,0,0,1-.25.06c-.12.35-.31.66-.8.64l-.07,0c-.33.32-.72.57-1.06.87a7.52,7.52,0,0,1-2.94,1.71.52.52,0,0,1-.57-.77A9.9,9.9,0,0,1,41,122a19.13,19.13,0,0,1,1.37-1.34.58.58,0,0,1,.57-.24.45.45,0,0,1,.61-.14s0,0,0,0a.52.52,0,0,1,.55-.23.49.49,0,0,1,.48-.36h.07s.07,0,.11,0h.09l0,0c-1.21-.46-2.41-.94-3.59-1.46l0,.06a.38.38,0,0,0-.15-.09,4.22,4.22,0,0,1-.89-.41c0-.3,0-.6.05-.9h0c.5-3,.09-6.23,1.11-9.18,1.32-3.84,4.26-7.49,7.26-10.58a32.52,32.52,0,0,1,3-2.72A28.45,28.45,0,0,1,44.58,90.93Z" transform="translate(46 0.2)"/>
        <path class="cls-82" d="M59.13,89.92c-4.86-.74-9.45-.89-13.53.23a38.83,38.83,0,0,0,7.28,3.38A35.17,35.17,0,0,1,59.13,89.92Z" transform="translate(46 0.2)"/>
        <path class="cls-82" d="M87,213a7.73,7.73,0,0,0-.31-1.07,6,6,0,0,0-1.47-2.29,11.88,11.88,0,0,1-1.48-1.61,4.75,4.75,0,0,1-.58.67c-1,1-2,1.89-3,2.86.23.44.43.88.61,1.29,1.11,2.52,1.57,5.25,2.56,7.81.88,2.27,2.21,4.4,3.23,6.61l.24.53c0-1,.08-2.08.16-3.11a81.68,81.68,0,0,0,.37-8.84A17.41,17.41,0,0,0,87,213Z" transform="translate(46 0.2)"/>
        <path class="cls-82" d="M112.62,89.78l-.14-.36a37.29,37.29,0,0,1-6,3.5c7.4,5.49,10.57,13.5,13,21.33l.08,0a8.24,8.24,0,0,1,.46,1.56,6.63,6.63,0,0,0-1.31.64l0-.06a88.5,88.5,0,0,1-10.51,4.26,8.1,8.1,0,0,0,1.13,1.42c2.15,2.06,5.25,2.93,7.26,5.17,2.51,2.79,3.44,7.55,4.4,11.21,1.49-3.46,2.81-6.64,4.7-10.57,4.06-8.44,5.37-17.29,1.4-26.12-3.54-7.91-7.45-11.26-13.7-12.2C113.47,90.07,112.87,90.31,112.62,89.78Z" transform="translate(46 0.2)"/>
        <path class="cls-82" d="M104.79,93.68c-9.4,3.92-20.48,4.74-30.2,4.56-7.45-.13-14-.79-21.1-3.2-2.46,1.82-5.63,3.9-7.25,6.51a28,28,0,0,0-4.36,12.59,31.56,31.56,0,0,1-.33,3.17q2.91,1,5.8,1.85l.91-.15a22.77,22.77,0,0,0,3.55-.8c2.14-.69,4-1.85,6.07-2.66s4.31-1.29,6-2.58c2.16-1.62,1.25-3.91,2.59-5.87.52-.75,1.19-1.35,1.77-2a2.43,2.43,0,0,0,.58-2.3l.15-.13a9.81,9.81,0,0,1,1.4-.9l.09,0a65.13,65.13,0,0,0,7.91,3.82c4.81,2,9.93,4.2,15.14,4.91a34.49,34.49,0,0,0,7.6.18l1-.09.45-.06a7.5,7.5,0,0,1,1.31,1.27l-.1,0a1.83,1.83,0,0,1,.13.16c.22.28.43.57.62.86,1.32,1.93,1.92,4.39,3,6.55A86.52,86.52,0,0,0,118,115C115.38,106.19,112.51,98.57,104.79,93.68Z" transform="translate(46 0.2)"/>
        <path class="cls-82" d="M92.84,214.8a30,30,0,0,1,.64-3.33c-.88-.72-1.86-1.38-2.87-2.11-.44-.31-.9-.66-1.35-1.05l-.12.36a19.85,19.85,0,0,1-.83,2.39,6.46,6.46,0,0,1-.83,1.33,6.77,6.77,0,0,1,.19,1.33,86.13,86.13,0,0,1-.12,9.64c-.06,1.26-.09,2.54-.13,3.81v.24c1.17-2.47,2.62-4.81,3.65-7.37A38.43,38.43,0,0,0,92.84,214.8Z" transform="translate(46 0.2)"/>
        <path class="cls-61" d="M98.62,62.82a17.48,17.48,0,0,0-5-1.51,33.13,33.13,0,0,0-7.77-.42c-.14,0-17.1.36-25.38,2a16.42,16.42,0,0,0-4.64,1.3c-2.51,1.39,3.22,3.24,4,3.38,4.93.92,9.94.56,14.91.21,7-.49,14.53,1.51,21.47.11C98.52,67.47,102.24,64.61,98.62,62.82ZM86.54,64.38c-4,4.12-16.83,1.86-17.34,1.34-.13-.13-.09-.77,0-.94.89-2.31,7-2.91,11-2.79,2.21-.36,5.75.75,6.4,1.77A.51.51,0,0,1,86.54,64.38Z" transform="translate(46 0.2)"/>
        <path class="cls-56" d="M97.1,60.06c-4.76-.6-8.31-.53-13.52-.72-3.49-.13-7.71-.17-11.22-.15-3.61.27-9.37.86-13,1.42-1.34.22-2.67.47-4,.78a15.48,15.48,0,0,0-5.75,2.26c-2.48,1.81-1.88,4.29.83,5.17a34.54,34.54,0,0,0,8.8,1.4c11,.66,21.15,1.18,32.17.55,4.1-.23,9.79-.22,13.29-2.74C110.29,64,101.12,60.57,97.1,60.06ZM101.42,66c-1.26,3.59-6.26,3.68-9.24,3.67-5.34,0-10.65-.91-16-.57-6.3.41-14.45,1.73-20.27-1.54-1.24-.7-3.52-2.39-1.61-3.79,4.62-3.37,31.35-3.87,31.43-3.87C92,60.07,103.27,60.68,101.42,66Z" transform="translate(46 0.2)"/>
        <path class="cls-56" d="M83.33,63.14a47.55,47.55,0,0,0-5.1-.3c-.66,0-1.33,0-2,.11A13.73,13.73,0,0,0,71,64c-2.29,1.27.11,1.28,1.41,1.43,3.13.37,6.55.77,9.66.11a8.21,8.21,0,0,0,2.53-.8C86.44,63.69,84.49,63.38,83.33,63.14Z" transform="translate(46 0.2)"/>
        <path class="cls-10" d="M107.44,66.32a3,3,0,0,1-.22.82h0A3,3,0,0,0,107.44,66.32Z" transform="translate(46 0.2)"/>
        <path class="cls-10" d="M47.38,73.35q.46-.07.93-.12H47.4S47.39,73.31,47.38,73.35Z" transform="translate(46 0.2)"/>
        <path class="cls-10" d="M47.29,68h0s0,.08.08.11S47.32,68,47.29,68Z" transform="translate(46 0.2)"/>
        <polygon class="cls-84" points="101.33 71.2 98.88 94.35 90.42 90.47 93.4 67.71 96.85 69.88 100.78 70.39 101.33 71.2"/>
        <path class="cls-49" d="M64.48,119.77c-2.49-.39,25.29-1,32.84-5.86,1.31-2.62,4.31-11.63-1.51-19.1-3.7-4.75-2.11-5.35,5-1.13s10.75,10.33,14.16,20.23A95.16,95.16,0,0,1,64.48,119.77Z" transform="translate(46 0.2)"/>
        <path class="cls-85" d="M43.86,114.18c1-2.17,6.83-18.47,18.81-22.14,10.49-3.22,14.92-1.72,18.24-1.38C70.66,92,65.38,93.62,61,96.59S50.64,105,43.86,114.18Z" transform="translate(46 0.2)"/>
        <path class="cls-61" d="M46.13,76.59l6.24-1.48,7.23-2.7.28,1.4-1,1.56-1.53,3.35.65.75,6.29-2,14.24-3.56.88.18s-1.62,1.65-1.56,1.67-1.16,2.87-1.16,2.87l.84.54L81.78,78,95,74.64l.19,2-.16,3,2.9-1.18,10.23-7.47,1.22,6.3-7.42,4-9.31,4.21H89.81l-.06-3.3.37-1.89-2.74,1L72.19,86.29a8.94,8.94,0,0,1-1.35-.73c0-.09.32-4.9.32-4.9l-2.71.4L50.75,88l0-2.37,1.22-4.54,0-1-2.28,1.21-4.09,1.5Z" transform="translate(46 0.2)"/>
        <path class="cls-85" d="M43.86,92.32l2.28,2.49S35.58,98.69,34.8,108.93a59.91,59.91,0,0,0,2.3,20.23c.15.44-6.85-9-5.89-21S43.86,92.32,43.86,92.32Z" transform="translate(46 0.2)"/>
        <g>
            <path class="cls-70" d="M84.62,211.58a.1.1,0,0,0-.08,0l0,0c-.09,0-.17.07-.26.07a.69.69,0,0,0-.42.22,1.07,1.07,0,0,0-.22.91c.12.61.62,1.34,1.34,1.2.39-.07.65-.48.81-.8A1,1,0,0,0,85.7,212,1.12,1.12,0,0,0,84.62,211.58Zm.75,1.63c-.09.17-.35.39-.56.35-.38-.06-.57-.56-.63-.88a.66.66,0,0,1,0-.46.24.24,0,0,1,.15-.11l0,0a1.14,1.14,0,0,1,.25,0,1.08,1.08,0,0,1,.64.31A.62.62,0,0,1,85.37,213.21Z" transform="translate(46 0.2)"/>
            <path class="cls-70" d="M88.75,218.43a1.22,1.22,0,0,0-.47,1.08,1.32,1.32,0,0,0,.23.63c0,.07.06.06.08.11a.76.76,0,0,0,.75.34,1.37,1.37,0,0,0,1.31-1.27A1.19,1.19,0,0,0,88.75,218.43Zm.59,1.6a.28.28,0,0,1-.26-.06,1.69,1.69,0,0,0-.21-.31,2.92,2.92,0,0,1,0-.36.77.77,0,0,1,.27-.32.57.57,0,0,1,.93.42C90.05,219.75,89.63,220,89.34,220Z" transform="translate(46 0.2)"/>
            <path class="cls-70" d="M51.2,133.15c4.23-1,6.87-5.05,11.42-5.21,2.47-.08,4.71,1.21,6.79,2.34,1.41.77,3.38,1.73,4.94.93a.17.17,0,0,0,0-.3c-.9-.48-1.91-.64-2.82-1.11-1.11-.57-2.14-1.24-3.22-1.85a11.72,11.72,0,0,0-6.18-1.52c-4.4.17-7.78,3.94-11.12,6.29A.24.24,0,0,0,51.2,133.15Z" transform="translate(46 0.2)"/>
            <path class="cls-70" d="M92.71,129.46c2-1.31,4.09-2.78,6.56-2.9,4.55-.23,7.53,3.59,11.83,4.22a.24.24,0,0,0,.15-.45c-3.53-2.06-7.23-5.53-11.63-5.32a11.72,11.72,0,0,0-6,2c-1,.7-2,1.46-3,2.12-.88.55-1.86.8-2.72,1.35a.17.17,0,0,0,0,.29C89.5,131.46,91.37,130.35,92.71,129.46Z" transform="translate(46 0.2)"/>
            <path class="cls-70" d="M97.26,167.88a5.29,5.29,0,0,1-1.06-.36,19.61,19.61,0,0,0-3.77-1,12.58,12.58,0,0,0-6.91,0c-2.39.68-4.88.22-7.24,1a22.83,22.83,0,0,0-6,3.57l-.82.59.34.27c1.7,1.39,3.41,3,5.17,4.27a9.44,9.44,0,0,0,7.32,2.08c3.24-.28,6.28-.83,8.59-3.26a30.05,30.05,0,0,0,2.79-3.93c.46-.69,1-1.34,1.44-2l.5-.66.31-.41-.53-.09Zm-4.05,5.41c-2.54,3.44-6.07,3.9-10.11,4.29-1.42.14-5.74-1.86-7.16-3.25-.81-.79-2.07-1.93-3-2.79,2,.37,4.13.47,6.17.86a19.11,19.11,0,0,0,6.61.46,33.57,33.57,0,0,0,7.41-2.19c.89-.36,1.83-.7,2.77-1.07C94.94,170.82,94.09,172.1,93.21,173.29Zm.7-3.78a34.39,34.39,0,0,1-7.12,2.5c-4.61,1-9.1-1.28-13.65-.8,1.43-.83,2.78-1.83,4.25-2.56,2.47-1.22,5.28-.48,7.9-1.06a21.63,21.63,0,0,1,3.39-.67,16.76,16.76,0,0,1,4.72.85,25.45,25.45,0,0,0,3,.53C95.54,168.68,94.71,169.13,93.91,169.51Z" transform="translate(46 0.2)"/>
            <path class="cls-70" d="M78.22,158.18a.22.22,0,0,0,.09-.35c-.31-.27-.71-.29-1-.55s-.34-.95-.3-1.4c.08-.9.42-1.78.54-2.68,0-.07-.11-.08-.13,0a10.61,10.61,0,0,0-1,3.43C76.4,157.47,77.28,158.55,78.22,158.18Z" transform="translate(46 0.2)"/>
            <path class="cls-70" d="M88.88,157.64a.25.25,0,0,0-.22-.37,3.36,3.36,0,0,0-1.51.34,5.08,5.08,0,0,1-2.39,0c-1.11-.21-2.17-.6-3.3-.75-.33,0-.46.48-.17.62C83.12,158.32,87.48,160,88.88,157.64Z" transform="translate(46 0.2)"/>
            <path class="cls-70" d="M90.7,157c1.25-.75.45-3.16-.56-3.77-.07,0-.19,0-.18.1a4.38,4.38,0,0,0,.68,1.41,2.08,2.08,0,0,1,.24,1.27c0,.32-.23.59-.28.91A.07.07,0,0,0,90.7,157Z" transform="translate(46 0.2)"/>
            <path class="cls-70" d="M88.51,152.49a.13.13,0,0,0,.15-.19A29.84,29.84,0,0,1,87,149.6a10.57,10.57,0,0,1-.84-3.1c-.14-2.17.38-4.33.25-6.49a.07.07,0,0,0-.14,0,13,13,0,0,0-1.07,7.18C85.49,149,86.58,151.76,88.51,152.49Z" transform="translate(46 0.2)"/>
            <path class="cls-70" d="M107.41,133.89a15.93,15.93,0,0,0-3-1c-.38-.08-.77-.15-1.16-.21-.58-.08-1.16-.14-1.75-.17l-.64,0h-.6a17.46,17.46,0,0,0-4.3.74l-.46.14q-.67.21-1.32.45l-.57.21-.55.21a18,18,0,0,0-3.14,1.56c-.23.15-.44.3-.65.46a3,3,0,0,1,1.12.37c1.62.9,2.56,3.18,4,4.22,2,1.37,5.34.71,7.52.62,1.93-.09,3.69,0,5-1.55a46.35,46.35,0,0,0,2.87-3.92c.18-.26.36-.52.55-.77l-.51-.22C109,134.68,108.23,134.25,107.41,133.89Zm-6.54-.44a2.84,2.84,0,0,1,.25.64,2.48,2.48,0,0,1-1.61,3,2.54,2.54,0,0,1-3.5-1.36,3.8,3.8,0,0,1-.19-1.54A17.69,17.69,0,0,1,100.87,133.45Zm-6,1.09.31-.1a4,4,0,0,0,.31,2.06c.79,1.64,2.56,1.93,4.2,1.44a3.41,3.41,0,0,0,2.11-4.47h.09a11.46,11.46,0,0,1,1.56.19c.68,3-1.14,6.15-4.73,6.05a5.79,5.79,0,0,1-3.92-1.83,4.7,4.7,0,0,1-1.24-2.79C94.05,134.89,94.48,134.7,94.92,134.54ZM107,138.62a4.33,4.33,0,0,1-2.18,1.87c-1.47.47-3.32.26-4.85.33a14.89,14.89,0,0,1-4.32-.27c-1.19-.3-1.89-1.43-2.59-2.32a7.81,7.81,0,0,0-1.94-1.91c.65-.3,1.29-.63,1.93-.95a6.32,6.32,0,0,0,5.73,5.29c4.11.48,6.25-3.29,5.79-6.76a29,29,0,0,1,4.62,1.82l.06,0C108.46,136.65,107.72,137.6,107,138.62Z" transform="translate(46 0.2)"/>
            <path class="cls-70" d="M71.26,135.69l-.55-.21-.56-.21-1.32-.45-.46-.14a17.46,17.46,0,0,0-4.3-.74h-.61l-.64,0a17,17,0,0,0-1.74.16q-.59.09-1.17.21a16.33,16.33,0,0,0-3,1c-.82.37-1.63.79-2.45,1.16l-.51.21.55.77a44.25,44.25,0,0,0,2.87,3.92c1.35,1.54,3.11,1.46,5.05,1.54,2.18.1,5.57.76,7.52-.61,1.47-1,2.42-3.31,4-4.22a3,3,0,0,1,1.12-.37c-.2-.15-.42-.31-.64-.45A17.46,17.46,0,0,0,71.26,135.69Zm-8.11-.18a3.6,3.6,0,0,1,.25-.63,17.35,17.35,0,0,1,5.06.78,3.81,3.81,0,0,1-.2,1.54,2.53,2.53,0,0,1-3.5,1.36A2.48,2.48,0,0,1,63.15,135.51Zm-2.38-.43a13.46,13.46,0,0,1,1.57-.19h.09c-.53,1.79,0,3.87,2.11,4.47,1.64.49,3.41.2,4.2-1.44a4,4,0,0,0,.31-2.06l.31.1c.43.16.87.36,1.3.56a4.6,4.6,0,0,1-1.23,2.78,5.82,5.82,0,0,1-3.93,1.84C61.92,141.24,60.1,138.1,60.77,135.08Zm10.46,4.57c-.7.9-1.4,2-2.59,2.33a15.27,15.27,0,0,1-4.32.26c-1.53-.07-3.39.14-4.85-.33A4.25,4.25,0,0,1,57.29,140c-.73-1-1.47-2-2.25-2.86l.05,0a27.53,27.53,0,0,1,4.62-1.82c-.46,3.46,1.69,7.23,5.79,6.76a6.35,6.35,0,0,0,5.74-5.3c.64.32,1.28.65,1.92,1A8.13,8.13,0,0,0,71.23,139.65Z" transform="translate(46 0.2)"/>
            <path class="cls-70" d="M55.68,229.87a20.13,20.13,0,0,1,1.79-7.18c.79-2,1.56-4,1.23-6.16-.05-.31-.48-.19-.51.06-.3,3.07-1.68,5.64-2.73,8.49a18.52,18.52,0,0,0-.94,7.46,12.34,12.34,0,0,0,3.7,7.65h2.31A11.93,11.93,0,0,1,55.68,229.87Z" transform="translate(46 0.2)"/>
            <path class="cls-70" d="M111.67,233a54.57,54.57,0,0,0-6,0c-1.72,0-3.69-.23-5.35.27a.1.1,0,0,0,0,.18c1.66.5,3.63.26,5.36.27a52,52,0,0,0,6,0A.34.34,0,0,0,111.67,233Z" transform="translate(46 0.2)"/>
            <path class="cls-70" d="M101.87,231.25c1.22.11,2.49,0,3.66.08a42.91,42.91,0,0,0,4.53-.09l1.49-.13,1-.1a.2.2,0,0,0,0-.39c-.61-.07-1.21-.13-1.83-.17-1-.86-1.75-1.94-2.66-2.89-.63-.65-1.62-1.54-2.62-1.36s-1.76,1.25-2.43,2.08a19.18,19.18,0,0,0-1.62,2.13,8.43,8.43,0,0,0-1.48.36,0,0,0,0,0,0,.09,6.68,6.68,0,0,0,1.09.27C101.26,231.18,101.56,231.23,101.87,231.25ZM105.5,227c1.12-.15,2.34,1.77,2.93,2.49l.76.89c-1,0-2-.06-3-.08-1.15,0-2.48-.08-3.76,0C103.28,228.87,104.09,227.18,105.5,227Z" transform="translate(46 0.2)"/>
            <path class="cls-70" d="M115,215.32a.23.23,0,0,0-.46,0c-.19,1.76.63,3.33,1.46,4.84a15.73,15.73,0,0,1,2.28,7.13,14.69,14.69,0,0,1-.33,4c0,.24-.11.49-.17.72a17.43,17.43,0,0,1-1.35,3.44,10.53,10.53,0,0,1-2.08,2.79c-.78.76-1.82,1.18-2.6,1.91h2.77a12.91,12.91,0,0,0,2.64-2.94,14.43,14.43,0,0,0,1.92-4.43,30.31,30.31,0,0,0,.53-3.16,14.13,14.13,0,0,0-1.19-7.4C117.27,220,115,218,115,215.32Z" transform="translate(46 0.2)"/>
            <path class="cls-70" d="M44.42,148.6c1,1.35.65,2.93.5,4.44-.25,2.5,3.3,4.23,5.36,4.59a.12.12,0,0,0,.14-.18c-.93-1.55-3-1.71-4.13-3.15-.71-.94,0-2.76-.11-3.86A5.57,5.57,0,0,0,44,146.61c-.7-.59-2.24-1.53-3.13-.93a.21.21,0,0,0,0,.33c.38.44.87.45,1.4.7A5.76,5.76,0,0,1,44.42,148.6Z" transform="translate(46 0.2)"/>
            <path class="cls-70" d="M97.75,217.88c-.32,0-.41.48-.08.56,1,.27,1.81,1.13,2.73,1.63A.48.48,0,0,0,101,220a.37.37,0,0,0,.13-.2.48.48,0,0,0-.22-.53C100,218.67,98.88,217.79,97.75,217.88Z" transform="translate(46 0.2)"/>
            <path class="cls-70" d="M72.9,220a3.55,3.55,0,0,0-1.45,1c-.37.36-1,.85-1,1.4a.21.21,0,0,0,.21.21c.48,0,.83-.46,1.17-.76a11.55,11.55,0,0,1,1.42-1A.5.5,0,0,0,72.9,220Z" transform="translate(46 0.2)"/>
            <path class="cls-70" d="M121.24,149a3.65,3.65,0,0,0-.49-2.45c-1.07-2.24.27-3.63,1.91-5,.66-.56-.29-1.5-.94-.94-1.58,1.36-3.1,2.83-2.69,5,.32,1.72,2.11,2.8.34,4.59-.64.64-1.54.82-1.82,1.72a.05.05,0,0,0,0,.06C119.19,152.21,120.84,150.46,121.24,149Z" transform="translate(46 0.2)"/>
            <path class="cls-70" d="M143.72,195.79c-.23-.35-.47-.68-.73-1a41,41,0,0,0-3.34-3.53,77.53,77.53,0,0,1-9.26-10.73c-4.84-7-10.38-14.72-9.53-23.31a1.56,1.56,0,0,0,.71-.22,2.1,2.1,0,0,0,1.34-.68c.08-.1,4.33-10.61,4.55-11.51.75-3,.67-5.32-1.87-7.13a6.28,6.28,0,0,0-1.72-.85,56,56,0,0,1,2.39-5.31c2-3.91,2.81-8,3.78-12.31,1.57-7,1-14.53-3-20.65-3.93-6-7.34-9.24-12.73-10.55h0q-.65-.15-1.29-.27c0-.19-.09-.37-.13-.56h0q-.69-2.84-1.46-5.64c-.08-.32-.16-.62-.25-.94-.3-1.13-.61-2.25-.91-3.39-.14-.51-.27-1-.41-1.53-.22-.81-.42-1.63-.63-2.45-.62-2.42-1.22-4.85-1.72-7.33h0c0-2.07-1.77-4.09-3.87-5.12-5.21-2.58-12-2.32-17.71-2.35-2.13,0-4.23,0-6.32,0,0,0-18.69,0-27.63,3-3.05,1-5.79,3.4-5.19,5.59a2.7,2.7,0,0,0,.53,1,1,1,0,0,0,.08.11,1,1,0,0,1-.08-.11,2.63,2.63,0,0,1-.53-1,30.62,30.62,0,0,0-.66,6.26c0,.14,0,.29,0,.43,0,.5,0,1-.09,1.45,0,.14,0,.28,0,.42-.33,2.85-.71,5.68-1.14,8.52-.07.52-.14,1-.23,1.56-.18,1.18-.37,2.34-.55,3.52h0a0,0,0,0,0,0,0l-1,.45c-3.69,1.77-8.07,4.6-11,9-4,6.11-4.6,13.64-3,20.64,1,4.34,3.14,8.41,5.14,12.32a59.14,59.14,0,0,1,4.52,11.87l-.05.05A8.35,8.35,0,0,0,38,152a20.64,20.64,0,0,0,2.83,4.1,52.54,52.54,0,0,1-.75,24c-2.06,8-5.87,14.15-11.81,18.79l-.83.63c.43.28.87.54,1.32.79A54.16,54.16,0,0,0,41.24,205l2.81.76a14.42,14.42,0,0,0-3.31,5.9,17.51,17.51,0,0,0-.32,6,8.13,8.13,0,0,1-.07,3.07c-.29,1.06-1.26,1.9-1.8,2.85-1.17,2,.06,3.17,1.43,4.26a29,29,0,0,0-.92,6.38c0,1.68.1,3.36,0,5,0,.27-.05.56-.07.85h1.3c0-.28,0-.57,0-.85.11-1.69.05-3.36,0-5a24.32,24.32,0,0,1,.61-5.38c0-.07,0-.14.05-.21a3.88,3.88,0,0,1,1.4,1.95c.07.32.49.25.59,0,.63-1.65-.64-2.51-1.81-3.39a10,10,0,0,1-.84-.7,2,2,0,0,1-.22-3c1-1.48,1.76-2.6,1.72-4.45,0-2.13-.42-4.13-.07-6.27a12.72,12.72,0,0,1,3.7-6.75,22.37,22.37,0,0,1,1.75-1.62l.74-.62A22.82,22.82,0,0,1,54,200.4a20,20,0,0,0,4.46-2.15,17.86,17.86,0,0,0,1,3.65c1,3.12-.27,6.37.26,9.57.48,2.94,3.2,3.53,5.73,3.74a6.68,6.68,0,0,1,2.65.66c.87.46.57,1.49.36,2.21a31.44,31.44,0,0,0-1.34,4c-.38,2.6,2.65,3.56,4.44,4.62a20.73,20.73,0,0,1,7.42,8,30.6,30.6,0,0,0,2.47,4.4c.28.36.56.71.82,1.06h1.87a28.66,28.66,0,0,1-2.72-3.66,29.8,29.8,0,0,0-5.91-8.45,20.27,20.27,0,0,0-3.76-2.75c-1.32-.78-3.62-1.37-3.35-3.28.3-2.09,2.48-4.49,1.07-6.58s-5.21-1-7.25-2.13c-3.17-1.69-.8-7.43-1.34-10.14-.29-1.45-.89-2.83-1.29-4.25a3.36,3.36,0,0,1-.09-1.61c0-.05,0-.11.05-.16a5,5,0,0,1,2.29-2.41,15.13,15.13,0,0,0,3.29-3.05,4.81,4.81,0,0,0,.07.64c.47,3,2.52,5.22,3.89,7.82,1.59,3,2.56,6.26,4.29,9.25.8,1.37,1.58,2.75,2.31,4.16a9.87,9.87,0,0,1,.49,1.11c.14.33.26.67.37,1,.28-.4.57-.79.87-1.18s.66-.85,1-1.26.56-.61.84-.91c.33,1,.55,2.09.83,3a48.53,48.53,0,0,0,2.89,7.2c1.15,2.25,2.24,4.53,3.24,6.85l.36.84c0,.12,0,.25,0,.37l.11-.14c.18.42.35.84.52,1.26.46,1.16.9,2.32,1.3,3.49.27.78.53,1.57.77,2.36l.4,1.36c.13.42.25.85.38,1.27h1.39c-.25-.75-.51-1.51-.77-2.26,1.57-1.61,3-3.35,4.42-5.08,2.57-3.22,4.92-6.53,7.63-9.65,1.42-1.64,3.38-3.78,1.64-5.83-1-1.17-2.23-1.91-2.44-3.58-.16-1.3,2.13-2,3-2.67a5.22,5.22,0,0,0,.91-.91,5.43,5.43,0,0,0,.84-1.57c.6-1.78.44-3.83.93-5.78.61-2.41,1.81-4.59,1.09-6.8,5.13,3.78,12.1,3.65,16.8,7.44a10.73,10.73,0,0,1,1.21,1.13,13.15,13.15,0,0,1,3,5.43c1.35,4.57.64,11.88,1.44,16.66.6,3.61-.21,4.27-.6,7.62a20.78,20.78,0,0,0,.55,5.86h.79c.43-2.58-.69-4-.12-6.85.53-2.6,1.09-4.77.63-7.44a32,32,0,0,1-.56-9.76,17.89,17.89,0,0,0-1-7.8,11.13,11.13,0,0,0-2.5-4.3,56.81,56.81,0,0,0,14.51-7.5C143.1,196.31,143.4,196,143.72,195.79ZM113.92,88.31c-.22.19-.43.38-.66.56,0,.19.1.37.14.57v0c0-.19-.09-.38-.14-.57C113.49,88.69,113.7,88.5,113.92,88.31ZM112.5,89.4l.9.12h0c6.25.93,10.16,4.29,13.7,12.2,4,8.83,2.66,17.68-1.4,26.12-1.55,3.22-2.44,5.93-3.82,8.7a2.9,2.9,0,0,0-1.28.38c-1.64-5.95-3.07-9.21-4.52-10a28.6,28.6,0,0,1-6.32-4.86,11.07,11.07,0,0,1-1.55-1.42,88.5,88.5,0,0,0,10.51-4.26l0,.06a6.63,6.63,0,0,1,1.31-.64,8.57,8.57,0,0,0-.46-1.57l-.08,0c-2.43-7.83-5.6-15.84-13-21.33a37.29,37.29,0,0,0,6-3.5ZM49.64,63.65a15.48,15.48,0,0,1,5.75-2.26c1.32-.31,2.65-.56,4-.78,3.61-.56,9.37-1.15,13-1.42,3.51,0,7.73,0,11.22.15,5.21.19,8.76.12,13.52.72,4,.51,13.19,4,7.63,8-3.5,2.52-9.19,2.51-13.29,2.74-11,.63-21.17.11-32.17-.55a34.54,34.54,0,0,1-8.8-1.4C47.76,67.94,47.16,65.46,49.64,63.65ZM44.05,89.14l.44-.16c.32-.13.65-.26,1-.37.12-.81.23-1.62.34-2.44A12.94,12.94,0,0,0,46,84.8c0-.08,0-.23,0-.23.32-2.54.62-5.08.88-7.62.07-.69.31-2.22.32-2.22,0-.4.11-.79.15-1.19a1,1,0,0,0,0-.19s0-.08,0-.12a28,28,0,0,0,.32-4.79h0a7,7,0,0,0,1.63,1,23.77,23.77,0,0,0,8.46,1.75c5.92.39,10.79.74,16.73.87,5.63.12,11.27.33,16.9.06,4.41-.21,11-.25,14.52-3.31a4.86,4.86,0,0,0,.87-1,3.38,3.38,0,0,0,.39-.72,3.6,3.6,0,0,0,.23-.82,3.46,3.46,0,0,1-.23.82,4.17,4.17,0,0,1-.38.72c.21,1.76.5,3.57.84,5.37.17.92.33,1.83.53,2.74a12,12,0,0,1,.32,1.46h0c.26,1.11.55,2.23.85,3.32,0,0,.33,1.18.35,1.18.57,1.94,1.23,3.82,2,5.61l.52.07h.07l.18-.14-.18.14-.59-.08c0,.13.11.25.16.38q-.93.69-1.89,1.32A37.87,37.87,0,0,1,105.15,92l-.38-.26A25.45,25.45,0,0,0,101.44,90c-.94-.41-1.93-.77-3-1.1-.52.14-1,.32-1.58.48h0l.89-.27.68-.21c-.31-.11-.63-.19-1-.28H97.4A8.49,8.49,0,0,1,96,88.15s-.07,0-.1,0l-1.35-.32h0c-.36,0-1-.22-1.78-.4h0c-1.57-.3-5.25-.72-6.86-.9,0,0-.78-.1-.76-.09-2.94-.22-5.83-.28-8.56-.23a.44.44,0,0,1-.23,0h0c-.49,0-1,0-1.46,0,.08,0-2.66.23-3.88.38s-3.44.44-3.4.46a54.58,54.58,0,0,0-5.4,1.66c.49.13,1,.29,1.48.44s1,.27,1.49.43a38.53,38.53,0,0,1,7.75-1.68,68.3,68.3,0,0,1,22.65,1.87c.9.25,1.77.52,2.63.8a33.53,33.53,0,0,1,5.15,2.21c.19.11.39.2.57.31s.64.39,1,.58c7.72,4.89,10.59,12.51,13.22,21.32a86.47,86.47,0,0,1-10.54,4.29l-1.45.47h0c-.92.29-1.87.57-2.8.83a103.52,103.52,0,0,1-22.38,3.6,87.34,87.34,0,0,1-27-3.2l-3.15-.86h0l-.69.14c.23,0,.46-.09.69-.15-1.1-.31-2.19-.64-3.29-1q-2.9-.89-5.8-1.85a28.89,28.89,0,0,0,.33-3.17,28,28,0,0,1,4.36-12.59c1.62-2.61,4.8-4.69,7.25-6.51.42-.31.85-.61,1.29-.89a34.24,34.24,0,0,1,7.48-3.68c.92-.33,1.87-.62,2.83-.88-1-.32-2-.61-3-.86l-.13,0a8.47,8.47,0,0,1-1.16.43h0c-.58.23-1.14.46-1.7.71l-.29.14a5.46,5.46,0,0,1-1.06.49h0a35.32,35.32,0,0,0-4.92,3,38.83,38.83,0,0,1-7.28-3.38L45.29,90c.06-.45.11-.9.18-1.35-.48.16-.95.34-1.42.53h0A0,0,0,0,0,44.05,89.14ZM33.9,127.84C29.84,119.4,28,110.55,32,101.71a20.74,20.74,0,0,1,12-11l.16,0,.43.32a28.45,28.45,0,0,0,7.13,3.49,32.38,32.38,0,0,0-3,2.72c-3,3.09-5.94,6.74-7.26,10.58-1,3-.61,6.19-1.11,9.18h0c0,.3,0,.6-.05.9a4.22,4.22,0,0,0,.89.41.51.51,0,0,1,.16.09.14.14,0,0,1,0-.06c1.18.52,2.39,1,3.59,1.46l0,0H45a.32.32,0,0,1,.09,0l.07,0c.28.1.54.48.31.77l0,0a.52.52,0,0,1-.11.27,2.85,2.85,0,0,1-.44.41l-.07.07a14.81,14.81,0,0,0-3.5,5.91c-.74,2.91,0,6.14.5,9,.27,1.65.52,3.31.67,5a5.64,5.64,0,0,0-1,.25.52.52,0,0,1-.18.1c-.22.09-.44.16-.67.24C39.35,136.9,36.4,133,33.9,127.84Zm6.45,26c-.28-.37-.57-.73-.82-1.11a7.89,7.89,0,0,1-.35-8.17,4.45,4.45,0,0,1,2.6-2.31,2.88,2.88,0,0,1,.75-.16,6.13,6.13,0,0,1,1,0c0-.31-.07-.63-.09-.94,0-.15,0-.3,0-.46a24.85,24.85,0,0,0-.23-3.75c-.43-2.83-1.07-5.64-.86-8.53s2-5.43,4-7.57c.42-.08.85-.14,1.28-.2h0c1.19.4,2.38.78,3.59,1.14a97,97,0,0,0,52.69.12c.91-.26,1.82-.53,2.72-.82h0c1.22,2.21,3.38,3.15,5.7,4.53,3,1.77,4.7,3.68,6,9.26a24.78,24.78,0,0,0,1.33,4.26l1.31-.65.07,0h0a3.69,3.69,0,0,1,2.37-.35c1.75.32,2.88,2.06,3.08,4,.23,2.38-1,5.49-1.9,7.59-.73,1.68-1.52,5.3-3.35,6-1,.41-3-1.36-4.17-1.42h0a.1.1,0,0,0-.07.12,3.07,3.07,0,0,0-.31.77c-.89,2.45-1.66,3.46-2.72,5.93-3.46,8-8,16-14.3,22.18-.23.24-.48.46-.72.69-.49.47-1,.94-1.52,1.39l-.49.44-.48.39c-3.61,2.93-8,5-12.71,4.94-4.54-.08-9-2.61-12.7-5.19-.31-.21-.62-.42-.92-.64l-.25-.18-.73-.55-.46-.34a63.75,63.75,0,0,1-9.73-9.56c-3.12-3.73-5.4-8-8-12.1l-.62-1c-.26.17-.52.34-.79.5a4.29,4.29,0,0,1-.65.31,4.83,4.83,0,0,0,.2-1.47,4,4,0,0,0-.25-1.33,2.9,2.9,0,0,0-1.28-1.58,2.78,2.78,0,0,0-2.94.6l-.14.13c-.43-.52-.87-1-1.31-1.55C42.23,156.16,41.24,155.06,40.35,153.89Zm40.76,49.74a45.14,45.14,0,0,1-6.77-4.74,43.54,43.54,0,0,1-4.67-4.33,12.92,12.92,0,0,1-1-1.36c.35-1.07.65-2.17,1-3.22.26-.81.59-1.66.88-2.51,5.79,4,12.57,6.61,19.59,4.16a25.58,25.58,0,0,0,6.93-3.83c.53,1,1.16,1.86,1.72,2.8a18.79,18.79,0,0,1-3.94,6.2,24.59,24.59,0,0,1-4.7,3.53c-1.13.73-2.52,1.71-3,3a4,4,0,0,0,1.25,4.16c-.31.79-.51,1.63-.71,2.29a6.6,6.6,0,0,1-.63,1.43,5.48,5.48,0,0,0-1.47-2A17.3,17.3,0,0,0,84,207.55C84.74,205.74,82.68,204.53,81.11,203.63Zm8.67-1.76c1.39-1.24,3.13-2,4.54-3.23A20.08,20.08,0,0,0,99,192.82c.16-.32.34-.67.51-1s.33-.71.48-1.09a13.57,13.57,0,0,0,.68-2,28.25,28.25,0,0,1-.38,5.8c-.44,2.39-1.37,4.69-1.88,7.07a51,51,0,0,1-1.66,6.66,32.51,32.51,0,0,1-1.38,3.26,20,20,0,0,0-2-1.68c-1.18-.9-2.41-1.73-3.5-2.73-.16-.15-.33-.31-.49-.48l-.25-.27C87.78,204.76,88.26,203.24,89.78,201.87ZM48,162.59q-.08.18-.15.33a1.94,1.94,0,0,1-.63.67A2.27,2.27,0,0,1,44,162.35a4,4,0,0,1,.28-2,2.86,2.86,0,0,1,.68-.92l.36-.27A1.93,1.93,0,0,1,47.4,159C48.5,159.69,48.48,161.48,48,162.59Zm-4.21-2.92a3.11,3.11,0,0,0-.2.41c0-.26-.06-.52-.1-.77Zm19.33,33c-1,1.08-2.5,1.72-3.63,2.71a2.78,2.78,0,0,0-.93,1.46c-1.86,1.52-4.2,2.1-6.4,3a13.43,13.43,0,0,0-1.27.6v0l-.49.3a6.59,6.59,0,0,1-.77.47c-.9.58-1.76,1.22-2.62,1.87-.51.4-1,.82-1.47,1.25-1.32-.2-2.63-.43-3.92-.74a95.83,95.83,0,0,1-11.76-4c5.5-4.31,9.07-11.44,11.11-17.78a58.69,58.69,0,0,0,2.81-18.13,3,3,0,0,0,4.38.19,9,9,0,0,0,1.68-.42l.2-.11c3.48,7.79,9.37,14.88,15.7,20.41.63.55,1.28,1.09,1.94,1.63a6.41,6.41,0,0,0-.64,1.11,12.29,12.29,0,0,0-1.76,3.72A29.73,29.73,0,0,1,63.14,192.66ZM79,211.36c-.46.53-.93,1.08-1.43,1.68-.15.18-.3.37-.44.56-.34-.74-.71-1.43-1-2a87.35,87.35,0,0,1-4.29-8.4,56.75,56.75,0,0,0-4.27-8.09,7.76,7.76,0,0,1-1-5.13c0,.18,0,.35.07.52a8.54,8.54,0,0,0,1.12,3,10.19,10.19,0,0,0,.6.91,35.38,35.38,0,0,0,5.33,5.27A56.57,56.57,0,0,0,79,204c1.33.93,4.63,1.95,2.85,4.06-.79.93-1.51,1.75-2.25,2.58C79.36,210.9,79.15,211.13,79,211.36Zm7.93,13.36c-.08,1-.12,2.07-.16,3.12l-.24-.54c-1-2.21-2.35-4.34-3.23-6.61-1-2.56-1.45-5.29-2.56-7.81-.18-.41-.38-.85-.61-1.29,1-1,2-1.88,3-2.86a4.75,4.75,0,0,0,.58-.67,11.88,11.88,0,0,0,1.48,1.61A6,6,0,0,1,86.65,212,7.73,7.73,0,0,1,87,213a17.53,17.53,0,0,1,.29,2.85A81.68,81.68,0,0,1,86.88,224.72Zm.54,2.45c0-1.27.07-2.55.13-3.81a86.13,86.13,0,0,0,.12-9.64,6.87,6.87,0,0,0-.19-1.34,6.39,6.39,0,0,0,.83-1.32,20.48,20.48,0,0,0,.83-2.39c0-.12.08-.25.12-.36.45.39.91.74,1.35,1.05,1,.73,2,1.39,2.87,2.11a30,30,0,0,0-.64,3.33A38.9,38.9,0,0,1,91.07,220c-1,2.56-2.48,4.9-3.65,7.37Zm19.81-25.53a16.64,16.64,0,0,0-.77,4.12,7.6,7.6,0,0,1-.83,3.19,4.67,4.67,0,0,1-1.31,1.44,2.92,2.92,0,0,1-.28.21,18.53,18.53,0,0,0-2.38,1.53c-1.36,1.22-.46,3.31.45,4.49.58.74,1.81,1.39,1.93,2.38.2,1.62-2.31,3.68-3.31,4.79-2.49,2.77-4.47,5.86-6.8,8.75-1.16,1.44-2.4,2.78-3.67,4.08-.38-1-.75-2.07-1.14-3.1-.52-1.37-1.09-2.73-1.68-4.08l0,0a54.8,54.8,0,0,0,4.64-9.09,42.53,42.53,0,0,0,1.78-5.24,13.58,13.58,0,0,0,.56-2.77l.34.33a9.53,9.53,0,0,1,.75.93q.32-.6.6-1.23c.58-1.26,1.11-2.55,1.6-3.84a50.49,50.49,0,0,0,1.79-7.25c.58-2.62,1.59-5.11,1.91-7.79a26.47,26.47,0,0,0,0-5.34,6.31,6.31,0,0,0-.63-2.89c0-.11-.07-.22-.1-.32,1.9.52,2.89,4,3.45,5.51a10.43,10.43,0,0,0,1.25,2.58c.78,1.09,1.83,1.92,2.51,3.09C108.79,197.69,107.75,200,107.23,201.64Zm19.82,1.28c-5.25-4.18-13.89-4.13-19.12-8.39h0a7.43,7.43,0,0,0-.55-.58,10.46,10.46,0,0,1-2.07-2.89c-.42-1.05-.77-2.12-1.23-3.15-.61-1.37-1.52-3.23-3.07-3.6a51.44,51.44,0,0,0,3.87-4.47.2.2,0,0,1,0-.08l.12-.14c.21-.28.43-.56.64-.85a3.41,3.41,0,0,1,.55-.81l.06,0c1.19-1.66,2.28-3.34,3.29-5V173c.17-.38.44-.68.65-1.06l.23-.41c.16-.27.32-.54.48-.79a.05.05,0,0,1,0,0h0a61.61,61.61,0,0,0,5-9.83.17.17,0,0,0,0,.07,1.91,1.91,0,0,1,.1-.34h0c.05-.16.12-.32.18-.47l.15-.31h0a.52.52,0,0,1,.08-.23l0-.1v0c.43-1.13.83-2.27,1.22-3.42a14.67,14.67,0,0,1,1.32.94l.32.1c-1.18,7.57,3.53,14,7.29,20.45a71.44,71.44,0,0,0,15,18.14A85.8,85.8,0,0,1,127.05,202.92Z" transform="translate(46 0.2)"/>
            <path class="cls-70" d="M106.64,121.1a11.31,11.31,0,0,1-.61-1.31A11.31,11.31,0,0,0,106.64,121.1Z" transform="translate(46 0.2)"/>
            <path class="cls-70" d="M48.81,120.5l-1,.15-.15,0Z" transform="translate(46 0.2)"/>
            <path class="cls-70" d="M55.94,67.53c5.81,3.27,14,2,20.26,1.54,5.33-.35,10.64.57,16,.57,3,0,8-.08,9.24-3.67,1.85-5.29-9.4-5.9-15.67-6.1-.08,0-26.81.5-31.43,3.87C52.41,65.14,54.69,66.83,55.94,67.53Zm-.06-3.3a16.36,16.36,0,0,1,4.63-1.3c8.28-1.68,25.24-2,25.38-2a33.13,33.13,0,0,1,7.77.42,17.81,17.81,0,0,1,5,1.51c3.62,1.79-.1,4.65-2.37,5.11-6.94,1.39-14.42-.6-21.47-.11-5,.35-10,.71-14.91-.21C59.1,67.46,53.36,65.62,55.88,64.23Z" transform="translate(46 0.2)"/>
            <path class="cls-70" d="M86.54,64.38a.51.51,0,0,0,0-.62c-.65-1-4.19-2.13-6.4-1.77-4-.12-10.08.48-11,2.79-.06.17-.1.81,0,.94C69.71,66.23,82.58,68.5,86.54,64.38ZM71,64A13.73,13.73,0,0,1,76.24,63c.66-.06,1.33-.09,2-.11a47.55,47.55,0,0,1,5.1.3c1.16.24,3.11.55,1.3,1.64a8.21,8.21,0,0,1-2.53.8c-3.11.66-6.53.26-9.66-.11C71.14,65.32,68.74,65.31,71,64Z" transform="translate(46 0.2)"/>
        </g>
        <g>
            <polygon class="cls-61" points="169.57 157.3 169.27 158.78 167.82 159.7 165.26 159.15 163.98 156.77 164.79 154.73 166.77 154.03 168.8 155.08 169.57 157.3"/>
            <path class="cls-75" d="M119,157.71a1.57,1.57,0,0,0,2.77,0c.67-1.28,1.15-3.34,0-3.5a2.54,2.54,0,0,1,1.67,1.55v1.58l-.32,1.63-1.58.89-1.92-.89-1.24-.62Z" transform="translate(46 0.2)"/>
            <path class="cls-70" d="M121,153.25a3.06,3.06,0,0,0-3.42,2.46,3.75,3.75,0,0,0,2.34,4l.06,0a4,4,0,0,0,2.87-.13C125.74,158,123.74,153.7,121,153.25Zm2.18,4.69c-.24.91-1.29,1-2.1,1.06a16.94,16.94,0,0,1-1.54-.8,2.53,2.53,0,0,1-.78-2.49,2.3,2.3,0,0,1,2-1.39,3.36,3.36,0,0,1,2,1.27A3.61,3.61,0,0,1,123.15,157.94Z" transform="translate(46 0.2)"/>
        </g>
        <path class="cls-70" d="M107.89,70.46c-2.24,1.73-4.48,3.42-6.85,5.07-1.62,1.12-2,.9-3.6,2-2,1.4-1.23-2.75-1.16-3,.14-.4.31-1.43-.06-1.56-.59-.21-8.63,2.56-12.42,3.62-2.06.57-4.06,1.35-6.12,1.93a2.74,2.74,0,0,1,1.58-3.22,16.93,16.93,0,0,1,1.95-1.64c.51-.4,0-1.1-.57-1a178.42,178.42,0,0,0-17.3,4.6c-.08,0-6.22,2.62-5.23.52.89-1.89,2.07-3.53,2.8-5.51a.47.47,0,0,0-.57-.57c-3.93,1.12-7.59,2.92-11.57,3.87-.89.2-1.77.39-2.63.62,0,.29,0,.57,0,.84a80,80,0,0,0,8.24-2.2c1.43-.54,6.22-3.56,4.41-.24a28.08,28.08,0,0,0-2.64,5.5.53.53,0,0,0,.64.64c3.36-.61,6.69-2.28,10-3.3,3.93-1.22,7.91-2.2,11.91-3.11a9.68,9.68,0,0,0-2.91,4.92.58.58,0,0,0,.71.71c4.8-1,9.39-2.91,14.2-3.92.61-.13,3.88-1.47,4-1.09.21.62-.44,2.94,0,4.67.11.46.47.81.84.64,5.63-2.58,8.74-5.26,12.67-8.54C108.09,71.33,108,70.89,107.89,70.46Z" transform="translate(46 0.2)"/>
        <path class="cls-70" d="M109.4,76.59c-2.57,1.36-5.12,2.74-7.71,4.06-1.91,1-3.93,1.75-5.9,2.62a20.52,20.52,0,0,1-3.16,1.37c-2.46.84-2-3.45-1.94-4a.69.69,0,0,0-.83-.83c-4.18,1.18-8.19,2.89-12.41,4-1.72.46-3.36,1.19-5.06,1.7-2,.61-.47-4.18-.42-5.32a.59.59,0,0,0-.75-.57c-3.71.78-7.22,2.48-10.67,4-2.8,1.22-5.61,2.41-8.49,3.42-1.41.5.87-6.66,1.07-7.36a.62.62,0,0,0-.9-.68c-2.29,1.15-4.62,2.23-6.93,3.35,0,.45.07.9.1,1.35,2-1.08,4.11-2,6.18-3A51.77,51.77,0,0,0,49.88,88c-.05.41.26.9.74.73,3.57-1.22,7-2.6,10.5-4.1,2.61-1.13,5.23-2.19,7.9-3.17,2.9-1.07.85,3.26.52,4.7a.61.61,0,0,0,.59.77c2.71.09,5.11-1,7.67-1.81,3.82-1.13,7.6-2.54,11.4-3.67-.28,1.51.26,2.79.14,4.34a.7.7,0,0,0,.69.69c7.21-.71,13.28-4.76,19.78-8.43A4.82,4.82,0,0,1,109.4,76.59Z" transform="translate(46 0.2)"/>
    </g>
</svg>