<svg xmlns="http://www.w3.org/2000/svg" viewBox="0 0 320 240">
    <defs>
        <clipPath id="test">
            <path transform="scale(2.2)" d="M124.52,78.63c11-11.86,18-30.06,16.87-41.81C137.9-.31,110.6,25.61,86.18,10.92,72.79,1.72,64.41-1.4,52.31.8,40.7,2.91,30.72,6.24,18.92,15.1,2.74,27.63-2,43.23.92,55.19c5.55,22.93,12.5,35.14,27.84,41.59,17.47,6.87,33.75-1.37,45.36-3.49C86.22,91.07,105.67,99.1,124.52,78.63Z"/>
        </clipPath>

        <style>
            .cls-1 {
            fill: #e2a496;
            }

            .cls-2 {
            fill: #141414;
            }

            .cls-3 {
            fill: #302322;
            }

            .cls-4 {
            fill: #b26a14;
            }

            .cls-5 {
            fill: #472a2a;
            }

            .cls-6 {
            fill: #bf7434;
            }

            .cls-7 {
            fill: #8a4430;
            }

            .cls-8 {
            fill: #a0571f;
            }

            .cls-9 {
            fill: #ac5620;
            }

            .cls-10 {
            fill: #cd6c86;
            }

            .cls-11 {
            fill: #b15e73;
            }

            .cls-12 {
            fill: #a75536;
            }

            .cls-13 {
            fill: #9d4c2a;
            }

            .cls-14 {
            fill: #cb7f42;
            }

            .cls-15 {
            fill: #ddab83;
            }

            .cls-16 {
            fill: #523448;
            }

            .cls-17 {
            fill: #923e2f;
            }

            .cls-18 {
            fill: #79392c;
            }

            .cls-19 {
            fill: #c50006;
            }

            .cls-20 {
            fill: #7c151b;
            }

            .cls-21 {
            fill: #9f2e34;
            }

            .cls-22 {
            fill: #c03922;
            }

            .cls-23 {
            fill: #c56e50;
            }

            .cls-24 {
            fill: #e89b82;
            }

            .cls-25 {
            fill: #b85b40;
            }

            .cls-26 {
            fill: #bd070f;
            }

            .cls-27 {
            fill: #6c1e21;
            }

            .cls-28 {
            fill: #d87c60;
            }

            .cls-29 {
            fill: #ae654e;
            }

            .cls-30 {
            fill: #547805;
            }

            .cls-31 {
            fill: #466404;
            }

            .cls-32 {
            fill: #405b04;
            }

            .cls-33 {
            fill: #395103;
            }

            .cls-34 {
            fill: #324703;
            }

            .cls-35 {
            fill: #4d6e05;
            }

            .cls-36 {
            fill: #baa438;
            }

            .cls-37 {
            fill: #77991e;
            }

            .cls-38 {
            fill: #19290b;
            }

            .cls-39 {
            fill: #2b4813;
            }

            .cls-40 {
            fill: #627f4b;
            }

            .cls-41 {
            fill: #b18678;
            }

            .cls-42 {
            fill: #b0897d;
            }

            .cls-43 {
            fill: #554039;
            }

            .cls-44 {
            fill: #6f7f65;
            }

            .cls-45 {
            fill: #f0b6a3;
            }

            .cls-46 {
            fill: #f7d0c4;
            }

            .cls-47 {
            fill: #947064;
            }

            .cls-48 {
            fill: #b89b92;
            }

            .cls-49 {
            fill: #edcd42;
            }
        </style>
    </defs>

    <g id="ololo" clip-path="url(#test)">
        <g id="Layer_2" data-name="Layer 2">
            <g id="Layer_1-2" data-name="Layer 1">
                <g id="Layer_3" data-name="Layer 3">
                    <path class="cls-1" d="M225,0s-7.78,13-8.67,17.67.89,32.16.89,38.08S218,68,220.49,68.19s8.68,1.31,8.9,1.81,9-18.5,7.51-18.17S240.58,0,240.58,0Z"/>
                    <rect class="cls-2" width="320" height="240"/>
                    <path class="cls-3" d="M79.84,0s18,13.5,16,19.5-3.7,8,.15,11.5,15.85,13.5,18.51,14.5,39.34,1,41.34,0,7-9,4.16-12,1.84-5-6.83-6-2.67-8-2.67-10-.66-9.5-4.66-9-18-8.5-18-8.5Z"/>
                    <path class="cls-3" d="M0,106S11.17,93.5,17.84,94s14.66-3,16-4.5,34,3.5,31.33-3.5S47.59,72.68,45.84,67s0-14,0-14,20,5.5,24,6,10-2.15,10-2.15V46.25S68.5,30.5,62.5,29s-46.66-7.25-48.66-5.88S0,28,0,28Z"/>
                    <polygon class="cls-4" points="0 97.5 57.84 50 0 8.5 0 97.5"/>
                    <path class="cls-5" d="M320,137.57s-17.28-3.42-18.61-4.74-3.56-.67-4.67-.25-17.77-7.32-20.44-8.37-10.44,2.74-14,2.68-15.11-3.1-16.22-4.66-.45-10.28,0-11.75,7.33-8.43,6.66-8.46-10.88,1.15-13.11.81-4.22-6-5.78-6.66-7.33-.17-10.22-1.34-18.33-1-21.9-1-2.24-12.66-2.24-12.66S172.55,44.45,172,44s2.75-3.48,3.64-4-4.09-2.67-3.71-5.5,2.16-8.67,3-8.5,5.89-.33,6.72-1,7.5-1.34,5.28-2.08-8.67.75-9.56-1.92,2-5.17-2.67-5.17-13.53.67-13.87-1.83,1.59-3.5-1.16-5.5-5.63-3.17-4.3-4.67A33.12,33.12,0,0,0,158.15,0H320Z"/>
                    <path class="cls-6" d="M320,30.83s-10.16,38.8-17.28,42.4-24.44,10.27-34.44-9.9-1.56-36.16-1.56-36.16L277.63,0H320Z"/>
                    <path class="cls-7" d="M320,130.75s-7.72-.76-10.83-2.17S299,126,295.61,125.42s-9.33-2.17-11.33-3.8-14-3.23-16.22-2.93-9.78-1.51-10-4.27-1.78-11.29-2-12.61-6.22-2.31-8.45-3.14-5.78,1.16-7.11-1.17-3.11-5.43-6.44-6-13.95-1.75-15.86-2-10.25-.89-11.86-2.89-6-19.84-7.82-22.84S192.46,53.5,192,50s-1.79-13.5-2.88-15.17,2.42-6,2.88-8.5,1.31-5.5,0-8.83-4-8.33-2.45-10A83.58,83.58,0,0,0,194.92,0H320Z"/>
                    <path class="cls-8" d="M320,118.69a35.16,35.16,0,0,1-8.39-2.69c-3.55-1.83-14.66-4.51-17.33-4.34S277,110.12,275,108.48s-11.78-5.69-13.34-6.67-5.55-4.14-9.78-5.64-9.33-3.5-10.66-5.34-6.67-2.83-6.67-5-1.33-2.16-2.89-1.83-9.41,3.83-11.37,1.83-5.29-3.5-6.74-5.16-6.11-3.67-6.22-6.17-1.35-18.17-3.4-20.33-5.56-9.5-5.36-13.34-.74-12.16.73-15,2.31-7.5,2.89-9.83-.87-7.33,1.75-9a99.45,99.45,0,0,0,8.42-7H320Z"/>
                    <path class="cls-4" d="M220.24.51s-7.46,7.5-7.93,10.17S209.58,35.14,211,39.33,215.85,63.09,215.4,65s2.36,6.71,4.84,8.54,5.6,2,6.49,3.17,7.11,1.67,8.44,1.67S239.61,83,240.06,84s5.55,5,6.89,5.17,6.89,3.83,9.55,3.67,1.18,3.16,2.7,3.66,6.64-.33,7.53,0,7.55,5.35,8.88,4.84,10,1.5,11.56,2.16,10.44,1.93,11.78,2.22,10.44,1.74,11.55,3.26,9.5,2,9.5,2V.51Z"/>
                    <path class="cls-9" d="M289.29,100.28s3.62-35.79,6-46.81S295.49,91.66,289.29,100.28Z"/>
                    <path class="cls-9" d="M274,95.54s9.32-35.2,13.47-45.93S281.57,87.54,274,95.54Z"/>
                    <path class="cls-9" d="M259,90.35S272.84,56,278.37,45.63,267.51,82.94,259,90.35Z"/>
                    <path class="cls-9" d="M306.19,101.18s-1.08-33.52-.13-43.93S311.24,92.72,306.19,101.18Z"/>
                    <path class="cls-10" d="M232.72,0s-6.88,13.17-8,15.33-2.66,8.67-2.44,11.34,1.29,12.66,0,14.83-1.84,9.5-2,10.33-1.65,11.83,2.42,12.63c2.17.42,6.73-10,5.84-3.63s-2.29,12.34-2,13.84,8.48-3.77,9.81-5.89,12.65-11.11,12.33-12,7.45-29.16,7.67-31S261,0,261,0Z"/>
                    <path class="cls-11" d="M238.5,0s-5.67,17.75-8.83,23.12-2.83,16.34-4.33,19.23-7.84,14.76-2.67,18.75c.5-4.72,2.67-12.21,4-13s8.9-5.57,8.45-5.19.38,6.62-1.62,11.5-6.56,12.5-5.19,12.12,2.58-.69,5.55-5.85,6.72-12.24,6.72-12.24,1.58,6.59,0,10,2.32,6.08,2.32,6.08,3.33-5.58,3.38-6.08-.05-6.76,0-7.13,0-5,0-5L239.5,16.12,246.28,0Z"/>
                    <path class="cls-12" d="M280.14,0s-9,32.76-11.42,37.47-2.44,16-4.44,18.28S254.88,65,254.47,66s-5.87,3-5.86,1.83-2.33-3.37-2.33-3.37L259.2,30.83,269.17,0Z"/>
                    <path class="cls-13" d="M221.48,60.3a12.08,12.08,0,0,1,1-7.3c1.71-3.22,7.34-12.2,7.34-14.19a60.47,60.47,0,0,1,1.11-10c.66-3,4.22-8,5.11-9.83s2.22-3,2.89-5.67S243,0,243,0h33.33s-8,28.67-9.11,29.83-6.6,11.17-8,12.84-2.25,7-2.7,9.16-3.33,4.7-4.89,7.52a37.72,37.72,0,0,0-3,7.32c-.56,1.83-5.1,4.43-3.32,4.1,1.21-.23-3.26,1-3.47-2-.22-3.28-.16-4.74-.16-6.91s2.39-5.2,2.39-7.54-.23-3.66-1.56-3.5-9.72,13-10.83,13.79S233,60,233.83,57.25c1.29-4.13,3.62-7.18,2.82-9.18s-1.48-4.07-3.48-3.4-6.89,5.83-8,8.33S223.93,65.63,221.48,60.3Z"/>
                    <path class="cls-14" d="M283.83,0s-8.44,32.93-9.55,37.47-1.33,14.86,0,18.28,3.08,6.83,4.32,9.63,8.57,5.12,11.23,5.29,9.78-3.76,10.45-6.21,1.78-6.48,2.44-9.22S311.61,0,311.61,0Z"/>
                    <path class="cls-15" d="M299.83,55.75C299.61,56.5,299,66.33,295,67s-10.22,1.47-13.34-11.76S287.22,0,287.22,0H308.5Z"/>
                    <path class="cls-16" d="M288.14,63.12c1.85,0,6.44,2.13,7.56-10.87S304,0,304,0H290S280.14,63.33,288.14,63.12Z"/>
                    <path class="cls-8" d="M280.66,98.23s4.55-19.6,7.21-25.52S287,94,280.66,98.23Z"/>
                    <path class="cls-8" d="M253.71,86.22s7.18-18.78,10.64-24.35S260.61,82.63,253.71,86.22Z"/>
                    <path class="cls-8" d="M265.28,93.63s7.6-18.34,11.18-23.74S272.25,90.23,265.28,93.63Z"/>
                    <path class="cls-8" d="M298.46,100.44s.07-20.61,1.37-27S303.79,95.3,298.46,100.44Z"/>
                    <path class="cls-8" d="M311.61,103.72S311.68,80,313,72.6,317,97.8,311.61,103.72Z"/>
                    <path class="cls-17" d="M247.83,0s-12,32.1-12.66,35.55,5.71,4.62,5.41,8.45a4,4,0,0,0,5.7,4c2.22-1.17,13-12.76,17.27-23.8S272.06,0,272.06,0Z"/>
                    <path class="cls-18" d="M253.59,0s-9.09,30.48-10.42,32.74,2.67,8.93,3.11,9.59,11.14-15.25,12.35-18.13S266.72,0,266.72,0Z"/>
                </g>
                <g id="Layer_2-2" data-name="Layer 2">
                    <path class="cls-19" d="M227.23,220.17l-76-.28a16.6,16.6,0,0,0-1.69-2.46c-.38-.24-5.18-2.13-5.56-2.37s-1.22-3.85-1.22-3.85,2.4-4.05,3-4.07,1.94-2.55,1.94-2.55l1-1.9L137,200.6l-10-.25-9.47,1.1-10.37.5-12.56,2.94-11.85,6-9,6.72-2,2.18-21.46.34,7.92-9.9,14.94-12.86,13.22-6.83-3.85-9.28-6.6-9S69.56,161.48,69.67,161s-.07-18.25-.07-18.25l1.6-6.28L68.44,136l-4.52-5.64-3.89-6-.33-3.25,1.13-4.78L60,108.63l.83-6.83-3.39-5.92.62-5.26L63,92.12s3.47,3.67,3.85,3.91a16.88,16.88,0,0,1,1.69,2.58l-.83-8.35L65.89,72.42l.56-7.64,2.35,3.69,3.68,2.29L80,75.2l10.32,3.25L106,81.82l14.4.48,12.58-2L146.42,78l11.49-6,4.33-1.85-3.31,8.08-7.5,10.43-3.64,9.72,0,1.18s5.35-1.31,5.72-1.07,4.42,1.26,5.17,1.75.72,3.73.72,3.73l-2.2,17.31-2.37,5.39a6.06,6.06,0,0,1,3.84,3.81,19.37,19.37,0,0,1,.63,5.89,0,0,0,0,1,0,0c-.11,3.28-1,6.79-3.4,8.16-4.19,2.36-3.67,3.23-3.67,3.23l0,.28c.11,1.21.37,5.94-2.11,6.77-2.85.94-.13,4.75-.13,4.75l0,3.76L145.87,168s-3.79,3.85-4,4.6-4.12,5.23-4.12,5.23l-4.22,1.6L127,180.71l-1.42,3.41,2.66,1.19L142.9,185l12.48,3.94s11.48,5.1,11.49,5.22,3.06,1.93,3.06,1.93,1.87-5.42,2.24-5.68,4.41-3.61,4.78-3.74.75-5.15.87-5.53,4.71-6.74,4.71-6.74l6.38-5,5.79,1.48,3.47,4.17.08,3.63a19.26,19.26,0,0,1,3.78.9c.38.37,5.5,5.12,5.5,5.12l1.22,3.85,0,1.87,3-.07s6.75,1.84,6.29,2.6,2.19,6.7,2.19,6.7l-1.15,3.9L222,207l3.86,4.15Z"/>
                    <path class="cls-20" d="M199.54,179.83s-1.43,7.23-3.66,9.34.66,2.5,0,7.66-6.5,20.67-9.34,23.34c-2.16-.16-6.16.16-5.83,0s5.83-7.84,5.83-7.84l1.5-6.24,4.5-7.59-.66-6.48-.5-3.35,7.37-9.9Z"/>
                    <path class="cls-20" d="M197.54,219.83l5.17-7.66,3.67-6.08-.84-4.59-2-2,5.92-9.66,2.92.34-5,9.32s4.5,1.34,2.08,7.18-9.58,8-6.92,13.5C199.88,220.07,197.54,219.83,197.54,219.83Z"/>
                    <path class="cls-21" d="M219.54,220.17s1-4.6,0-5.63-2.28-3.5-1.5-5.3a14.09,14.09,0,0,1,2-3.15l-.61-1.92-4.67,5.07s.5,2.26.67,2.93,0,7.66,0,7.66Z"/>
                    <path class="cls-20" d="M167,220.21s-.45-6.55,3-8,5-7.26,3.81-12-1.86-4.51-1.86-4.51l-1.31,6.52-3.59,5.57-3.32,4.43L162.54,220Z"/>
                    <path class="cls-22" d="M172,195.65s7.36-2.65,7.86-5.07-.5-4.75,2.5-7.25,14.64-10.39,11.76-12.66a4.33,4.33,0,0,0-5.43-.19s-7,4.85-7.67,5.52a51.73,51.73,0,0,0-3.66,7.5c-.17.67-.34,2.5-.34,2.5l-4.87,4.37-2.1,5.28Z"/>
                    <path class="cls-22" d="M197,182.63c.24.77,5,1.66,6.67,4.43a44.49,44.49,0,0,0,3.5,5s3.5,0,5,1.31,6,10.34,6,10.34l-1.33,2.42s7.35,4.76,8.84,7.92,0-4.09,0-4.09l-6.34-5.75.83-4-2.5-6.34-4.86-3.25-4.14-.91s-1.33-5-1.5-5.5-6.33-5-6.83-5a12.23,12.23,0,0,1-2.12-.56s-.51-4.89-1.36-5.16a36.19,36.19,0,0,1-4.36-3l.16,4.3A27.9,27.9,0,0,1,197,182.63Z"/>
                    <path class="cls-22" d="M145.3,209.24a15.7,15.7,0,0,1,7,10.59,104.21,104.21,0,0,0-9.46-5.29l-.09-3.33Z"/>
                    <path class="cls-20" d="M146.86,206.09s13.18,6.08,15.35,11.58a46.34,46.34,0,0,1,1.9-6.34L157,206.09l-8-3.92Z"/>
                    <path class="cls-22" d="M54.88,220.17s9.47-14.17,19.32-20S83.61,192,83.61,192L71.7,198.68l-10.53,9.06L49,219.83Z"/>
                    <path class="cls-22" d="M149.73,187.56a23.08,23.08,0,0,0,8.45,5.94c5.53,2.33,12.53,8,12.53,8l-.83-7L163,192.82Z"/>
                    <path class="cls-20" d="M63.21,219.83s6.67-8.5,15.5-12.66,22.12-10.67,23.48-10.5,14.75-1.17,22.63-1,26.81-.5,31.26,3.5,12.36,7,12.36,7l-4.33,5.16-14.38-8.83-9-3-13.16.85-13.32,1.25-17,1.72L86.61,209,71.78,219.83Z"/>
                    <path class="cls-22" d="M60.46,109.12c.36.13,4.08,2.82,3.33,5.81s-2.16,6.14-.5,9.44,2,7,.6,5.55-4-7.06-4-7.06l1.41-4.19s-.75-6.57-.92-6.66A17.15,17.15,0,0,1,60.46,109.12Z"/>
                    <path class="cls-22" d="M68.74,116.64c.8-.61,5,7.71,9.22,10.2s.27,1.52-1.91,4.17-5.47-3-6.57-6S67.76,117.38,68.74,116.64Z"/>
                    <path class="cls-23" d="M58.56,93.1c.09-.12,5.91,9.59,9.28,9.33,1-1.6,1.64,3,1.64,3s3.73-4.59,2.06-16S66.71,73,66.88,71.67s-.75,8-.75,8,1.33,5.08,1.41,5.66.25,8.43.34,9.09.41,5.58.41,5.58l-1.45-4-5.63-5.11h-3.5Z"/>
                    <path class="cls-20" d="M60.31,106.19c0,.31,5.94,4.69,5.38,8.5s-.31,8.35.69,9.68,1.12-6.56,1.12-6.56,2.13-4,2-4.31-.84-2.56-1.16-3-2.12-3.37-2.25-3.43-1.68-1.82-2.31-2.38-3-3.07-3-3.07l-.87,3.13Z"/>
                    <path class="cls-20" d="M59.72,97.68c.41.79,6.16,8.26,8.91,7.63a37.37,37.37,0,0,1,0,5.44l-8.91-10.44Z"/>
                    <path class="cls-24" d="M83.16,139.76c-.59-1.68,2-5.16,7.37-5.3s10.62-2.93,11.31-2.66,1.94,2.39-1,4.81S84.91,144.84,83.16,139.76Z"/>
                    <path class="cls-20" d="M105.11,162.94c.69-.42,4.21-1,1.8-6.62a27.49,27.49,0,0,1,5.34,5.18c.19.19.18,1.44-.1,1.34s-7.05.75-7.05.75v-.65Z"/>
                    <path class="cls-20" d="M111.63,160c1.54.79,8.44,1.4,9.56-2.73s-.11-9.11-.81-10.94c2.31.69,4.61,3.95,5,4.13s1.92,3.19,2.1,4.12-.56,4.59-.87,4.73-2.38,1.9-2.81,2.09-2.07,2.33-2.63,2.16-5.25.36-5.5,0a26.92,26.92,0,0,0-3.25-1.91Z"/>
                    <path class="cls-20" d="M67.56,71.88c.07.31,14.75,13.68,42.72,15.5S145.69,84.44,153.5,79c3.94-3.06,3.75-6.38,3.75-6.38s-9.44,4.94-13.94,6.13S124,82.62,118.56,82.62s-25.75-2.68-32.62-5.68-19.06-9.32-19.06-9.32Z"/>
                    <path class="cls-20" d="M90.78,170.6c-.49-1.61,4.72,14,5,16.46a37.9,37.9,0,0,1,5.5,0s1.88-.31,1.69-.44S91.77,173.82,90.78,170.6Z"/>
                    <path class="cls-20" d="M133.56,160s4.81-2,4.75-5.73,1.25-4.62,6.25-3.81,6.62.59,7.78-.8l-4.09-2.51s-9.44-1.94-9.94-2a62.46,62.46,0,0,0-7.62,1c-.06.18-.79,9.18-.89,9.43s-1.05,2.82-.67,2.94,1.37,1.94,1.56,1.94S133.56,160,133.56,160Z"/>
                    <path class="cls-20" d="M159.32,136.33c-.11,3.28-1,6.79-3.4,8.16-4.19,2.36-3.67,3.23-3.67,3.23l0,.28h-1.07l-15-2.48-.32-1.94C140.15,144.69,158.55,143,159.32,136.33Z"/>
                    <path class="cls-25" d="M135.67,162.08l-.94-1.14a36.52,36.52,0,0,0-4.52-.89c-.5.09-6.28,2.4-6.7,2.33s-5.68,1.3-6,1.31a31.49,31.49,0,0,1-3.62-.83,42.2,42.2,0,0,0-4.67.11c-1.83.13-6.48,1.08-6.48,1.08s1.27,2.22,2.17,2.7,5.91,3.69,5.91,3.69,5.57-.56,5.9-.56,8.18.38,8.43.21,4.27.73,4.68.55,6.41-4.16,6.4-4.66S135.67,162.08,135.67,162.08Z"/>
                    <path class="cls-22" d="M104.9,166.33c.54.11,7.95-1.87,9.31-1s10.07,1.53,13.73-1.73c.81-.81,5.8-2.17,7.21-1s1-.48,1-.48l-1.89-1.06H131l-3-.25s-6.06,1.57-6.31,1.75-4.43,1-4.43,1-2.14-.73-2.39-.86-2.19.06-2.72,0-6.23.28-7.25.35a11.32,11.32,0,0,0-2.71.75l1.81,2.19Z"/>
                    <path class="cls-26" d="M171.92,92.85c0-.34,0-4.09.31-4.26s2.84-3.32,3.25-3.5,3.84-3.18,4.25-3.27,2.45,1,2.45,1.36.5,6.65.18,7.16.29,5.75.29,5.75l-2.79,1.23L175.11,94Z"/>
                    <path class="cls-26" d="M167,108.47s.85,7.15.85,7.4-.58,3.43-.58,3.43l-2.5.48-2.93-1.66-.69-3.88,3.38-4.46,2.28-2.56Z"/>
                    <path class="cls-20" d="M173.75,93.1c1.36.92,5.38-3.79,7.57-7.1,0,2.62-.25,6.56,0,7.22s1.72,3,1.33,3.09a19.51,19.51,0,0,1-2.4,1,59,59,0,0,1-5.14-3.3Z"/>
                    <path class="cls-20" d="M167.06,110.88c-.06.37-1.37,11.43-5.12,6.68,1.94,2,3,2.19,3,2.19h2.55l.94-4.34Z"/>
                    <path class="cls-20" d="M87.39,113.53l-.1-4.37L83,106.89l-5.37.13s-3.94,2.72-3.92,3.47,2.83,8.56,2.83,8.56l3.37,2.8s-.57-4.64.33-4.89,7.09-1.55,7.09-1.55Z"/>
                    <path class="cls-20" d="M156.77,71.83s-6.43,7.92-8.82,12.48-4.07,12.72-10.6,16.38S126,108.84,122,108.31s-5.53,4.26-11.62.29c3.18,7.55,8.69,8,8.69,8s6.87-.29,7.25-.18,0-5.13,9.42-8.48c7.69-3.55,18.44-8.29,22.72-6.91a32.6,32.6,0,0,0-7-2.73l-4.2,2.11,1.94-7.6,4.17-8.68,5.37-5.26,3.9-9.35Z"/>
                    <path class="cls-27" d="M107.65,107.07s3.57,8.86-1.42,9.88a5.9,5.9,0,0,0,6.37-5.78l-2.85-3.75Z"/>
                    <path class="cls-20" d="M81.64,123.81c1.86,2.07,7.07,7.7,17.54,6.44s12.16-6.6,13.61-11.33c-3-1.06-8.72-.45-8.72-.45s2.43,1.9.37,3.86a27.38,27.38,0,0,1-5.9,3.75l-5,.47-6.9-1Z"/>
                    <path class="cls-28" d="M104.51,118.87s1.81,1.75-.87,4.41-8,3.56-8,3.56l-9.82-1.39s-5.18-3.25-5.44-3.62-1-4.6-.12-4.87a66.21,66.21,0,0,1,7.09-1.55c.38.12,8.93,1.91,8.93,1.91l6.24-.28Z"/>
                    <path class="cls-29" d="M80.87,119.49s7.68-1.32,11-.49a25.66,25.66,0,0,0,12.64-.13,18.3,18.3,0,0,0-3.6-2.29s-5.59.5-6,.5-7.56-1.67-7.56-1.67l-6.66,1.43L80,118.3Z"/>
                    <path class="cls-28" d="M130,115.75a49.52,49.52,0,0,0,7.5-1.14c3.46-.88,10.09-.67,10.09-.67l8.9,1.16-1.11,5.47-13.49,5.82-9.41-1.45a65.28,65.28,0,0,1-3.88-5.28C128.55,119.28,130,115.75,130,115.75Z"/>
                    <path class="cls-29" d="M130.54,118.92c1.11-.15,4.87-2.17,7.77-1,4-.92,12.48-1.06,15-.36s2.67-1.48,2.67-1.48-1.92-3.41-2.5-3.5-11.33.92-11.33.92l-7.43,1.73-4.16.52-1.08,4.4Z"/>
                    <path class="cls-20" d="M81.87,166.43c1.79-.79,3.65-3.55,4.81-5.36,1.87-.17,5.59-1,5.59-1s5,3.13,7.15,5.7,4.74,6.13,9.93,7.26,8.87-.34,11.75-.29,7.51.35,7.51.35l1.19-2.43-5-1.77-6.75,1.3h-4.89L108.63,169l-7.51-5.44L90.83,157l-5.09,1.5-2.67,2-3.06,4Z"/>
                    <path class="cls-20" d="M132.26,179.59s4.69-7.87,7.47-11.56,8.94-8.54,8.94-8.54l1.06-2.09-1.4-1.09s-6.54,3.54-6.78,3.92-5.36,5.26-5.36,5.26l-3.28,4.7-3,5.95-3,3.58.9,1,2.75-.07Z"/>
                    <path class="cls-20" d="M137.83,144.83c-1.64-2.41-8.33-10.82-1.78-14.09s7,4.67,19.2-3.44c-5.22-2.64-8.81-1.44-9.06-1.11s-13.17.32-13.17.32l-6,3.84s-1.06,7.78.21,8.62,5.52,6,6,6S137.83,144.83,137.83,144.83Z"/>
                    <path class="cls-20" d="M94.28,154.07s8-5.64,10.25-1.69c1.23-3.41,2.38-7.69,2.38-7.69l-4,1.73-8.76,4.09-2,4.8Z"/>
                    <path class="cls-20" d="M70.49,143.27c.21,2.85.37,15.18,4.26,10.71s-1.31,2.91,9.79,6.64c-2.92,3.45-3.35,5.1-3.35,5.1s6.21,10,7.67,13.43a88,88,0,0,1,3,9l-5.44,2.38-6.07-13-7.21-8.32L69.7,155.85l-.23-9.35Z"/>
                    <path class="cls-30" d="M166.38,66.17l-1.43-21-3-10.67-2.73-2.67-2,5.84L147.18,44.5l-23.8,6L90.71,49,76.05,42.5,72,36.83l-3.23,6.84L66.88,61.33v6.29l14.76,8.11L112.07,82s24-1.87,23.81-1.69,20.21-7.63,20.21-7.63Z"/>
                    <polygon class="cls-31" points="96.63 49.63 94.01 79.25 113.18 81.81 114.75 50.67 96.63 49.63"/>
                    <polygon class="cls-32" points="113.18 50.32 135.29 47.76 138.77 79.28 112.06 80.84 113.18 50.32"/>
                    <path class="cls-33" d="M153,41.88l.09.64,4,29.17s-20.39,8.25-20.58,7.72-2.81-31.31-2.81-31.31Z"/>
                    <polygon class="cls-34" points="159.21 31.5 162.24 35.56 164.95 46.51 166.35 65.72 156.09 72.69 150.88 43.75 157.15 39 159.21 31.5"/>
                    <polygon class="cls-35" points="81.64 47 78.88 74.38 95.88 79.43 98.34 49.72 81.64 47"/>
                    <polygon class="cls-30" points="71 36.38 66.24 67.63 79.81 74.38 83.25 47.76 74.44 41.88 71.87 35.75 71 36.38"/>
                    <g>
                        <path class="cls-36" d="M110.36,63.5a15.62,15.62,0,0,0-6-2.38c-3.2-.45-6.51,2.24-5.7,5.2s4.35,5.78,7.35,6.68c.31.09.52-.39.22-.52a15.25,15.25,0,0,1-5.72-4.65c-1.85-2.44-.32-5.67,3.22-5.72,2.68,0,6.2,2.07,7.94,3.7s1,3.65-.46,5.12a8.92,8.92,0,0,1-4.47,2,.18.18,0,0,0,0,.35c3,.11,7.6-2.62,6.81-6A6.53,6.53,0,0,0,110.36,63.5Z"/>
                        <path class="cls-36" d="M107.46,74.08a.9.9,0,0,0-.71-.32,1,1,0,0,0-.36.06.71.71,0,0,0-.44.3.29.29,0,0,0,0,.1.82.82,0,0,0,0,.72.69.69,0,0,0,0,.13.18.18,0,0,0,.25,0,.94.94,0,0,0,.39.22.81.81,0,0,0,.81-.39A.78.78,0,0,0,107.46,74.08Zm-.44.56c-.2.32-.46.35-.68,0a.62.62,0,0,1-.09-.27.51.51,0,0,1,.4-.21C107,74.15,107.22,74.32,107,74.64Z"/>
                        <path class="cls-36" d="M105.78,68.75c.13.72.34,1.44.53,2.16.06.23.11,1.28.65,1l.09,0a.37.37,0,0,0,.19-.33,14.2,14.2,0,0,0-.36-3.11C106.76,67.76,105.65,68.08,105.78,68.75Z"/>
                        <path class="cls-36" d="M108.65,67.43a4.28,4.28,0,0,0-3.39-2c-1.37,0-2.06,1.53-2,2.59,0,1.36,1.73,3.27,2.85,4,0,0,.1,0,.09-.06-.25-.85-1.18-1.5-1.75-2.18-1.11-1.31-1-4.38,1.53-3.89a4.07,4.07,0,0,1,2.63,2.22c.68,1.31-.16,3-.45,4.29-.07.28.43.33.48,0C108.89,70.76,109.75,69,108.65,67.43Z"/>
                        <path class="cls-36" d="M122.84,69.79s-.63-3.42-3.63-3.73a37.5,37.5,0,0,0-3.81-.26s-.17-4-1.22-4.9c-1.06,0-7.09.36-7.09.39a25,25,0,0,0-1.74-4c-.59-.75-1.94-1.52-2.15-2.6-.91.78-3.55,5-3.25,6-1.14-.16-4.72-1.71-5.27-1.64s1.1,4.18.81,4.77-2-.89-2.79-.56-2.4.72-.56,2.34c-.49.94-3.72-3-1.29-3.3S93.29,62,93.29,62s-2.11-1.65-1.44-3.25a7.37,7.37,0,0,0,.35-3.57l1.22,2s3.14.47,4.09,1.27c.6-1.33,2.84-4.75,4.47-5.74.67-1.15,1-1.08,1.3-.78s3.66,3.18,4.27,5.6.67,2.15.67,2.15,1.72-.33,3.74-.91a20.45,20.45,0,0,1,4.61-.56c-.13,0,1.09,4.13,1.12,5.56s1.09-.08,3,.61,3.5,4,2.82,4.82S122.84,69.79,122.84,69.79Z"/>
                        <path class="cls-36" d="M87.9,66.5c.31.6-4.73-6.8-6.66-6.6a1.34,1.34,0,0,1-.78.75s-1.64-2.71-2.88-2.94c-.19.47-1.32,0-1.32,0l.27,1.63a8.33,8.33,0,0,0,.12,1.27c.07.17,1.69,3.72,3.59,4.85-1.27-.32-4.7-4.26-4.81-6.49a17.5,17.5,0,0,0-.35-3.25l1.25,1.11s-.3-2,0-1.61,3.83,3.8,3.81,3.81.57-1.45,1.65-.45A22.52,22.52,0,0,1,87.9,66.5Z"/>
                        <path class="cls-36" d="M90.5,60.82c-.4-.22-.78-.49-1.2-.68a.67.67,0,0,0-.61.07.53.53,0,0,0-.2.22.49.49,0,0,0,.15.63,3.57,3.57,0,0,0,1.45.38,5.22,5.22,0,0,1,.78.19c.19,0,.42.18.63.09a.26.26,0,0,0,.17-.31C91.58,61.07,90.79,61,90.5,60.82Z"/>
                        <path class="cls-36" d="M96.85,56.14A10.12,10.12,0,0,1,96.26,55a.57.57,0,0,0-.27-.28.56.56,0,0,0-.52-.07.49.49,0,0,0-.38.32.4.4,0,0,0,0,.41,5.93,5.93,0,0,0,.65,1,4,4,0,0,0,.89,1c.26.17.68,0,.67-.29A2.06,2.06,0,0,0,96.85,56.14Z"/>
                        <path class="cls-36" d="M111.12,55.73v0a.63.63,0,0,0-.91-.09c-.25.17-.27.58-.39.82-.23.4-.46.79-.71,1.18-.14.22-.88,1.41-.2,1.45.53,0,1-1,1.25-1.28s.46-.68.7-1a1.38,1.38,0,0,0,.33-.7A.43.43,0,0,0,111.12,55.73Z"/>
                        <path class="cls-36" d="M120.61,61.55a7.28,7.28,0,0,0-1.08.84,4.88,4.88,0,0,0-1.09.92.32.32,0,0,0,.19.48c.47.17,1-.23,1.35-.47s.88-.58,1.28-.9S121.21,61.25,120.61,61.55Z"/>
                        <path class="cls-36" d="M126.41,70.44c0,.65,4-9.82,9.14-7.43,2.13-1.78,5.58-4.4,8-1.46,3.41-.58,5.11.6,3.65,1.69a5.13,5.13,0,0,1-2.23,1.17s3.39.5,1.63,2.49c-.52.55-2.57.7-2.57.71s-.31,2-1.33,2.25-2.57-1.28-2.57-1.28-1,1.07-.76,1.61,2.39,1.73,3.13,1.51,2.68-2.93,2.9-3.13,2.79.31,3.25-1.92-.49-2.87-.49-2.87,1.87-1.71,1.37-3.14-3.83-1.32-5.23-.26c-.74-1.08-1.43-2.6-4.21-1.87A11.47,11.47,0,0,0,135,62a3.29,3.29,0,0,0-3.63-.34C129.42,62.77,125.88,63.3,126.41,70.44Z"/>
                        <path class="cls-36" d="M130.09,79c.15.32.53-2.29.1-2.64s2.31-1.36,2.89-3c-1.26-.1-4.5-.76-5.68.88s-3.18,2.68-1.48,3.47S129.77,78.41,130.09,79Z"/>
                        <path class="cls-36" d="M127,75.73c-2.13-1.13-5.35-.15-7.44.67-.84.32-1.66.67-2.52.91a6,6,0,0,1-3.42-.54c-1.75-.63-3.34-1.62-5.14-2.18-.47-.15-.63.54-.19.71,2.91,1.08,5.62,3.1,8.86,2.49,1.53-.28,3-1.06,4.5-1.47a17.21,17.21,0,0,1,5.3-.46C127,75.86,127,75.76,127,75.73Z"/>
                        <path class="cls-36" d="M122.91,68.88c-1.31.05-2.35-.16-3.55.47a3.87,3.87,0,0,0-1.66,2.08c-.47,1.15-.53,2.35-1.24,3.43-.95,1.42-3.43,1.29-4.93,1.16a.17.17,0,0,0,0,.34c2.07.39,4.42.41,5.72-1.47a10.62,10.62,0,0,0,1.06-3,3.8,3.8,0,0,1,1.18-1.83c1-.83,2.34-.45,3.5-.64C123.29,69.41,123.27,68.87,122.91,68.88Z"/>
                        <path class="cls-36" d="M144.66,63.57c-.91-2-4-1.29-5.62-.7a39.55,39.55,0,0,0-6.87,3.57,18.76,18.76,0,0,0-5.09,4.07c-1.68,2-2.94,3.79-5.28,5.08a.27.27,0,0,0,.25.47c3-1.57,4.33-4.35,6.75-6.65a32.36,32.36,0,0,1,6.3-4.14c2.06-1.17,4.48-2.46,7-2.52a2.14,2.14,0,0,1,2.24,2.64c-.22,1.78-2.58,2.94-4.06,3.69-.4.19-.15.81.26.61C142.9,68.52,146,66.46,144.66,63.57Z"/>
                        <path class="cls-36" d="M105.53,74.9a6.1,6.1,0,0,0-1.65.08,6.88,6.88,0,0,1-2.85-.79,6.27,6.27,0,0,1-4.43-4.53,7.29,7.29,0,0,0-1.7-3.45,5.57,5.57,0,0,0-1.55-.95,6.64,6.64,0,0,1-2.45-1.67c-.18-.2-.54,0-.46.23.46,1.5,2.38,1.74,3.62,2.55,1.9,1.24,1.89,3.92,3,5.7.92,1.55,3.09,2.29,4.69,3a4.63,4.63,0,0,0,3.87.14A.15.15,0,0,0,105.53,74.9Z"/>
                        <path class="cls-36" d="M104.77,75a2.64,2.64,0,0,0-2.16.27,7.71,7.71,0,0,1-2.11.65,6.09,6.09,0,0,1-2.94-1c-1.89-1-4.11-3.17-6.53-2.62-.24.06-.3.38,0,.43,2.78.47,4.67,2.06,7.1,3.19a5.11,5.11,0,0,0,2.87.53c1.29-.19,2.38-1,3.71-1.12C104.86,75.34,105,75.09,104.77,75Z"/>
                        <path class="cls-36" d="M89.75,74c.16.23,3.16.68,1.64-1.47a7.75,7.75,0,0,0-4.9-2.78c-.6-.11,1.27,2.54,1.56,2.51s-.54,1.22-.64,1.42S89.76,74,89.75,74Z"/>
                        <path class="cls-36" d="M83,51.65a.46.46,0,0,0-.35.23l0,.06a.24.24,0,0,0,.09.33c.24.16.49,0,.62.28a.94.94,0,0,1-.24.84,1.69,1.69,0,0,1-1.42.43c-.5-.07-.61-.47-.19-.79a.89.89,0,0,1,.83-.12c.11.06.22.41,0,.35a.71.71,0,0,0-.29,0c-.05,0-.09,0-.11.09-.13.38.57.53.85.29a.71.71,0,0,0-.28-1.18c-1-.4-2.43.73-1.8,1.54s1.87.52,2.6,0S84.48,51.47,83,51.65Z"/>
                        <path class="cls-36" d="M128.64,54a2.68,2.68,0,0,0-3.66.76,1.68,1.68,0,0,0,.13,2.05,1.92,1.92,0,0,0,2.3.32c.25-.17.08-.45-.17-.5a4.06,4.06,0,0,1-1.26-.21.79.79,0,0,1-.36-.88,1.13,1.13,0,0,1,.41-.71.26.26,0,0,0,0,.11,1,1,0,0,0,1,1.2C128.2,56.3,129.75,54.93,128.64,54Zm-.72,1.27a1.41,1.41,0,0,1-.9.21.33.33,0,0,1-.33-.23c-.08-.3.21-.21.4-.18a.27.27,0,0,0,.29-.36.52.52,0,0,0-.32-.31,1.63,1.63,0,0,1,.31,0C128,54.32,128.57,54.75,127.92,55.23Z"/>
                        <path class="cls-36" d="M149.86,64.51c-.67.08-1.36.14-2,.26a.28.28,0,1,0,0,.55,6.92,6.92,0,0,0,2.49-.18.33.33,0,0,0,.23-.24C150.67,64.5,150.19,64.48,149.86,64.51Z"/>
                        <path class="cls-36" d="M152.44,64a1.27,1.27,0,0,0-.64,0,.84.84,0,0,0-.48.28.19.19,0,0,0,.14.27,1.51,1.51,0,0,0,.52-.06,2.47,2.47,0,0,0,.54-.11C152.74,64.35,152.63,64.09,152.44,64Z"/>
                        <path class="cls-36" d="M153.94,63.57c-.16-.06-.43,0-.46.21a.09.09,0,0,0,.09.11,1.13,1.13,0,0,0,.38-.19A.08.08,0,0,0,153.94,63.57Z"/>
                        <path class="cls-36" d="M154.74,62c-1-.39-1.38-3.05-1.56-3.85s2.76-.33,3.23-.35,1.88-3,2.38-2.51.34,3.51-.39,4.43S156.43,62.68,154.74,62Z"/>
                        <path class="cls-36" d="M165.62,56.16c.3.4-1,1.31-1.53,1.38s-1.49-1.94-1.51-2.79,1.7-2.1,2.06-2.8a27.24,27.24,0,0,0,.66-3l0,0a2.46,2.46,0,0,1-.53-.4,2.63,2.63,0,0,0-.19.85,3.38,3.38,0,0,1-1.6,2.61c-.66.52-1.84,1.4-1.69,2.39s.64,2.14.47,2.76,0,2.18.8,2.4,1.33-.72,1.74-.73,2.9-3.68,2.43-4.84C166.21,53.94,165.32,55.76,165.62,56.16Z"/>
                        <path class="cls-36" d="M162.5,57.26c-.84.12-1.44,1-1.89,1.53A5.63,5.63,0,0,1,159.44,60a3,3,0,0,1-1.83.35.24.24,0,0,0-.06.48,2.82,2.82,0,0,0,2.79-.89,14,14,0,0,0,1-1.2,11.85,11.85,0,0,1,1.38-1.17C162.88,57.44,162.7,57.23,162.5,57.26Z"/>
                        <path class="cls-36" d="M154.76,62.67a2.06,2.06,0,0,0-.58.52,4.28,4.28,0,0,1-.64.48s0,0,0,.06a.9.9,0,0,0,.79-.22,2,2,0,0,0,.63-.7C155,62.69,154.85,62.63,154.76,62.67Z"/>
                    </g>
                    <polygon class="cls-37" points="159.21 31.83 155.25 26.33 142.5 21.67 115.21 20.83 92.89 22.33 78.44 27.5 73.69 35.33 74.04 41.33 87.39 48.33 110.41 50.67 139.71 47 156.45 41.4 159.21 31.83"/>
                    <g>
                        <path class="cls-2" d="M76.29,136.29c1.28-1.6,3.24-4.33,5.34-4.11,1.56.17,3.41,1.39,4.88,2a17.74,17.74,0,0,0,6.56,1.21c5.5.14,9.8-3.47,13.84-6.63.53-.41,0-1.29-.55-.9a35.71,35.71,0,0,1-10.87,5c-4.36,1.16-8.09-.8-12.11-2s-7.08,1-7.33,5.31A.14.14,0,0,0,76.29,136.29Z"/>
                        <path class="cls-2" d="M113,145.05a.51.51,0,0,0,1,0c.51-6-.33-11.81-.62-17.74a.2.2,0,0,0-.34-.13c-1.36,1.22-.92,3.14-.64,4.79C113.21,136.3,112.46,140.7,113,145.05Z"/>
                        <path class="cls-2" d="M76.89,89a9.67,9.67,0,0,0,3.45,2.28,14.4,14.4,0,0,1,4.1,3,.33.33,0,0,0,.56-.24c.15-2.28-2.1-3.35-3.87-4.19-3.45-1.65-2.71-4.47-2.49-7.51h0c1.38.46,1.85.85,1.57,2.39s2,2,2.21.54c.5-2.84-.61-4.23-3.24-5.1-.28-.09-.55-.19-.83-.3a1.45,1.45,0,0,0-1.09-.44c-.77-.32-1.53-.67-2.32-1s-1.84-1.16-2.88-.84a.27.27,0,0,0-.15.4A16.48,16.48,0,0,0,76,81.27l0,0C76.18,83.68,75.22,87.15,76.89,89Z"/>
                        <path class="cls-2" d="M168.88,112.51c-.17-1.72-.87-3.77-.87-5.52a.58.58,0,0,0,0-.61.36.36,0,0,0-.38-.32.67.67,0,0,0-.83.28c-1.44,2.3-3.78,3.91-5.21,6.24-1.23,2-1,5.42,1.07,6.82a6.1,6.1,0,0,0,4.16.87c1.2-.09,1.44-.73,1.78-1.9A15.2,15.2,0,0,0,168.88,112.51Zm-6.49,5.16c-2.12-2.64,1.91-6.33,4.3-9a2.89,2.89,0,0,0-.08.65,37,37,0,0,0,.35,4.07,32.42,32.42,0,0,1,.25,4.06C167.2,120.36,163.62,119.21,162.39,117.67Z"/>
                        <path class="cls-2" d="M184.14,95.86a17.5,17.5,0,0,1-1.07-7.4,15.16,15.16,0,0,0,.18-5.37c-.45-2.11-2.51-2.67-4.31-2a15.08,15.08,0,0,0-6.66,5.67.43.43,0,0,0-.35.26C171,89,170,91.54,171,93.18c0,0,0,.06,0,.09a1,1,0,0,0,.69.66,3.72,3.72,0,0,0,.89.47c.91.33,1.87.58,2.76,1,1.3.59,2.36,1.9,3.56,2.68,2.12,1.38,2.87.23,4.67-.85A1.22,1.22,0,0,0,184.14,95.86Zm-3.15.33c-.6.58-1.86-.83-2.45-1.33a10.16,10.16,0,0,0-3.13-1.93c-1.07-.38-2.06-.44-2.5-1.16-.14-3.47,3.8-6.82,6.59-8.33,2.59-1.4,1.27,4.22,1.13,5.3a16.84,16.84,0,0,0,1,7A4.24,4.24,0,0,0,181,96.19Z"/>
                        <path class="cls-2" d="M226.72,209.79c-1.58-2.51-4.32-4.12-6.34-6.3.2-.32.42-.62.61-1a4.71,4.71,0,0,0,0-5c-2.57-4.95-5.11-8.37-10.74-8.51a5,5,0,0,0-1.26-4.58c-2.39-2.54-5.63-7.2-9.34-6.75a8.18,8.18,0,0,0,.12-2c-.24-3.62-5.24-7.05-8.53-7.35-4.71-.43-8.16,3.91-11.16,7-2.78,2.82-3.73,6.42-3.76,10.21l-.1,0a14.23,14.23,0,0,0-6.48,6.26,5.67,5.67,0,0,0-.65,2.32c-9.46-5.86-20.09-9.83-31.2-10.31a99.65,99.65,0,0,0-10.37,0l-.18,0a3.49,3.49,0,0,0,.91-2.38v0c3-.86,6-1.13,8.91-2.27,3.07-1.23,4.93-4.61,6.81-7.1s4.7-4.56,6.66-7.24.78-5.29-.09-8c.42-.33.82-.69,1.21-1.06.22,0,.66-.52.85-.64,1.6-1,1.25-1.77-.24-1.72a15.73,15.73,0,0,0-8.09,2.35,48.77,48.77,0,0,1-5.82,3.57,13.51,13.51,0,0,1-3.31.64,8.14,8.14,0,0,0-2.93-.51,10.7,10.7,0,0,0,3.27-5.21c.53-2.08-.41-6.51,2.74-6.91a7.39,7.39,0,0,1,2.45.17l.87.2c1.53.42,3.06,1,4.36,1.42,2.83.85,6.08,1.42,8.39-.45,0,0,.16-.18.18-.2,1.06-1.36,1.33-2.08-.16-2.12a62,62,0,0,1-11.64-.94l-.87-.32a11.26,11.26,0,0,0-1.67-.43,14.9,14.9,0,0,1-7-5.07c-3.79-5-2.53-10.59,4.23-11.31,3.53-.38,7.14.49,10.64.84,4,.39,7.25-.57,9-4.36,1.13-2.44,1.12-5.38,1.52-8a39.47,39.47,0,0,0,.83-8.32,6.38,6.38,0,0,0-.05-2.72,1,1,0,0,0-.5-1c-7.6-5.49-17.16,6.55-23.54,9.61a1.32,1.32,0,0,0-.53.1.41.41,0,0,0-.07.75,8.46,8.46,0,0,0,1.74.49c.34.09.67.2,1,.32.61,1.95.8,4.67,3,5.39,1.19.39,2.52-.61,3.21-1.47a12.78,12.78,0,0,0,1.79-4.29,20.71,20.71,0,0,1,3.94-.25,30.09,30.09,0,0,1,4.44.89,26.9,26.9,0,0,1-7.17,6.27c-6.87,4.34-14.53,1.47-15.71-6.49l.16-.1a.75.75,0,0,0-.61-1.35c-1.31.26-2.57.85-3.91.27-.48-.2-.78-.8-1.09-1.36a.8.8,0,0,0-1.06-1h-.05a4.44,4.44,0,0,1-2.92-.07,2.61,2.61,0,0,1-1.26-.79,1.71,1.71,0,0,1-.14-.27l.17-.12c.61-.54-.22-1.48-.88-1.09-3,1.78-5.59.14-7.95-1.69-.62-1.23-2.33-2.34-3.71-1.84a.18.18,0,0,0,0,.33c.64.39,1.21.6,1.68.93l.53.52a2.94,2.94,0,0,1,.44.94,6.09,6.09,0,0,1-.64,3.9,7.41,7.41,0,0,1-2.65,3.11,3.26,3.26,0,0,1-1.79.56c-3.34-1.82-5.18-4.92-8.14-7.22a14.92,14.92,0,0,0-5.15-2.35c1.62-4.16,1.86-9.16,3.28-13.26.18-.5-.54-.68-.8-.31-2.38,3.38-4,8.53-4.68,13-1.59-.34-3.16-.58-4.55-.83-3-.54-7-1.24-9.87.32-1.39.75-2.82,1.83-3.1,3.17-1.69,4.19,3.82,10.14,7,13.54,3.46,3.65,8.76,3.91,13.45,4.77s8.43-2.08,12.2-4.45a.53.53,0,0,0-.43-1c-2.91.8-5,2.8-8.17,3.23s-6.29-1-9.34-1.45a13.66,13.66,0,0,1-5.23-2.44,6.79,6.79,0,0,1-.86-2.34,9.14,9.14,0,0,1-.09-1.52,20.38,20.38,0,0,1,5.56-.7c1.29,0,2.6.15,3.89.24.66,2,1,5.07,2.54,5.72a1,1,0,0,0,1,.33c2.11-.56,2.36-3,3.3-4.63.39-.7,2.8-.73,4.17-1a6.15,6.15,0,0,0,4.43.77c2.19.75,4.46.15,6.77,1,1.41.54,4.63-1.23,5.41.4,1,2.08,3.93,1.73,4.72,4,.56,1.6.17,3.33.59,4.92a4.63,4.63,0,0,1-.09.49,3.69,3.69,0,0,1-.54,1.13,9.09,9.09,0,0,1-1.09.85c-.69.47-1.8.8-2.22,1.56a.33.33,0,0,0,.29.47,3.25,3.25,0,0,0,1.63-.48,4.15,4.15,0,0,1,1.82.24,13.85,13.85,0,0,1-1,6.73c-.7,1.37-2.48,3.22-2.24,4.93a6.26,6.26,0,0,0,1.6,3.64c2.26,2.83,4,4.79,3.62,8a.72.72,0,0,0-.15.29c-1.43,5.61-7.68,8-11.93,3.55-1.63-1.72-5.71-4.52-6.45-6.62-.85-2.42.22-5.5,1-7.83.13-.4.34-.84.45-1.28l.15-.1a1,1,0,0,0-1.08-1.73c-6.47,4.07-12.11,7.4-20,7.6a1,1,0,0,0-1,1.05,17,17,0,0,1-3.68,10.21c-.24.31-1.06.95-1.66,1.52-1.37-2.66-2.34-5.49-3.85-8.06-.05-.08-.17,0-.18.05-.32,5.14,3.18,10.08,5.83,14.21,1.65,2.57,3.35,5.1,4.86,7.76,1.92,3.36,2.67,6.84,3.79,10.4-1.32.36-2.63.78-3.94,1.25-1.81-4.15-3.1-8.11-5.71-11.93-3.18-4.65-6.47-8.17-8.53-13.55-2.19-5.72-3.14-11.26-2-17.33.84-4.59,1.93-8.9,1.41-13.58a.75.75,0,0,0-1.5,0c-.07.82-.18,1.63-.31,2.43-3.27.69-4.48-4-5.88-6-.88-1.24-1.83-2.43-2.69-3.67-2.1-3-.76-5,.12-7.78.78-2.43-.77-5.08-1-7.48a39.89,39.89,0,0,1,0-6.37c2.47,2.83,5.23,5.48,6.7,8.94,1.08,2.57-2.71,6.06-2.49,8.84a11.08,11.08,0,0,0,4.27,8,.57.57,0,0,0,.93-.57c-.57-3-3.12-5.1-2.59-8.49.29-1.82,1.65-3.21,2.13-4.94,1-3.77-1.32-6.43-3.68-9.14-3.11-3.58-6.09-6.78-7.53-11.36q-1.14-2.28,1.86-2.87a11.47,11.47,0,0,1,3.13,2.47,44.43,44.43,0,0,1,4.08,4.48,48.55,48.55,0,0,0,.73,8.28c.08.44.77.4.86,0,1.76-9-.21-18.93-1-28-.3-3.46-.41-6.9-.4-10.33A57.21,57.21,0,0,0,90.14,79.81c9.44,2.12,13.39,2.9,29.06,3.42a62.79,62.79,0,0,0,28.65-5.5A91.18,91.18,0,0,0,160,71.5c.13-.08.28-.15.41-.24-.23.37-.46.75-.66,1.15a25.84,25.84,0,0,0-1.14,3.08c-1,2.82-2.7,4.44-4.65,6.54-4.53,4.89-5.82,12.26-8.86,18.15-5,3.1-9,7-14.89,9-.31.1-.25.6.09.57,4.75-.37,9.27-2.69,13.14-5.35,1.9-1.31,3.73-2.65,5.75-3.78,3.7-2.08,5.81-.31,9.29.42a.93.93,0,0,0,.44-1.8c-1.92-.55-3.55-2.44-5.68-2.28a13.2,13.2,0,0,0-4.59,1.25c2.62-4.64,3.68-10.3,7-14.6,1.73-2.25,3.68-3.44,4.73-6.22a37,37,0,0,1,5.3-9,8.22,8.22,0,0,0,2-1.73,1.22,1.22,0,0,0,.45-.59.48.48,0,0,0,.07-.23c0-.11,0-.23,0-.35a132.82,132.82,0,0,0-2.54-21.12c-1-4.89-2.76-11.68-6.68-15.22a16,16,0,0,0-4.43-4.62c-5.68-4-14.23-4.38-20.84-5.1-8.63-.93-13.38-.66-22.5-.55l-3.58.31C92.14,19.82,74.18,22.74,68.24,39c-1.76,4.83-2,10.47-2.56,15.53A109.75,109.75,0,0,0,65.12,72a168.69,168.69,0,0,0,2,18.48,47.39,47.39,0,0,1,.45,5.19c-2-2.78-4.61-5.53-7.75-6.12-3.89-.72-4.15,3.49-3.54,6.11a16.37,16.37,0,0,0,3.37,6.52c-.75,2.38-.49,5.49-.52,7.88s1.37,4.4.88,7c-.42,2.27-1.5,3.88-1.22,6.27.45,3.86,4.91,7.48,6.53,11,1.08,2.31,2.35,3.29,4.49,3.06-.83,3.9-2,7.72-2.38,11.7-.5,5.33.83,10.16,2.52,15.18a37,37,0,0,0,7.1,11.91c2.33,2.81,4.48,5.35,6,8.74.68,1.58,1.29,3.18,2,4.75a60,60,0,0,0-18.41,11.64c-6,5.65-13.47,11.35-17.75,18.68h2.49c4.41-6,10.41-10.74,15.69-16.07,9.17-9.26,22-14.51,34.85-15.8,5.61-.57,11,.23,16.65.05a28.17,28.17,0,0,0,6.33-1.43c3.14-.87,6.38-.65,9.59-.61,6.77.11,13.38.48,19.55,3.49,5,2.46,10.76,4.36,15.27,7.74l.07,0c.31,2,.67,4-.3,5.93-1.22,2.41-3.27,4.15-5,6.12-4.15-2.39-7.56-5.84-12.07-7.6a44.33,44.33,0,0,0-12.29-2.44c-5.4-.48-10.84,0-16.25-.47a14.43,14.43,0,0,0-5.09.71,26.58,26.58,0,0,1-9.18,1.05c-9-.63-16.92,4.5-24.81,7.92a37.84,37.84,0,0,0-14,11.37h3.28a39.61,39.61,0,0,1,15.68-10.8c3.36-1.25,6-3.53,9.49-4.47a43.52,43.52,0,0,1,13.67-1.41c3.81.16,7.25-1.9,11.07-1.91,4.78,0,9.65.28,14.44.39a44.16,44.16,0,0,1,9.51,1.32c-.87,1.12-1.65,2.32-2.52,3.46s-2.2,1.93-2.95,3.16a4.2,4.2,0,0,0,.06,5c1.17,1.73,3.8,2.34,5.61,3a4.77,4.77,0,0,1,2.54,2.21h2.68a7,7,0,0,0-4.44-4.2c-1-.37-2-.72-3.06-1.14-3-1.31-1.1-4.49.41-6a15.56,15.56,0,0,0,3.21-5.12c1.13.33,2.23.7,3.29,1.11,3.7,1.46,6.82,4.73,10.28,6.85-.05.09-.11.16-.16.25-1.34,2.39-1.23,5.4-1.12,8.25h2.31c.3-1.79.13-3.66.46-5.74.4-2.47,4.37-5.27,5.77-7.31,1.75-2.57,3-4.75,2.69-7.91-.23-2.59-1.27-4.3.15-6.89a11.21,11.21,0,0,1,5-4.25,1.11,1.11,0,0,0,.66-1.15c.76-1.55.6-3.26.83-5,.5-3.63,4.85-6.64,7.34-9,4.66-4.35,12.83.75,9.8,6.78-1.5,3-3.83,5.53-5.69,8.32-1.62-1.4-3.52-2.48-5.46-1.94a.62.62,0,0,0-.12,1.12c4.33,1.9,7,5.61,6.45,10.25-.42,3.51-4.27,6.43-5.28,9.93-.72,2.49-.81,4.73-2.52,6.86-1.06,1.32-2.26,2.49-3.29,3.84a7.33,7.33,0,0,0-1.17,2h3a16.7,16.7,0,0,1,2.38-3.27,11.7,11.7,0,0,0,3-4.65c.82-3.13,1.1-5.91,3.25-8.54,1.07-1.3,2.36-2.67,2.82-4.34.75-2.7,1.36-6.71-.76-9l-.44-.48c1.75-2.76,4.52-5.64,6.11-8.81,2.66-.75,4.08.51,5.83,2.49,2,2.29,4.18,3.78,2.73,7.22-1.16,2.77-3.19,4.92-3.94,7.75a16.25,16.25,0,0,1-2.94-2.26.46.46,0,0,0-.77.35c.65,5.1,8.43,4.16,4.88,11-1.27,2.43-3.57,4.4-5.18,6.62A30,30,0,0,0,196,220h3a35.92,35.92,0,0,1,4.55-7.19,18.75,18.75,0,0,0,4-6.54c1.1-3.53-.6-5.32-2.79-6.85,1.31-2.53,4-5.72,5.09-8.82a39.39,39.39,0,0,1,4.07,1.32c2.18,1,3.36,3.88,4.46,5.85,1.5,2.7-2.43,7.91-4.42,11a2.8,2.8,0,0,0-1.38-.77.73.73,0,0,0-.89.72c0,2.16,2.64,3.7,2.81,6,.13,1.67-.47,3.64-.12,5.31h2.75c-.4-2.37.4-4.87-.44-7.17a10.8,10.8,0,0,0-1.07-2.06c1.1-2,2.42-3.8,3.68-5.63a11.34,11.34,0,0,0,2.37,2.85c1.83,1.83,3.36,3.45,4.05,6a36,36,0,0,1,.58,6h2.58C228.3,216.43,228.78,213.07,226.72,209.79Zm-89.28-95.16h0Zm6.9,1.38a.52.52,0,0,0,0-.11l.08,0A1.47,1.47,0,0,0,144.34,116ZM148.29,127a0,0,0,0,1,0,0h-.06ZM85.9,113.63a3,3,0,0,1-1.42,1.73,16.67,16.67,0,0,0-4.27.82.88.88,0,0,0-.62.94,5.54,5.54,0,0,0-.21,2.78c-3.69-3.47-6.12-8.23-2.4-11.4a8.79,8.79,0,0,1,3.9-.48c.51.22,1.13.28,1.64.51a7.13,7.13,0,0,1,2.61,2.07A3.43,3.43,0,0,1,85.9,113.63Zm36.2,18.94.11-.06,0,.06ZM74.19,34.45a22.34,22.34,0,0,1,8-6.81c7.43-3.93,16.35-5.26,24.87-5.49a183.36,183.36,0,0,1,38.13,1.24c6.06.79,15.74,5.63,11.72,13-2.63,4.8-7.84,5.62-16.29,8.71-6.06,2.22-13.86,3.24-20.33,3.66a141.91,141.91,0,0,1-18.9-.3A87.86,87.86,0,0,1,83,45.48a18.72,18.72,0,0,1-7-3.85C73.55,39.47,73.62,37.05,74.19,34.45ZM69.56,47.62a37.55,37.55,0,0,1,2.09-8.43,7.85,7.85,0,0,0,1.84,3.45c4.28,4.75,10.63,6.5,16.72,7.37a172.21,172.21,0,0,0,26.36,1.67c11-.14,17.84-2,26.57-4.28,6.25-1.6,12.89-3.72,16.28-9.68a7.59,7.59,0,0,0,1-3.76c4.14,9,4.46,20.77,4.78,30.34a.44.44,0,0,0-.12.15c-1.57,3-4.81,4.44-7.65,6-3.94,2.21-9.64,4.1-13.82,5.79-8.58,3.45-17.19,3.84-26.36,3.68a113.22,113.22,0,0,1-28-3.47c-8.52-2.1-14-5.52-21.34-10A162.48,162.48,0,0,1,69.56,47.62ZM136,167.52a36.31,36.31,0,0,1,4.68-4.4c2.35-1.87,5.2-3.19,7.77-4.8.77,3.25.34,5.59-2.35,8.34a41.76,41.76,0,0,0-4.7,5.24c-2.51,3.58-4.37,5.76-8.76,7-1.36.37-2.66.6-3.92,1a19.54,19.54,0,0,1,2.91-4.73C133.37,172.82,135.46,170.41,136,167.52Zm-22.87-3.92.63,0a5.65,5.65,0,0,0,1.12.65c.08.13.3.12.47.15s.49.08.74.11a7.2,7.2,0,0,0,2,.16,22.79,22.79,0,0,0,11.24-3,10.36,10.36,0,0,1,1.54-.23,10.09,10.09,0,0,1,3,.32,2,2,0,0,1,1.27,1,8.19,8.19,0,0,1-.58,2.22,5.85,5.85,0,0,1-2.12,2.13c-1.25.83-2.9,1.33-4,2.34a29.1,29.1,0,0,0-11.5.05c-6,1.27-8.92-2.18-13-4.82C107.09,164.62,110.64,163.86,113.13,163.6Zm-19.51-6.08c-.08-4.05,2.19-6,5.1-7.67a49.68,49.68,0,0,0,6.39-3.37,26.73,26.73,0,0,0-.74,3.16c-.67,3.51.17,6.63,3.25,8.55a27.75,27.75,0,0,1,4.25,3.69c-3.48.41-7.33,1-10.71.52-2.54-.36-5.45-2.84-7.55-4.83C93.61,157.55,93.62,157.54,93.62,157.52ZM117.13,174c-2.75,0-5.33.62-8.06.86s-5.19-.4-7.81-.38a.36.36,0,0,0-.35.39.39.39,0,0,0,0,.24c.47,1.57,1.62,3,2.37,4.44,1,1.94,1.76,4,2.61,6-1.73.08-3.46.27-5.19.47-4.8-6.35-7.68-13.34-10.11-20.85a.32.32,0,0,0-.61,0c-.76,3.54,1,7.17,2.39,10.33a68.74,68.74,0,0,0,6,10.78H98.2a44.23,44.23,0,0,0-5.57,1c-1.8-5.3-3.28-9.85-6.42-14.77-1.64-2.58-3.37-5.09-4.94-7.7,0,0,0,0,0,0,1.89-.65,3.37-2.52,4.45-4.74,2.19-.8,4.17-1.63,6.74-1.57a23.75,23.75,0,0,0,7,5.2,5.92,5.92,0,0,0,.93.4c2.87,2.65,6.94,7.27,11.08,7.56a27.7,27.7,0,0,0,7.47-.86c3.2-.63,6.34,0,9.51.4l-.07.07C125.29,174.15,121,173.92,117.13,174Zm8.49,10.15a.79.79,0,0,1,0-.09l0,.07Z"/>
                    </g>
                    <path class="cls-24" d="M115,151.06c1.73-.5,3.75,1.32,4.18,2.61a4.19,4.19,0,0,1-2,4.16c-1.24.53-3.64.29-3.69-1.52S113.1,151.61,115,151.06Z"/>
                    <path class="cls-24" d="M136.64,133.34c.93-.54,2.33-1.81,4.86-.74s6.48-.91,5.54,1.49-4.38,5.23-7.66,3.94S135,134.31,136.64,133.34Z"/>
                    <path class="cls-20" d="M111.61,122.3c.09-.2,3-.92,4.14-.45a34.23,34.23,0,0,1,5.13,3.53,4.73,4.73,0,0,1,1.29,5.63,3.24,3.24,0,0,0,3.08-1.89c.06-.43.44-3.31-.31-5.06s-1.19-3.57-2.38-4.28-.68-1.53-3.25-2.22-3.31-1.16-4.18-.92-1.93.61-2.53.73-3.27,2.5-3.18,2.78A20.75,20.75,0,0,0,111.61,122.3Z"/>
                    <path class="cls-20" d="M120,133.54c.71-.22,2.83,1.44,1.65,7,3,.3,3.18-2.64,3.18-3.2a28.29,28.29,0,0,1,0-3.19c.13-.57-.93-1.19-1.12-1.25s-1.29-.76-1.29-.76l-2.42.94Z"/>
                    <path class="cls-24" d="M88.88,105.42c0-.17,2.58-9.66,3.58-11s-3.5,3.5-4.5,6.5-4.17,1.41-8.58,2.66-3.24,1,.38,1S88.54,106.7,88.88,105.42Z"/>
                    <path class="cls-22" d="M95.13,107.67c1.09.65,7,5.56,8.33,6.7s3.92.65,3.92-2.36-1.75-.51-4.25-1.13-6.41-3.76-7.75-4.82a3.93,3.93,0,0,1-1.25-3.73c.16-.91-1.65,4.45-1.24,4.56A11,11,0,0,1,95.13,107.67Z"/>
                    <path class="cls-22" d="M109.42,105.42c.61.36,4.45,3.25,4.79,3.58s4.5-.08,4.92-.83-3.71-.56-4.86-1.28S108,104.57,109.42,105.42Z"/>
                    <path class="cls-22" d="M76.05,139.92c-.15.81-.16,9.5,0,10.08s-3.41,6.07-4.17,0,1.16-13.8,1.33-14.73,2.57.08,3.25,0S76.14,139.43,76.05,139.92Z"/>
                    <path class="cls-22" d="M110,142.16c.58-.33,2.42.47,2.42-1.56s0-5.6-.23-6.93-.52-4.25-.52-4.25-1.25,1.93-1.67,2.63S110,142.16,110,142.16Z"/>
                    <path class="cls-22" d="M83.63,166.93s4.91,8.32,5.83,10.49-2.55-11.67-2.07-13.25S83.3,166.37,83.63,166.93Z"/>
                    <path class="cls-22" d="M91.59,166.34c.2.39,3,6.91,3.54,8.08s-.25-9.25-.84-9.67S91.21,165.56,91.59,166.34Z"/>
                    <path class="cls-22" d="M156.45,128.75c.7.44,2.18,5.25,1.59,7s-2.91-4.67-3.83-5.36S155.53,128.17,156.45,128.75Z"/>
                    <path class="cls-22" d="M163,116.37c.1.91,2.05-2.4,2.15-3.3S162.79,113.9,163,116.37Z"/>
                    <path class="cls-22" d="M174.46,90.42c-.05.65,4.58-4.25,4.67-5.09S174.62,88.23,174.46,90.42Z"/>
                    <path class="cls-38" d="M159.88,56.57s-1.09-1.37-1.34-1.39-4,.83-4.49.91-2.54,2.88-2.36,3.1,1.39,5.72,1.39,5.72,3,2.1,3.62,2.14,3.51,0,3.51,0l2-3Z"/>
                    <path class="cls-39" d="M135.86,66.43a12.63,12.63,0,0,0-1.78-.9c-.29,0-3.07.67-3.07.67a23.44,23.44,0,0,0-1.8,2.54,13.8,13.8,0,0,0,.58,3.79c.25.14,1.52,2.48,2.14,2.65s3.59,1.5,3.93,1.37,2.64-.82,2.91-1a18.15,18.15,0,0,0,1.17-2.85l-1.56-3.12Z"/>
                    <path class="cls-40" d="M98.22,65.24,95,68.73l-2.59,4.1a16.25,16.25,0,0,0,1.38,2.53c.27.14,3.2,1.2,3.2,1.2s5.1-1.9,5.42-2,2.13-4.52,1.89-4.76S102.47,66,102.47,66Z"/>
                    <path class="cls-41" d="M167.38,43.36h1.7l-1.75,4.4-1,13.73s-4.15,3.05-4.53,3.15-5.4-2.18-5.4-2.18l.26-4.58h3.36l3.46-3,.47-1.68.67-3.24Z"/>
                    <path class="cls-42" d="M157.25,60.3c.88.45,5.38-.88,7.07-3.37s1.43-2.85,1.43-2.85l-5.68,2.41s-2,1.52-2.21,1.79A10.54,10.54,0,0,0,157.25,60.3Z"/>
                    <path class="cls-43" d="M157.15,62.07c1.85,0,8.19,1.31,9.61-9.12.53,11.12-3.23,11.4-3.23,11.4l-4.28-.43Z"/>
                    <path class="cls-44" d="M74,55.1l3.3.71L79,58.75a24.53,24.53,0,0,0,0,3.65c.18.41-1.69,4-1.69,4A36.75,36.75,0,0,1,73,67.75c-.26-.11-3.09-3-3.09-3V62.3Z"/>
                    <path class="cls-45" d="M60.88,44.55l3.41,4.06,6.14,5.93s3.91,2,4,2.39,1.28,4.5,1.28,4.5S74.28,64,74.08,63.92,69,62.82,68.8,62.58l-6-9.11s-2.53-6.85-2.55-6.94,0-3.29,0-3.29Z"/>
                    <path class="cls-46" d="M61.38,48.13c0,.23,5.1,7.84,6.55,8.36s2.12-1.39.25-3-7.3-8.94-7.3-8.94Z"/>
                    <path class="cls-47" d="M61.46,49c.94,2,8.25,11.85,13.13,12.22A2.94,2.94,0,0,1,73.92,63l-4.61-.58-5.63-8.62Z"/>
                    <path class="cls-2" d="M76.63,61.43c.05-2.7-.93-5-3.25-6.17-5.41-2.83-10.67-8-12.21-13.2-.23-.78-1.53-.84-1.66,0-.63,3.92,1,8.11,3,11.38,1,1.7,3.38,7.32,5.13,8.76a7.61,7.61,0,0,0,5.83,2.68C75.29,65,76.6,63.1,76.63,61.43Zm-2.3.59a1.71,1.71,0,0,1-1.86.89c-.41-.19-1.81-.61-2.21-.86-3.58-2.41-9.13-13-8.91-16.14,3,3.92,6.85,8.4,10.15,10.55C73.38,57.68,75.52,60,74.33,62Z"/>
                    <path class="cls-45" d="M87.11,59.53l2,4.2,2.65,1.4,4.62-.45,3.34,1.75-.41,3.72-1.79,2.7H93.17l-4.9-4.67S87.1,62.93,87,62.71,85.89,59,85.89,59Z"/>
                    <path class="cls-47" d="M99,70.33c-.83.43-9.71-2-11.58-7,1.09,5,3.21,7.67,3.65,7.87s4.06,1.58,4.28,1.8,3-.92,3-.92Z"/>
                    <path class="cls-41" d="M133.85,66.31c.36-.16,7.81-3.47,7.92-4.27s3.06-5.29,3-5.09.69,5.13.69,5.38-1.15,6.24-1.15,6.24l-2.54,3.21s-4.34.93-4.78,1.15-4.21-1.89-4.41-2.25S133.85,66.31,133.85,66.31Z"/>
                    <path class="cls-48" d="M133.25,69.28a3.74,3.74,0,0,0,5.25,0,11.15,11.15,0,0,0,3.74-7c-2,1.45-3.82,2.58-3.82,2.58s-4.72,1.68-4.69,1.83S133.25,69.28,133.25,69.28Z"/>
                    <path class="cls-43" d="M144.77,63c-.3.15-2.08,8.23-8.83,9.91a14,14,0,0,0,6.94-1.42l1.89-4.48V63Z"/>
                    <path class="cls-2" d="M145,55.29a.64.64,0,0,0-1.27,0c-.28,5.74-4.47,8-9.09,10.14a5,5,0,0,0-2.47,2.19,4.29,4.29,0,0,0-.55,1.27c-.87,3.44,3.06,5.42,5.78,5.5a8.67,8.67,0,0,0,7.82-5.52C146.86,64.43,145.5,59.81,145,55.29Zm-2.76,15.17a9.15,9.15,0,0,1-4.84,2.26c-2.44.17-5.38-3.75-2.61-5.38,1.9-1.13,6.24-3.44,6.58-3.7a8.47,8.47,0,0,0,2.9-3.85C144.57,63.67,145,67.72,142.22,70.46Z"/>
                    <path class="cls-2" d="M96.18,65.68c-1,.54,1.33.69,2.53.64,2.21-.1,3.32-.49,4.19,2a5.79,5.79,0,0,1-1.09,5.59c-1.31,1.51-3.59,1.92-5.47,1.83-2.58-.12-3.15-2.07-4-4,0-.1-.18,0-.21,0-.86,2.21.86,4.83,3,5.52a7.22,7.22,0,0,0,8-2C106.9,70.3,103.21,61.75,96.18,65.68Z"/>
                    <path class="cls-2" d="M141,73a.65.65,0,0,0-1.08-.28c-1.19,1.38-1.36,2.74-3.52,2.83a7.12,7.12,0,0,1-4.94-1.82,6,6,0,0,1-1.2-4.92,3.9,3.9,0,0,1,1.1-2c1.29-1.29,3-.88,4.49-.36.81.27,1.26-.93.56-1.36a5.78,5.78,0,0,0-8,1.56c-1.49,2.23-.72,5.55.87,7.48a9.66,9.66,0,0,0,7.16,3.47C138.71,77.62,141.89,75.6,141,73Z"/>
                    <path class="cls-2" d="M161.54,63.8c-1,1.92-2.11,3.88-4.63,3.22-1.79-.47-2.79-2.37-3.22-4-1-3.59,1.84-8.52,5.83-5.32a.84.84,0,0,0,1.31-1c-1.39-2.55-5.13-2.46-7.2-.9-2.28,1.7-2.58,4.8-2.15,7.4a7.49,7.49,0,0,0,5.34,6.07c3.18.8,5.84-2.17,6.14-5.07C163,63.42,161.88,63.16,161.54,63.8Z"/>
                    <path class="cls-2" d="M79.33,58c-1.1-2.64-4.32-4.24-6.92-2.53a.2.2,0,0,0,0,.34c1.69.82,3.33-.44,5,1.14s1.67,4,1.13,6A5.65,5.65,0,0,1,75,67c-2.12.67-4.33-1.37-4.46-3.34a.74.74,0,0,0-1.1-.63c-2.45,1.34,1,4.38,2.26,5.14a5.12,5.12,0,0,0,6.57-1.78A8.73,8.73,0,0,0,79.33,58Z"/>
                    <path class="cls-2" d="M100.33,66.32a.65.65,0,0,0-.64-.64c-1.17-.06-2.34,0-3.51,0-.18-1.39-.9-2-2.55-1.65-2.7.59-3.83-.58-4.89-2.86A13.12,13.12,0,0,0,85.25,57a3.58,3.58,0,0,1-.49-.43c-.06-.07-.17,0-.12.08s.16.56.22.65l.39.58c1.29,3,1.44,6.43,2.54,9.55A11.21,11.21,0,0,0,92.68,73a5.81,5.81,0,0,0,6-.11C101,71.57,100.4,68.43,100.33,66.32Zm-5.7,6.14c-2.46-.39-3.86-2.85-5-4.85-1.51-2.53-1.91-5.49-2.89-8.19a15.55,15.55,0,0,1,.79,1.71c.57,1.14.75,2.64,1.74,3.52a3.38,3.38,0,0,0,2.25,1.15c.87,0,3.4-1.14,3.45.52a.66.66,0,0,0,.65.65c1.18.06,2.35,0,3.52,0,0,.62.07,1.24.11,1.86C99.34,71.41,97,72.84,94.63,72.46Z"/>
                    <path class="cls-2" d="M156,62.66a10.08,10.08,0,0,0,3.29,2,5.26,5.26,0,0,0,6.8-2c1.38-2.4,1.27-5.49,1.18-8.47a18.25,18.25,0,0,1,4.63-13.38c.43-.51-.2-1.53-.73-1.14-3,2.2-6.13,4.66-7,9.18-.72,3.85-1.05,8.07-5.13,7.81a4.18,4.18,0,0,0-3,.76A3.49,3.49,0,0,0,156,62.66Zm8.7-.41a5.29,5.29,0,0,1-1.81,1.14,10.58,10.58,0,0,1-3.51-.44,7.93,7.93,0,0,1-2.11-1.11c-.51-2.84.1-4,1.85-3.58,1.31.1,3,.17,3.85-1.16,1.3-2,1.67-4.07,2.11-6.61a12.72,12.72,0,0,1,3.1-6.64A19.81,19.81,0,0,0,166,54.14C166.1,56.73,166.46,60.51,164.71,62.25Z"/>
                    <g>
                        <g>
                            <path class="cls-49" d="M112.73,37.36a5.35,5.35,0,0,1,2.15-.64c1.25-.09,3.78-.06,4.16.39s.53,2.17.85,2.67A3,3,0,0,0,123,41.12c1.8-.33,2.85-.19,2,.46a10.65,10.65,0,0,1-5.49,1c-1.34-.28-1.92-.36-1.92-.36a3.1,3.1,0,0,1,.14,1.24c-.12.3-.26,1-.88,1a22.15,22.15,0,0,1-4.84-.74A32.25,32.25,0,0,1,106.32,46c-.4,0-3.41-.53-3.3-2.47-.59.11-3.6,1.09-4.14.48s1.41-2.41,2-2.56c-1.08.16-4.38.7-4.89-.89a8.16,8.16,0,0,0,5.91-1.46c1.82-1.53,3.23-2.33,4.58-2.38a7.46,7.46,0,0,1,4.56.81c.46-.52,0-.74,0-.74s-3.25-1.28-5.36-.43-5.56,3.47-7.23,3.58a2.94,2.94,0,0,1-2.24-.48c-.62-.21-4,.24-3.15,1.6s1.71,1.07,1.71,1.07-2.54.57-2.29.83-.4,1.25,4.37-.61A18.92,18.92,0,0,1,94.22,45s4-.11,4.2-.13-1.55.89-.73,1.15a2.84,2.84,0,0,0,3.15-1c.54,1,2.3,1.63,3.67,1.89.55.5.94.83.94.83l.85-.71a28.29,28.29,0,0,0,4.88-1.44c1,.64,2.07,1.15,2.55.68s-.75-1.14-.75-1.14,4.22.29,5.18,1.06c.16-.64,1.56-2.1,2-2s3,1,3.7.55-1.25-1.2-1.25-1.2,3.77-.31,4.49-1.12,1-2.23-.56-2.33a13.86,13.86,0,0,0-3.63.63c-.8.07-2.2-.53-2.63-2.78S115.07,36,114,36.44,112.73,37.36,112.73,37.36Z"/>
                            <path class="cls-49" d="M110.61,37.69a20.92,20.92,0,0,0-5.49,1.57c-1.79,1-3.63,1.71-2.46,3s3.43,1.64,5.66,1.53,6.58-.48,8.05-2,.52-3.73-3.38-4.09c-1.18-.08-.26.48-.26.48s2.55.4,2.59,1.36.91,2.74-3.66,3.07-5.79.09-6.59-.58-.68-2.17,3.14-3.23c-.7.61-2.45,2-.7,2.76a6.06,6.06,0,0,0,4.21.18c.91-.23,2.8-1,2.63-2.35.1-.37-1.35-1.05-1.87-1.09s.39.33.79.6a1.08,1.08,0,0,1-.27,1.77,6.65,6.65,0,0,1-4.28.63c-1.26-.45-1-1.5.34-2.6a3.45,3.45,0,0,1,1.52-.36s-1.22.55-1,1.38,1.17.66,1.65.49,1.42-1.06.84-1.67A3.28,3.28,0,0,0,110.61,37.69Z"/>
                        </g>
                        <path class="cls-49" d="M132.86,38.44c-.38.21,2.08.1,2.72-.25s.67-1.95.67-1.95a14.71,14.71,0,0,0,3.44.09c1.95-.18,2.81-1,2-1.6s1-.77,1-.77,3.6-.69,3.11-.82-4.33-.85-4.33-.85,2-1.85,1.46-1.8-4.38.16-4.67.41.07-1.68-3-1.6a1.27,1.27,0,0,1-1.17,1.38c-1,.12-7.5.44-8.53.83s-1.57,1-1.39,1.29a3.57,3.57,0,0,0,1.79.57c.63-.13-2.08.19-2.32-.2S123,31.33,125.85,31s7.75-.6,8.15-.89.29-.68-.42-.65-.34-.7,1.88-.75,3.86,0,4,.27a2.53,2.53,0,0,1,.22,1s4.15-.15,5.59-.24c-.34.61-1,2-1,2a10,10,0,0,1,4.28.86,4.75,4.75,0,0,1,2,.29l-1.87.42a5.17,5.17,0,0,1-2.09.87c.86.22,1.93,1,1.11,1.17a11.43,11.43,0,0,1-3.28-.7s.53,1.46.19,1.85-2.95.67-4.61.6-1.61.54-1.74,1-3.44,1.75-6,1-1.43-.6-1.43-.6,1.41-.46,1.61-.55.22-.6-1.58-.8-5.95-.13-7.23-.61-1.65-1.9-.5-2.53c1.07-.13.62.63.53,1s-.24,1,1.13,1.16,6.25.17,7,.54S134.32,37.61,132.86,38.44Z"/>
                        <path class="cls-49" d="M124.64,33.92a3.53,3.53,0,0,1,1.46.24,12.32,12.32,0,0,0,6.89,2c3.72-.08,9.07-1,8.56-3s-5.23-1.9-8.22-1.56a61.81,61.81,0,0,0-7.86,1.7c-1.37.32.85.27,1.38.19a31.8,31.8,0,0,1,4.06-1.13c1.61-.22,6.11-.62,7.05-.34s2.07.83,1.76,1.5-4.08,2-6.95,1.84a17,17,0,0,1-5.52-1.07c-.08-.14,1.05,0,1.86.18a12.8,12.8,0,0,0,4.94.16c2.18-.41,3-1.18,2.32-1.56a10.61,10.61,0,0,0-4-.59,36.21,36.21,0,0,0-4.23.82l.43.18a14.63,14.63,0,0,1,2.48-.52c.85,0,3.62-.21,4.13.22s0,.95-1.08,1.12-4.05.28-4.75-.09.47-.09,1.4-.11,3,0,2.81-.5-2.73-.44-3.39-.27a5,5,0,0,1-2,.33,5.05,5.05,0,0,0-2.17.12A4.5,4.5,0,0,1,124.64,33.92Z"/>
                        <path class="cls-49" d="M139.27,38a2.26,2.26,0,0,0,1.88.94c1.25,0,.92-1.06-.49-1.34S139,37.7,139.27,38Z"/>
                        <path class="cls-49" d="M145.22,31.44c.38-.28,1.48-1.07,2.41-.72s.69.59-.38.72S145,31.62,145.22,31.44Z"/>
                        <path class="cls-49" d="M140.21,29.49c.47-.47,1.23-1.2,1.89-1s.22,1-.71,1.1S140,29.74,140.21,29.49Z"/>
                        <path class="cls-49" d="M129.16,27.36c0-.15-.33-.74-1.39-.68s-3.17.27-3.17.27l.5-1.65s-1.77.55-2.33.2-2.28-1.81-2.28-1.81A19.75,19.75,0,0,1,118,25.21c-.3,0-3.91-.35-3.91-.35a15.05,15.05,0,0,1-1.63,1.73c-.2,0-2.91-.57-3.72-.17s-.7.91-1.06.87-2.64-1-.51-1.69a10.31,10.31,0,0,1,4.6-.17l1.58-1.65,3.66.71s2.95-2.12,4.14-2,2,2.21,2,2.21,3.33-1.06,3.69-.8-.16,2.1-.16,2.1,4.54-.28,4.5.56S129.49,28.53,129.16,27.36Z"/>
                        <path class="cls-49" d="M129.51,26.9c-2.35.06-3.46.48-4.18,2-.93,1.94-5.18,1.86-7.23,1,0,0,0,0,0,0,1,1.12,3.39,1.09,5.09.7a4.36,4.36,0,0,0,2.49-1.27,5.21,5.21,0,0,0,.56-1.07c.5-1,2.13-1,3.34-1.17C129.82,27.14,129.75,26.89,129.51,26.9Z"/>
                        <path class="cls-49" d="M118,29.91c-1.25,0-2.4.4-3.65.46-1.78.09-4-.43-3.69-1.95.1-.47.44-1.2-.22-1.53a4.18,4.18,0,0,0-2.65-.06c-.22,0-.2.25,0,.25.6,0,1.19-.09,1.79-.07,1.1,0,.61,1.47.67,2s.61.95,1.21,1.22c1.87.82,4.53-.18,6.52-.21C118,30,118,29.91,118,29.91Z"/>
                        <path class="cls-49" d="M107.39,33.15a.1.1,0,0,0-.17,0,2.8,2.8,0,0,1-1.34,1.89,8.71,8.71,0,0,1-3.45,1,31.27,31.27,0,0,1-5.32-.18c-1.94-.11-4.51.42-4.93,2,0,.15.31.16.41,0A3.49,3.49,0,0,1,94.5,36.4a8.36,8.36,0,0,1,2.81-.17,39.6,39.6,0,0,0,5.13.15C104.78,36.2,108.24,35,107.39,33.15Z"/>
                        <path class="cls-49" d="M109.22,30.72c-2-1.38-5.66.33-6.36-2.24,0-.15-.38-.11-.43,0-.42,1.22,1.08,1.87,2.57,2,.93.08,1.88,0,2.81.09,2.62.27.11,1.65-.53,2.26-.06.05,0,.12.1.1C108.37,32.75,110.24,31.41,109.22,30.72Z"/>
                        <path class="cls-49" d="M117.39,30.29c-1.58.48-3,1.17-4.6,1.71s-3.48.53-5.14,1.07c-.11,0-.08.14,0,.14a20.54,20.54,0,0,0,5.28-.88,17.06,17.06,0,0,0,4.47-2S117.43,30.28,117.39,30.29Z"/>
                        <path class="cls-49" d="M111.09,34.18c-.5-.36-2.17-1.19-2.91-.56,0,0,0,0,0,0a6.81,6.81,0,0,0,1.17.19,4.36,4.36,0,0,1,1.66.86,3.09,3.09,0,0,1,1.28,2.56c0,.21.48.16.5,0A3.42,3.42,0,0,0,111.09,34.18Z"/>
                        <path class="cls-49" d="M123.24,33.78c-3.09-.24-9.06.84-10.5,3.07,0,0,0,0,.08,0,2.88-2.11,6.6-2.4,10.42-2.85C123.44,34,123.46,33.8,123.24,33.78Z"/>
                        <path class="cls-49" d="M120.9,32.83A3.23,3.23,0,0,1,118,30.2c0-.18-.42-.14-.4,0a3.45,3.45,0,0,0,1.93,2.39,4.2,4.2,0,0,0,1.66.43c.83.08,1.64.14,2.48.24,0,0,0,0,0,0C123,32.79,121.76,32.92,120.9,32.83Z"/>
                        <path class="cls-49" d="M116.82,31.27a13.78,13.78,0,0,0-2.47,1.11,13.13,13.13,0,0,1-4.15,1c-.06,0-.07.07,0,.07,2.17.19,5.5-.74,6.72-2.06C117,31.31,116.9,31.26,116.82,31.27Z"/>
                        <path class="cls-49" d="M120.61,33.47a6.89,6.89,0,0,0-1.85-.54c-.76-.23-1.15-.76-1.87-1,0,0-.08,0-.06,0a2.64,2.64,0,0,0,1.28,1.2,6.17,6.17,0,0,0,2.27.57C120.56,33.73,120.77,33.59,120.61,33.47Z"/>
                        <path class="cls-49" d="M118.66,33.51c-2,0-4,1.31-5.5,2.21,0,0,0,0,0,0a7.9,7.9,0,0,0,2.17-.8,11.41,11.41,0,0,1,3.38-1.06C119.07,33.82,119,33.5,118.66,33.51Z"/>
                        <path class="cls-49" d="M113.06,34.09a1.23,1.23,0,0,0-1.37-.34,0,0,0,0,0,0,0c.19.09.41.12.6.21a.92.92,0,0,1,.45.44c.16.3.15.7.49.93a.24.24,0,0,0,.34-.13A2,2,0,0,0,113.06,34.09Z"/>
                        <path class="cls-49" d="M139.18,26.08c-.37-.77-2.32-.83-2.71-.19,0,.06.06.1.13.08l.54-.11c-.39.3.2.84.74,1C138.65,27.13,139.44,26.63,139.18,26.08Zm-1.07.58c-.38-.05-1.14-.53-.61-.72a.7.7,0,0,1,.43,0c.13.07,0,.16.12.26a.2.2,0,0,0,.15.05c.25,0,.24-.25.11-.39a.89.89,0,0,1,.46.25C139,26.42,138.54,26.72,138.11,26.66Z"/>
                        <path class="cls-49" d="M139,42.66a.29.29,0,0,0-.23,0c-.32.24.07.59-.19.87a2.77,2.77,0,0,1-1.93.41c-.78-.12-1-.7-.65-1.07a.79.79,0,0,1,1,0c.17.17-.1.24-.33.25l0-.07a.3.3,0,0,0-.28,0c-.2.09-.22.14-.26.29s.09.19.23.21a1.5,1.5,0,0,0,1.32-.26c.22-.24.09-.58-.27-.76-1.13-.58-2.3.14-2.21.86.12,1,1.66,1.25,3,1a1.81,1.81,0,0,0,1.32-.78A.62.62,0,0,0,139,42.66Z"/>
                        <path class="cls-49" d="M83.25,41.91a2.62,2.62,0,0,1-1.43.71,3,3,0,0,1-1.58-.12c-.45-.21-.32-.65.21-.93a2,2,0,0,1,1-.21c.61,0,0,.81-.27.49-.08-.09-.29,0-.37.07-.27.37.16.56.71.42.7-.18,1-.7.87-1.05s-.74-.43-1.28-.36a2.7,2.7,0,0,0-1.65.81c-1.54,1.71,3.84,1.9,4.36.27C83.88,41.82,83.45,41.75,83.25,41.91Z"/>
                        <path class="cls-49" d="M100.63,24.76a2,2,0,0,0-1.33,0,1.78,1.78,0,0,0-1,.75.54.54,0,0,0,0,.48.77.77,0,0,0,.57.43c.25,0,.49-.1.38-.29s-.35-.25-.37-.44.23-.36.48-.46c-.22.19-.32.46-.17.66.32.43,1.14.34,1.6-.06A.61.61,0,0,0,100.63,24.76Zm-.2.67a.56.56,0,0,1-.66.26c-.31-.1.17-.32.3-.4s.12-.13.09-.19C100.36,25.13,100.5,25.23,100.43,25.43Z"/>
                        <path class="cls-49" d="M129,24.42c-.27.16-.54.34-.79.52s-.58.43-.49.68a.29.29,0,0,0,.29.15,1.76,1.76,0,0,0,.68-.39,8.77,8.77,0,0,1,.84-.49C129.9,24.67,129.35,24.17,129,24.42Z"/>
                        <path class="cls-49" d="M124.2,22.89a3,3,0,0,0-.32.39,1.26,1.26,0,0,0-.26.48c0,.18.28.35.48.21a7.36,7.36,0,0,0,.77-.7C125.2,23,124.5,22.56,124.2,22.89Z"/>
                        <path class="cls-49" d="M116.77,23.66a4.85,4.85,0,0,0-.72-.79c-.2-.13-.46.06-.4.22s.25.59.37.88S117.14,24.05,116.77,23.66Z"/>
                        <path class="cls-49" d="M111,24.48l-.13-.06-.18-.1a3.28,3.28,0,0,0-.5-.22,1.24,1.24,0,0,0-.51-.05c-.14,0-.35.14-.29.25s.13.12.23.16a1.69,1.69,0,0,1,.31.21,1.53,1.53,0,0,0,.69.37C111.05,25.12,111.37,24.66,111,24.48Z"/>
                        <path class="cls-49" d="M98.14,28.2c0-.17-.36-.34-.51-.45A1.24,1.24,0,0,0,97,27.4c-.2,0-.38.09-.4.24s.22.38.37.54.35.41.65.45S98.18,28.41,98.14,28.2Z"/>
                        <path class="cls-49" d="M90.57,29.78a13.06,13.06,0,0,0-1.43-.39c-.16,0-.39.12-.33.24a1.87,1.87,0,0,0,1.33.78C90.74,30.54,91.17,29.9,90.57,29.78Z"/>
                        <path class="cls-49" d="M85.11,33.52a7.83,7.83,0,0,0-1.58.23c-.2.07-.27.24-.11.3a4.54,4.54,0,0,0,1.61,0C85.57,34,85.65,33.46,85.11,33.52Z"/>
                        <path class="cls-49" d="M86.75,36.1a1.69,1.69,0,0,0-1.08.18,1.39,1.39,0,0,0-.79.59c0,.13,0,.24.25.22a2.75,2.75,0,0,0,.79-.23,5.45,5.45,0,0,0,.86-.31C87,36.4,87,36.17,86.75,36.1Z"/>
                        <path class="cls-49" d="M122,25.53a5.81,5.81,0,0,0-3.3-.33c-1.67.16-5,.43-5,2.13,0,1.29,1.68,2.29,3.46,2.2.23,0,.3-.27.08-.32-1.12-.26-2.33-.82-2.51-1.72-.23-1.16,2.42-1.33,3.45-1.48,1.64-.24,3.79-.36,4.13,1.17.22,1-1.24,1.43-2.51,1.72.06-.1-.06-.22-.24-.17a3,3,0,0,0-.94.45c-.17.1-.21.35.06.41,1.89.37,4.57-.83,4.64-2.23A2.17,2.17,0,0,0,122,25.53Z"/>
                        <path class="cls-49" d="M118.68,26.24a5.39,5.39,0,0,0-3.18,1.22c-.88,1,.6,1.47,1.68,1.73.17,0,.28-.1.16-.18-.64-.44-2.06-.76-1.11-1.5a5.46,5.46,0,0,1,2.33-.78c.75-.11,2.24-.18,2.14.68-.08.65-1.25,1.19-1.71,1.72,0,0,0,.09.08.06.91-.5,2.24-1.12,2.19-2S119.58,26.16,118.68,26.24Z"/>
                        <path class="cls-49" d="M117.83,27.82c-.06.18-.26,1.27.3,1.14.25-.05.3-.27.38-.42s.15-.36.24-.54C119,27.53,118,27.33,117.83,27.82Z"/>
                        <path class="cls-49" d="M104.89,28.57c-.16-.17-3-1.39-4.31-.74A27.06,27.06,0,0,1,98,28.9s-4.15-.62-4.42-.58-1.54,2.07-1.87,2.27-7.24.66-7.68.69,2.21,1.56,3.27,2c-.81.61-3.17,1.74-3.14,1.87a15.55,15.55,0,0,0,3.83.52,1.71,1.71,0,0,0,1.35,2.41A18.93,18.93,0,0,0,94,37.69c-.42-.08-3.63-.44-3.87-1s2.69-1.55,2.24-1.51a8.51,8.51,0,0,1-3.2,0c-1.09-.34-1.86-.33-1.63-.41s2.5-1.77,3-1.72S88.38,32.26,88,32s3.83-.5,4.7-.61.94-1,1.85-1.48,3.85.61,4.06.57,1.28-1.71,2.06-1.76S104.89,28.57,104.89,28.57Z"/>
                        <path class="cls-49" d="M105.47,32.87a7.7,7.7,0,0,0-6-2.33c-2.49,0-5.81.33-7.54,2.07s1,3,3.12,3.07a22,22,0,0,0,4.4-.51,13.51,13.51,0,0,0,4.73-1.47s0-.09,0-.06a30.39,30.39,0,0,1-6.58,1.25c-2,.22-7-.21-4.28-2.37,1.44-1.16,4.68-1.29,6.46-1.24A8.3,8.3,0,0,1,105,33.1C105.21,33.28,105.65,33.07,105.47,32.87Z"/>
                        <path class="cls-49" d="M104,33.52a18.61,18.61,0,0,1-6.94,0c-.92-.25-1.32-.94,0-1.37a6.91,6.91,0,0,1,2.81-.22c1.26.11,2.25.62,3.47.8,0,0,.06,0,0,0a9.25,9.25,0,0,0-2.41-1.14,10.09,10.09,0,0,0-2.72-.2c-1.21.05-3.45.6-3.09,1.74s2,1.3,3.45,1.37a14.22,14.22,0,0,0,5.51-.72C104.26,33.68,104.18,33.5,104,33.52Z"/>
                        <path class="cls-49" d="M103.34,32.75s0,0,0,0a.29.29,0,0,1,.11.06h0S103.39,32.77,103.34,32.75Z"/>
                        <path class="cls-49" d="M103.06,33.15a25.48,25.48,0,0,0-2.84-.49c-.71-.12-1.54-.45-2.23,0a.21.21,0,0,0-.1.24c.21.52,1.31.47,2,.57a8.7,8.7,0,0,0,3.1.07C103.25,33.48,103.28,33.21,103.06,33.15Z"/>
                    </g>
                </g>
            </g>
        </g>
    </g>
</svg>