<?xml version="1.0" encoding="UTF-8"?>
<svg width="282px" height="69px" viewBox="0 0 282 69" version="1.1" xmlns="http://www.w3.org/2000/svg" xmlns:xlink="http://www.w3.org/1999/xlink">
    <!-- Generator: Sketch 49.3 (51167) - http://www.bohemiancoding.com/sketch -->
    <title>Group</title>
    <desc>Created with Sketch.</desc>
    <defs></defs>
    <g id="Page-1" stroke="none" stroke-width="1" fill="none" fill-rule="evenodd">
        <g id="Artboard" transform="translate(-95.000000, -116.000000)">
            <g id="Group" transform="translate(95.000000, 111.000000)">
                <rect id="Rectangle" fill="#FFFFFF" x="0" y="5" width="282" height="69" rx="10"></rect>
                <path d="M14,61.36 C13.4399972,61.36 13.0100015,61.1900017 12.71,60.85 C12.4099985,60.5099983 12.2999996,60.0800026 12.38,59.56 L14.6,51.64 C14.6400002,51.4799992 14.66,51.2600014 14.66,50.98 C14.66,50.6999986 14.6400002,50.5000006 14.6,50.38 L14.24,48.82 C14.1199994,48.2999974 13.9300013,47.4500059 13.67,46.27 C13.4099987,45.0899941 13.2000008,44.0400046 13.04,43.12 C12.7599986,41.8799938 12.320003,39.2700199 11.72,35.29 C11.119997,31.3099801 10.6000022,27.7400158 10.16,24.58 L9.86,22.72 C9.4199978,20.2399876 9.2,18.5200048 9.2,17.56 C9.2,16.759996 9.299999,16.2400012 9.5,16 C9.700001,15.799999 9.999998,15.7 10.4,15.7 C10.7200016,15.7 11.0499983,15.7499995 11.39,15.85 C11.7300017,15.9500005 11.999999,16.0799992 12.2,16.24 C12.4400012,16.4800012 12.56,16.8799972 12.56,17.44 L12.5,18.64 C12.5,18.840001 12.7399976,20.2999864 13.22,23.02 L13.82,26.92 C13.7799998,28.0800058 13.8299993,29.259994 13.97,30.46 C14.1100007,31.660006 14.3399984,33.0999916 14.66,34.78 C14.7400004,35.1000016 14.8199996,35.4999976 14.9,35.98 C15.1400012,37.380007 15.3799988,39.3999868 15.62,42.04 C15.6600002,42.5200024 15.7199996,43.0799968 15.8,43.72 L15.98,45.16 C16.380002,43.1199898 16.7199986,40.6600144 17,37.78 C17,37.4599984 17.0399996,37.0200028 17.12,36.46 C17.3600012,34.0999882 17.6399984,30.7000222 17.96,26.26 C18.0400004,25.5799966 18.1199996,24.3600088 18.2,22.6 L18.32,20.44 C18.4000004,19.8799972 18.44,19.3400026 18.44,18.82 C18.44,18.6999994 18.4499999,18.4100023 18.47,17.95 C18.4900001,17.4899977 18.5399996,17.1000016 18.62,16.78 C18.7000004,16.4599984 18.8199992,16.200001 18.98,16 C19.2200012,15.6399982 19.639997,15.46 20.24,15.46 C20.9600036,15.46 21.5599976,15.659998 22.04,16.06 C22.3200014,16.3000012 22.46,16.6999972 22.46,17.26 C22.46,17.6200018 22.4400002,17.9499985 22.4,18.25 C22.3599998,18.5500015 22.3200002,18.8199988 22.28,19.06 C22.0399988,21.1400104 21.7800014,23.6399854 21.5,26.56 L20.78,33.22 C20.6599994,34.1400046 20.4800012,35.59999 20.24,37.6 C19.639997,43.1200276 19.1000024,47.1199876 18.62,49.6 C18.4599992,50.6400052 18.0600032,52.4799868 17.42,55.12 C16.7799968,57.7600132 16.3800008,59.279998 16.22,59.68 C16.0999994,60.1600024 15.840002,60.5599984 15.44,60.88 C15.039998,61.2000016 14.5600028,61.36 14,61.36 Z M27.24,61.42 C26.7199974,59.2999894 26.46,56.3600188 26.46,52.6 L26.58,47.26 C26.6600004,45.659992 26.7,43.8800098 26.7,41.92 C26.4599988,41.3599972 26.34,40.8600022 26.34,40.42 L26.34,40.24 C26.740002,39.4799962 26.94,37.7600134 26.94,35.08 L27,32.32 C27.0400002,31.4399956 27.06,30.4600054 27.06,29.38 C27.06,27.0199882 26.9000016,25.1600068 26.58,23.8 C26.7000006,23.2399972 26.8999986,22.7500021 27.18,22.33 C27.4600014,21.9099979 27.799998,21.7 28.2,21.7 L30.84,21.7 C31.9600056,21.7 32.9399958,21.9499975 33.78,22.45 C34.6200042,22.9500025 35.2599978,23.6599954 35.7,24.58 C36.500004,26.2200082 36.9,28.1599888 36.9,30.4 C36.9,32.000008 36.8800002,33.2599954 36.84,34.18 C36.7599996,35.3400058 36.5600016,36.3999952 36.24,37.36 C36.1199994,37.8800026 35.9500011,38.3099983 35.73,38.65 C35.5099989,38.9900017 35.200002,39.3999976 34.8,39.88 C34.2399972,40.5600034 33.3200064,41.199997 32.04,41.8 C31.5199974,42.0800014 30.8400042,42.3399988 30,42.58 L30,49 L30.12,52.84 L30.24,54.7 C30.4000008,56.9400112 30.48,58.8399922 30.48,60.4 C30.48,60.8800024 30.280002,61.2899983 29.88,61.63 C29.479998,61.9700017 29.0200026,62.14 28.5,62.14 L27.24,61.42 Z M30.06,40.12 C32.4200118,39.7599982 33.6,36.380032 33.6,29.98 C33.6,28.8199942 33.5400006,27.9200032 33.42,27.28 C33.2999994,26.7999976 33.140001,26.4100015 32.94,26.11 C32.739999,25.8099985 32.440002,25.560001 32.04,25.36 C31.5999978,25.1199988 31.1200026,25 30.6,25 C30.6,24.9599998 30.3800022,24.94 29.94,24.94 L29.94,28.36 C29.94,30.7200118 29.9599998,32.8199908 30,34.66 C30,36.7400104 30.0199998,38.0999968 30.06,38.74 L30.06,40.12 Z M43.54,61.6 C43.1799982,61.6 42.8500015,61.4200018 42.55,61.06 C42.2499985,60.6999982 42.1799992,60.3400018 42.34,59.98 C42.4600006,59.6199982 42.7399978,59.0200042 43.18,58.18 C44.4200062,56.1399898 45.239998,53.3800174 45.64,49.9 C45.6800002,49.6599988 45.5300017,49.3500019 45.19,48.97 C44.8499983,48.5899981 44.6400004,48.300001 44.56,48.1 L43.72,46.9 C42.8799958,45.7399942 42.1900027,44.6700049 41.65,43.69 C41.1099973,42.7099951 40.6000024,41.4000082 40.12,39.76 C39.919999,39.0799966 39.7800004,38.3500039 39.7,37.57 C39.6199996,36.7899961 39.58,36.300001 39.58,36.1 L39.46,34.72 C39.4199998,34.0399966 39.3600004,33.4300027 39.28,32.89 C39.1999996,32.3499973 39.1400002,31.9000018 39.1,31.54 C38.7399982,29.2199884 38.56,27.3200074 38.56,25.84 C38.56,25.2799972 38.5799998,24.8600014 38.62,24.58 C38.6600002,23.979997 38.6700001,23.4400024 38.65,22.96 C38.6299999,22.4799976 38.62,22.0800016 38.62,21.76 C38.6600002,20.959996 38.9399974,20.56 39.46,20.56 C39.5800006,20.56 39.7999984,20.5999996 40.12,20.68 C41.6000074,21.1200022 42.34,21.9599938 42.34,23.2 C42.34,23.5200016 42.3000004,24.1199956 42.22,25 L42.04,27.46 C42.04,28.5800056 42.0599998,29.4199972 42.1,29.98 C42.4200016,33.3000166 42.779998,36.5799838 43.18,39.82 C43.3000006,40.7000044 43.5899977,41.5099963 44.05,42.25 C44.5100023,42.9900037 44.9899975,43.5899977 45.49,44.05 C45.9900025,44.5100023 46.2799996,44.74 46.36,44.74 C46.6000012,44.0199964 46.7399998,43.5400012 46.78,43.3 C47.0200012,39.7399822 47.1599998,37.1200084 47.2,35.44 C47.2400002,34.039993 47.26,31.7200162 47.26,28.48 L47.26,21.46 C47.3000002,21.1399984 47.3899993,20.9100007 47.53,20.77 C47.6700007,20.6299993 47.9199982,20.56 48.28,20.56 C49.080004,20.56 49.7399974,20.8499971 50.26,21.43 C50.7800026,22.0100029 50.9800006,22.699996 50.86,23.5 C50.7399994,24.4600048 50.68,25.739992 50.68,27.34 C50.68,28.3000048 50.6999998,28.9599982 50.74,29.32 C50.7800002,29.6800018 50.8,30.1799968 50.8,30.82 C50.8,31.820005 50.7200008,33.2399908 50.56,35.08 C50.56,35.5200022 50.5200004,36.2199952 50.44,37.18 C50.3599996,38.380006 50.1600016,40.2199876 49.84,42.7 L49.6,44.68 C49.3599988,47.080012 48.8800036,50.0399824 48.16,53.56 C47.9199988,54.6800056 47.5600024,55.8499939 47.08,57.07 C46.5999976,58.2900061 46.060003,59.4199948 45.46,60.46 C45.3399994,60.7400014 45.080002,60.9999988 44.68,61.24 C44.279998,61.4800012 43.9000018,61.6 43.54,61.6 Z M62.96,61.84 C62.0799956,61.84 61.1500049,61.7100013 60.17,61.45 C59.1899951,61.1899987 58.4400026,60.9000016 57.92,60.58 C55.2399866,58.8599914 53.9,54.1600384 53.9,46.48 L53.9,41.56 C53.9,39.959992 53.9199998,38.5300063 53.96,37.27 C54.0000002,36.0099937 54.0799994,34.6400074 54.2,33.16 C54.3200006,31.5999922 54.4999988,30.3300049 54.74,29.35 C54.9800012,28.3699951 55.3799972,27.2600062 55.94,26.02 C56.4200024,24.8599942 57.0099965,23.9600032 57.71,23.32 C58.4100035,22.6799968 59.3199944,22.1400022 60.44,21.7 C61.440005,21.2599978 62.6799926,21.04 64.16,21.04 C64.760003,21.04 65.2199984,21.1799986 65.54,21.46 C65.8600016,21.7400014 66.02,22.0999978 66.02,22.54 C66.02,22.940002 65.8900013,23.2999984 65.63,23.62 C65.3699987,23.9400016 65.0600018,24.1199998 64.7,24.16 L61.88,24.16 C61.079996,24.16 60.380003,24.659995 59.78,25.66 C59.179997,26.660005 58.7600012,27.959992 58.52,29.56 C57.9999974,32.5200148 57.74,34.9199908 57.74,36.76 L57.74,37.06 L57.62,42.82 C57.5399996,44.5400086 57.5,46.4799892 57.5,48.64 C57.5,50.1600076 57.5599994,51.3999952 57.68,52.36 C57.880001,53.8000072 58.2199976,54.9999952 58.7,55.96 C59.1800024,57.0400054 59.9999942,57.8199976 61.16,58.3 C61.760003,58.5400012 62.4199964,58.66 63.14,58.66 C63.5800022,58.66 64.0199978,58.5000016 64.46,58.18 C64.9800026,58.18 65.4099983,58.2899989 65.75,58.51 C66.0900017,58.7300011 66.26,59.0599978 66.26,59.5 C66.26,61.0600078 65.160011,61.84 62.96,61.84 Z M77.7,61.84 C76.8199956,61.84 75.8900049,61.7100013 74.91,61.45 C73.9299951,61.1899987 73.1800026,60.9000016 72.66,60.58 C69.9799866,58.8599914 68.64,54.1600384 68.64,46.48 L68.64,41.56 C68.64,39.959992 68.6599998,38.5300063 68.7,37.27 C68.7400002,36.0099937 68.8199994,34.6400074 68.94,33.16 C69.0600006,31.5999922 69.2399988,30.3300049 69.48,29.35 C69.7200012,28.3699951 70.1199972,27.2600062 70.68,26.02 C71.1600024,24.8599942 71.7499965,23.9600032 72.45,23.32 C73.1500035,22.6799968 74.0599944,22.1400022 75.18,21.7 C76.180005,21.2599978 77.4199926,21.04 78.9,21.04 C79.500003,21.04 79.9599984,21.1799986 80.28,21.46 C80.6000016,21.7400014 80.76,22.0999978 80.76,22.54 C80.76,22.940002 80.6300013,23.2999984 80.37,23.62 C80.1099987,23.9400016 79.8000018,24.1199998 79.44,24.16 L76.62,24.16 C75.819996,24.16 75.120003,24.659995 74.52,25.66 C73.919997,26.660005 73.5000012,27.959992 73.26,29.56 C72.7399974,32.5200148 72.48,34.9199908 72.48,36.76 L72.48,37.06 L72.36,42.82 C72.2799996,44.5400086 72.24,46.4799892 72.24,48.64 C72.24,50.1600076 72.2999994,51.3999952 72.42,52.36 C72.620001,53.8000072 72.9599976,54.9999952 73.44,55.96 C73.9200024,57.0400054 74.7399942,57.8199976 75.9,58.3 C76.500003,58.5400012 77.1599964,58.66 77.88,58.66 C78.3200022,58.66 78.7599978,58.5000016 79.2,58.18 C79.7200026,58.18 80.1499983,58.2899989 80.49,58.51 C80.8300017,58.7300011 81,59.0599978 81,59.5 C81,61.0600078 79.900011,61.84 77.7,61.84 Z M86.32,60.88 C85.7999974,60.7199992 85.5200002,60.3800026 85.48,59.86 L85.48,58.96 C85.3999996,57.2799916 85.3200004,54.7600168 85.24,51.4 C85.0799992,48.4799854 84.9800002,46.2400078 84.94,44.68 C84.8199994,42.2399878 84.6800008,38.5800244 84.52,33.7 C84.4799998,32.8599958 84.4400002,31.7000074 84.4,30.22 C84.3599998,28.7399926 84.34,27.6200038 84.34,26.86 C84.2999998,26.4199978 84.28,25.800004 84.28,25 C84.28,24.0799954 84.3199996,23.4000022 84.4,22.96 C84.5600008,21.7199938 85.239994,21.1399996 86.44,21.22 C87.5600056,21.22 88.1599996,21.8599936 88.24,23.14 L88.24,23.86 L88.18,38.98 L88.18,49.72 C88.18,50.2800028 88.2199996,50.9299963 88.3,51.67 C88.3800004,52.4100037 88.4399998,52.9399984 88.48,53.26 C88.680001,52.0999942 89.0099977,50.9100061 89.47,49.69 C89.9300023,48.4699939 90.2199994,47.7200014 90.34,47.44 C90.940003,45.9999928 91.3799986,44.8200046 91.66,43.9 C92.6200048,40.8199846 93.8599924,37.0400224 95.38,32.56 C95.7000016,31.6399954 96.059998,30.5200066 96.46,29.2 C97.5400054,25.799983 98.279998,23.600005 98.68,22.6 C99.0400018,21.6399952 99.5799964,21.0400012 100.3,20.8 C100.660002,20.6799994 101.019998,20.62 101.38,20.62 C101.940003,20.62 102.519997,20.7999982 103.12,21.16 L103.12,24.04 C103.12,27.040015 103.179999,30.139984 103.3,33.34 C103.34,34.0200034 103.36,35.0399932 103.36,36.4 L103.36,38.14 C103.36,38.5000018 103.35,38.979997 103.33,39.58 C103.31,40.180003 103.32,40.879996 103.36,41.68 L103.54,57.88 C103.54,58.480003 103.400001,59.1399964 103.12,59.86 C102.999999,60.1800016 102.800001,60.4299991 102.52,60.61 C102.239999,60.7900009 101.940002,60.88 101.62,60.88 C100.499994,60.88 99.94,60.3600052 99.94,59.32 C99.94,58.119994 99.9999994,56.9600056 100.12,55.84 C100.2,54.3199924 100.24,53.160004 100.24,52.36 C100.16,44.4399604 100.060001,38.5200196 99.94,34.6 C99.94,33.999997 99.8600008,33.0200068 99.7,31.66 L99.52,29.5 C99.1599982,29.900002 98.9600002,30.1599994 98.92,30.28 L97.96,33.22 C97.3199968,35.3000104 96.8200018,36.839995 96.46,37.84 L91.24,52.36 L88.54,59.74 C88.2199984,60.5800042 87.7400032,61 87.1,61 C86.9799994,61 86.720002,60.9600004 86.32,60.88 Z M119.3,61 C117.939993,61 117.26,57.700033 117.26,51.1 L117.32,47.68 L117.38,44.92 L117.38,44.14 C117.42,43.8199984 117.44,43.4400022 117.44,43 C117.44,42.9199996 117.380001,42.8200006 117.26,42.7 C117.139999,42.5799994 117.08,42.4800004 117.08,42.4 L117.08,42.34 C116.879999,42.4200004 116.520003,42.46 116,42.46 C115.479997,42.46 114.840004,42.3800008 114.08,42.22 C113.839999,42.1799998 113.200005,42.0800008 112.16,41.92 L112.16,48.82 C112.16,49.8600052 112.219999,51.4999888 112.34,53.74 C112.460001,55.940011 112.52,57.5799946 112.52,58.66 C112.52,59.260003 112.360002,59.7799978 112.04,60.22 C111.719998,60.6600022 111.300003,60.88 110.78,60.88 C110.019996,60.88 109.480002,60.1400074 109.16,58.66 C108.839998,57.1399924 108.68,55.1600122 108.68,52.72 L108.8,47.86 C108.84,46.4999932 108.86,45.0600076 108.86,43.54 L108.86,41.68 C108.86,41.0399968 108.84,40.620001 108.8,40.42 L108.8,40.12 L108.98,36.64 C108.98,35.1199924 108.920001,32.860015 108.8,29.86 C108.679999,26.859985 108.62,24.6000076 108.62,23.08 C108.62,22.5999976 108.779998,22.1800018 109.1,21.82 C109.420002,21.4599982 109.819998,21.28 110.3,21.28 C111.580006,21.28 112.22,22.479988 112.22,24.88 L112.1,32.32 C112.02,34.5600112 111.98,37.0599862 111.98,39.82 C112.580003,40.020001 113.659992,40.12 115.22,40.12 L117.44,40.12 C117.52,39.8799988 117.56,39.6400012 117.56,39.4 C117.56,37.4799904 117.440001,34.6400188 117.2,30.88 C116.919999,27.3599824 116.78,24.500011 116.78,22.3 C116.78,21.8599978 116.949998,21.4900015 117.29,21.19 C117.630002,20.8899985 118.039998,20.74 118.52,20.74 C118.800001,20.74 119.199997,20.839999 119.72,21.04 L120.26,21.28 C120.26,26.9600284 120.459998,34.5399526 120.86,44.02 L121.4,59.2 C121.4,59.7600028 121.190002,60.1999984 120.77,60.52 C120.349998,60.8400016 119.860003,61 119.3,61 Z M134.64,61.84 C133.759996,61.84 132.830005,61.7100013 131.85,61.45 C130.869995,61.1899987 130.120003,60.9000016 129.6,60.58 C126.919987,58.8599914 125.58,54.1600384 125.58,46.48 L125.58,41.56 C125.58,39.959992 125.6,38.5300063 125.64,37.27 C125.68,36.0099937 125.759999,34.6400074 125.88,33.16 C126.000001,31.5999922 126.179999,30.3300049 126.42,29.35 C126.660001,28.3699951 127.059997,27.2600062 127.62,26.02 C128.100002,24.8599942 128.689997,23.9600032 129.39,23.32 C130.090003,22.6799968 130.999994,22.1400022 132.12,21.7 C133.120005,21.2599978 134.359993,21.04 135.84,21.04 C136.440003,21.04 136.899998,21.1799986 137.22,21.46 C137.540002,21.7400014 137.7,22.0999978 137.7,22.54 C137.7,22.940002 137.570001,23.2999984 137.31,23.62 C137.049999,23.9400016 136.740002,24.1199998 136.38,24.16 L133.56,24.16 C132.759996,24.16 132.060003,24.659995 131.46,25.66 C130.859997,26.660005 130.440001,27.959992 130.2,29.56 C129.679997,32.5200148 129.42,34.9199908 129.42,36.76 L129.42,37.06 L129.3,42.82 C129.22,44.5400086 129.18,46.4799892 129.18,48.64 C129.18,50.1600076 129.239999,51.3999952 129.36,52.36 C129.560001,53.8000072 129.899998,54.9999952 130.38,55.96 C130.860002,57.0400054 131.679994,57.8199976 132.84,58.3 C133.440003,58.5400012 134.099996,58.66 134.82,58.66 C135.260002,58.66 135.699998,58.5000016 136.14,58.18 C136.660003,58.18 137.089998,58.2899989 137.43,58.51 C137.770002,58.7300011 137.94,59.0599978 137.94,59.5 C137.94,61.0600078 136.840011,61.84 134.64,61.84 Z M143.8,61.12 C143.639999,61.0799998 143.380002,61.0400002 143.02,61 C142.659998,60.9599998 142.360001,60.8600008 142.12,60.7 C141.519997,60.299998 141.279999,59.6200048 141.4,58.66 L141.46,57.34 C141.620001,55.1799892 141.7,53.5600054 141.7,52.48 C141.7,46.1999686 141.640001,39.8800318 141.52,33.52 C141.52,30.2399836 141.420001,26.7600184 141.22,23.08 C141.18,22.4399968 141.329998,21.9000022 141.67,21.46 C142.010002,21.0199978 142.439997,20.8 142.96,20.8 C143.440002,20.8 143.929998,21.0199978 144.43,21.46 C144.930003,21.9000022 145.16,22.419997 145.12,23.02 C144.839999,24.220006 144.7,26.619982 144.7,30.22 L144.7,35.02 C144.7,35.9000044 144.74,37.2999904 144.82,39.22 C144.940001,39.0599992 145.319997,38.3200066 145.96,37 C146.04,36.8399992 146.179999,36.5900017 146.38,36.25 C146.580001,35.9099983 146.72,35.5600018 146.8,35.2 C148.120007,31.19998 149.199996,28.1200108 150.04,25.96 C150.400002,24.7999942 150.879997,23.8100041 151.48,22.99 C152.080003,22.1699959 152.899995,21.6000016 153.94,21.28 C154.300002,21.1599994 154.789997,21.199999 155.41,21.4 C156.030003,21.600001 156.439999,21.8399986 156.64,22.12 C156.880001,22.4000014 157,22.739998 157,23.14 C157,23.540002 156.870001,23.8999984 156.61,24.22 C156.349999,24.5400016 156.020002,24.7399996 155.62,24.82 C154.619995,24.9800008 153.840003,25.3399972 153.28,25.9 C152.719997,26.4600028 152.310001,27.0499969 152.05,27.67 C151.789999,28.2900031 151.480002,29.2199938 151.12,30.46 L148.72,36.34 C148.599999,36.6200014 148.430001,37.0999966 148.21,37.78 C147.989999,38.4600034 147.780001,38.9799982 147.58,39.34 C147.5,39.4600006 147.380001,39.5799994 147.22,39.7 C147.059999,39.8200006 146.920001,39.9399994 146.8,40.06 C147.080001,39.859999 147.449998,39.9199984 147.91,40.24 C148.370002,40.5600016 148.839998,40.9999972 149.32,41.56 C149.640002,42.2000032 149.869999,42.8999962 150.01,43.66 C150.150001,44.4200038 150.24,44.8599994 150.28,44.98 C150.36,45.6200032 150.44,46.0999984 150.52,46.42 C151.000002,47.7000064 151.339999,48.8699947 151.54,49.93 C151.740001,50.9900053 151.88,52.2399928 151.96,53.68 C152.080001,55.1200072 152.479997,56.3799946 153.16,57.46 C153.360001,57.5000002 153.589999,57.5399998 153.85,57.58 C154.110001,57.6200002 154.399998,57.6599998 154.72,57.7 C155.360003,57.7400002 155.779999,58.1399962 155.98,58.9 C156.02,58.9800004 156.04,59.119999 156.04,59.32 C156.04,59.7600022 155.840002,60.179998 155.44,60.58 C154.839997,61.180003 154.080005,61.48 153.16,61.48 C152.479997,61.48 151.830003,61.3000018 151.21,60.94 C150.589997,60.5799982 150.140001,60.100003 149.86,59.5 C149.619999,59.099998 149.420001,58.5600034 149.26,57.88 C148.979999,56.1599914 148.740001,54.4200088 148.54,52.66 C148.379999,50.2199878 148.210001,48.3700063 148.03,47.11 C147.849999,45.8499937 147.460003,44.6400058 146.86,43.48 C146.699999,43.1999986 146.540001,42.9900007 146.38,42.85 C146.219999,42.7099993 146.000001,42.64 145.72,42.64 C145.479999,42.64 145.180002,42.6999994 144.82,42.82 C144.74,45.7000144 144.7,48.4999864 144.7,51.22 C144.7,52.9400086 144.779999,55.5599824 144.94,59.08 C144.98,59.5200022 144.910001,59.8699987 144.73,60.13 C144.549999,60.3900013 144.240002,60.719998 143.8,61.12 Z M171.98,61.54 C171.059995,61.54 170.380002,61.4000014 169.94,61.12 C169.499998,60.8399986 169.28,60.3200038 169.28,59.56 C169.28,58.359994 169.080002,56.3200144 168.68,53.44 L168.44,52.18 L162.5,51.28 C162.259999,52.2000046 161.920002,54.059986 161.48,56.86 C161.239999,58.8200098 160.860003,60.1199968 160.34,60.76 C160.059999,61.1200018 159.660003,61.3 159.14,61.3 C158.659998,61.3 158.220002,61.1500015 157.82,60.85 C157.419998,60.5499985 157.22,60.1800022 157.22,59.74 L157.34,59.44 L157.4,59.2 C160.040013,48.9199486 162.039993,38.78005 163.4,28.78 C163.4,28.6199992 163.42,28.3500019 163.46,27.97 C163.5,27.5899981 163.54,27.0400036 163.58,26.32 C163.700001,24.8399926 163.829999,23.6600044 163.97,22.78 C164.110001,21.8999956 164.339998,21.2400022 164.66,20.8 L166.7,20.8 C167.260003,20.8 167.739998,20.9299987 168.14,21.19 C168.540002,21.4500013 168.74,21.8199976 168.74,22.3 C168.74,25.3400152 169.159996,29.85997 170,35.86 C170.800004,42.0200308 171.2,46.3399876 171.2,48.82 C171.2,49.0600012 171.299999,49.679995 171.5,50.68 C171.700001,51.6000046 171.8,52.1999986 171.8,52.48 C171.8,52.7600014 171.999998,53.9599894 172.4,56.08 C172.760002,58.0000096 172.94,59.2399972 172.94,59.8 L172.94,59.86 C172.94,60.7400044 172.620003,61.2999988 171.98,61.54 Z M168.02,50.02 C167.899999,49.419997 167.84,48.6800044 167.84,47.8 C167.84,44.199982 167.520003,39.600028 166.88,34 L166.28,27.76 C164.559991,37.160047 163.380003,44.259976 162.74,49.06 C163.340003,49.460002 165.099985,49.7799988 168.02,50.02 Z M174.84,61.54 C174.479998,61.4599996 174.190001,61.3500007 173.97,61.21 C173.749999,61.0699993 173.62,60.8200018 173.58,60.46 C173.62,60.2199988 173.719999,59.9600014 173.88,59.68 C174.040001,59.3999986 174.199999,59.2400002 174.36,59.2 C174.720002,59.1599998 174.979999,59.040001 175.14,58.84 C175.300001,58.639999 175.439999,58.3600018 175.56,58 C175.6,57.7599988 175.719999,57.1600048 175.92,56.2 C176.120001,55.2399952 176.24,54.3200044 176.28,53.44 L176.34,52.42 C176.34,51.9399976 176.3,51.2600044 176.22,50.38 C176.14,49.4999956 176.1,48.860002 176.1,48.46 C176.1,46.1399884 176.959991,43.8600112 178.68,41.62 C176.359988,39.4999894 175.2,37.1800126 175.2,34.66 L175.2,32.74 C175.2,30.6599896 175.359998,29.1000052 175.68,28.06 C175.960001,26.9799946 176.479996,25.8000064 177.24,24.52 C177.520001,23.919997 177.899998,23.4500017 178.38,23.11 C178.860002,22.7699983 179.389997,22.4600014 179.97,22.18 C180.550003,21.8999986 180.999998,21.6800008 181.32,21.52 C181.560001,21.3999994 181.909998,21.2800006 182.37,21.16 C182.830002,21.0399994 183.199999,20.8200016 183.48,20.5 C184.000003,20.299999 184.519997,20.2 185.04,20.2 C185.800004,20.2 186.469997,20.3799982 187.05,20.74 C187.630003,21.1000018 187.92,21.5199976 187.92,22 C187.92,23.7200086 187.88,26.4199816 187.8,30.1 L187.62,38.62 L187.56,41.98 L187.62,45.34 C187.7,47.1800092 187.859999,49.7799832 188.1,53.14 L188.34,57.04 C188.38,57.4000018 188.44,57.7999978 188.52,58.24 C188.6,58.6800022 188.64,59.0399986 188.64,59.32 C188.64,60.4000054 188.080006,60.94 186.96,60.94 C186.479998,60.94 186.050002,60.8200012 185.67,60.58 C185.289998,60.3399988 185.08,60.0000022 185.04,59.56 C184.919999,58.6399954 184.86,57.7000048 184.86,56.74 L184.68,41.8 C183.279993,42.0400012 182.240003,42.2999986 181.56,42.58 C180.879997,42.8600014 180.390001,43.2299977 180.09,43.69 C179.789998,44.1500023 179.560001,44.7999958 179.4,45.64 C179.279999,46.1600026 179.22,46.9399948 179.22,47.98 C179.22,48.5000026 179.26,49.2399952 179.34,50.2 L179.4,52.48 C179.4,54.2000086 179.300001,55.6499941 179.1,56.83 C178.899999,58.0100059 178.460003,59.1199948 177.78,60.16 C177.459998,60.6800026 177.020003,61.0599988 176.46,61.3 C175.899997,61.5400012 175.360003,61.6200004 174.84,61.54 Z M180.78,40 C180.940001,40.0400002 181.199998,40.06 181.56,40.06 C182.400004,40.06 183.479993,39.8800018 184.8,39.52 C184.8,38.4799948 184.76,36.8800108 184.68,34.72 C184.559999,32.6799898 184.5,30.66001 184.5,28.66 C184.5,26.9799916 184.559999,25.2800086 184.68,23.56 C183.599995,23.7200008 182.640004,23.999998 181.8,24.4 C180.959996,24.800002 180.400001,25.2399976 180.12,25.72 C179.079995,27.6800098 178.54,29.5999906 178.5,31.48 C178.5,33.6000106 178.54,35.159995 178.62,36.16 C178.66,37.0400044 178.859998,37.8599962 179.22,38.62 C179.580002,39.3800038 180.099997,39.8399992 180.78,40 Z M210.86,61.84 C209.979996,61.84 209.050005,61.7100013 208.07,61.45 C207.089995,61.1899987 206.340003,60.9000016 205.82,60.58 C203.139987,58.8599914 201.8,54.1600384 201.8,46.48 L201.8,41.56 C201.8,39.959992 201.82,38.5300063 201.86,37.27 C201.9,36.0099937 201.979999,34.6400074 202.1,33.16 C202.220001,31.5999922 202.399999,30.3300049 202.64,29.35 C202.880001,28.3699951 203.279997,27.2600062 203.84,26.02 C204.320002,24.8599942 204.909996,23.9600032 205.61,23.32 C206.310003,22.6799968 207.219994,22.1400022 208.34,21.7 C209.340005,21.2599978 210.579993,21.04 212.06,21.04 C212.660003,21.04 213.119998,21.1799986 213.44,21.46 C213.760002,21.7400014 213.92,22.0999978 213.92,22.54 C213.92,22.940002 213.790001,23.2999984 213.53,23.62 C213.269999,23.9400016 212.960002,24.1199998 212.6,24.16 L209.78,24.16 C208.979996,24.16 208.280003,24.659995 207.68,25.66 C207.079997,26.660005 206.660001,27.959992 206.42,29.56 C205.899997,32.5200148 205.64,34.9199908 205.64,36.76 L205.64,37.06 L205.52,42.82 C205.44,44.5400086 205.4,46.4799892 205.4,48.64 C205.4,50.1600076 205.459999,51.3999952 205.58,52.36 C205.780001,53.8000072 206.119998,54.9999952 206.6,55.96 C207.080002,57.0400054 207.899994,57.8199976 209.06,58.3 C209.660003,58.5400012 210.319996,58.66 211.04,58.66 C211.480002,58.66 211.919998,58.5000016 212.36,58.18 C212.880003,58.18 213.309998,58.2899989 213.65,58.51 C213.990002,58.7300011 214.16,59.0599978 214.16,59.5 C214.16,61.0600078 213.060011,61.84 210.86,61.84 Z M220.92,60.04 L220.86,57.7 C220.82,57.0199966 220.8,56.2600042 220.8,55.42 L220.86,53.38 C220.739999,52.9399978 220.440002,48.5600416 219.96,40.24 C219.479998,31.9199584 219.2,26.5800118 219.12,24.22 C216.799988,24.1399996 215.320003,23.900002 214.68,23.5 C214.239998,23.1799984 214.02,22.820002 214.02,22.42 C214.02,22.0999984 214.229998,21.8100013 214.65,21.55 C215.070002,21.2899987 215.499998,21.16 215.94,21.16 C217.060006,21.16 218.419992,21.2399992 220.02,21.4 C221.540008,21.600001 222.899994,21.7 224.1,21.7 L225.06,21.7 C226.300006,21.7 226.92,22.1799952 226.92,23.14 C226.92,23.6200024 226.720002,24.0099985 226.32,24.31 C225.919998,24.6100015 225.460003,24.76 224.94,24.76 C224.579998,24.76 224.060003,24.7000006 223.38,24.58 L222.18,24.34 L222.06,24.94 C222.06,28.5000178 222.399997,34.179961 223.08,41.98 C223.720003,49.3000366 224.04,54.9799798 224.04,59.02 C224.04,59.5000024 223.830002,59.9199982 223.41,60.28 C222.989998,60.6400018 222.520003,60.82 222,60.82 L220.92,60.04 Z M242.74,61.54 C241.819995,61.54 241.140002,61.4000014 240.7,61.12 C240.259998,60.8399986 240.04,60.3200038 240.04,59.56 C240.04,58.359994 239.840002,56.3200144 239.44,53.44 L239.2,52.18 L233.26,51.28 C233.019999,52.2000046 232.680002,54.059986 232.24,56.86 C231.999999,58.8200098 231.620003,60.1199968 231.1,60.76 C230.819999,61.1200018 230.420003,61.3 229.9,61.3 C229.419998,61.3 228.980002,61.1500015 228.58,60.85 C228.179998,60.5499985 227.98,60.1800022 227.98,59.74 L228.1,59.44 L228.16,59.2 C230.800013,48.9199486 232.799993,38.78005 234.16,28.78 C234.16,28.6199992 234.18,28.3500019 234.22,27.97 C234.26,27.5899981 234.3,27.0400036 234.34,26.32 C234.460001,24.8399926 234.589999,23.6600044 234.73,22.78 C234.870001,21.8999956 235.099998,21.2400022 235.42,20.8 L237.46,20.8 C238.020003,20.8 238.499998,20.9299987 238.9,21.19 C239.300002,21.4500013 239.5,21.8199976 239.5,22.3 C239.5,25.3400152 239.919996,29.85997 240.76,35.86 C241.560004,42.0200308 241.96,46.3399876 241.96,48.82 C241.96,49.0600012 242.059999,49.679995 242.26,50.68 C242.460001,51.6000046 242.56,52.1999986 242.56,52.48 C242.56,52.7600014 242.759998,53.9599894 243.16,56.08 C243.520002,58.0000096 243.7,59.2399972 243.7,59.8 L243.7,59.86 C243.7,60.7400044 243.380003,61.2999988 242.74,61.54 Z M238.78,50.02 C238.659999,49.419997 238.6,48.6800044 238.6,47.8 C238.6,44.199982 238.280003,39.600028 237.64,34 L237.04,27.76 C235.319991,37.160047 234.140003,44.259976 233.5,49.06 C234.100003,49.460002 235.859985,49.7799988 238.78,50.02 Z M248.18,61.42 C247.659997,59.2999894 247.4,56.3600188 247.4,52.6 L247.52,47.26 C247.6,45.659992 247.64,43.8800098 247.64,41.92 C247.399999,41.3599972 247.28,40.8600022 247.28,40.42 L247.28,40.24 C247.680002,39.4799962 247.88,37.7600134 247.88,35.08 L247.94,32.32 C247.98,31.4399956 248,30.4600054 248,29.38 C248,27.0199882 247.840002,25.1600068 247.52,23.8 C247.640001,23.2399972 247.839999,22.7500021 248.12,22.33 C248.400001,21.9099979 248.739998,21.7 249.14,21.7 L251.78,21.7 C252.900006,21.7 253.879996,21.9499975 254.72,22.45 C255.560004,22.9500025 256.199998,23.6599954 256.64,24.58 C257.440004,26.2200082 257.84,28.1599888 257.84,30.4 C257.84,32.000008 257.82,33.2599954 257.78,34.18 C257.7,35.3400058 257.500002,36.3999952 257.18,37.36 C257.059999,37.8800026 256.890001,38.3099983 256.67,38.65 C256.449999,38.9900017 256.140002,39.3999976 255.74,39.88 C255.179997,40.5600034 254.260006,41.199997 252.98,41.8 C252.459997,42.0800014 251.780004,42.3399988 250.94,42.58 L250.94,49 L251.06,52.84 L251.18,54.7 C251.340001,56.9400112 251.42,58.8399922 251.42,60.4 C251.42,60.8800024 251.220002,61.2899983 250.82,61.63 C250.419998,61.9700017 249.960003,62.14 249.44,62.14 L248.18,61.42 Z M251,40.12 C253.360012,39.7599982 254.54,36.380032 254.54,29.98 C254.54,28.8199942 254.480001,27.9200032 254.36,27.28 C254.239999,26.7999976 254.080001,26.4100015 253.88,26.11 C253.679999,25.8099985 253.380002,25.560001 252.98,25.36 C252.539998,25.1199988 252.060003,25 251.54,25 C251.54,24.9599998 251.320002,24.94 250.88,24.94 L250.88,28.36 C250.88,30.7200118 250.9,32.8199908 250.94,34.66 C250.94,36.7400104 250.96,38.0999968 251,38.74 L251,40.12 Z M262.98,60.76 C262.179996,60.7199998 261.720001,60.300004 261.6,59.5 L261.78,44.5 L261.78,31 C261.78,27.0799804 261.8,24.1400098 261.84,22.18 C261.84,21.9399988 261.969999,21.720001 262.23,21.52 C262.490001,21.319999 262.819998,21.22 263.22,21.22 C263.540002,21.22 263.859998,21.319999 264.18,21.52 C264.500002,21.720001 264.739999,21.9799984 264.9,22.3 C265.260002,22.9400032 265.44,23.8799938 265.44,25.12 C265.44,26.0000044 265.300001,27.3799906 265.02,29.26 C264.899999,30.1000042 264.82,31.019995 264.78,32.02 C264.74,33.020005 264.72,33.6799984 264.72,34 C264.64,34.5600028 264.55,35.4599938 264.45,36.7 C264.349999,37.9400062 264.34,38.5400002 264.42,38.5 C265.020003,38.4199996 265.759996,38.5599982 266.64,38.92 C267.320003,39.1600012 267.719999,39.28 267.84,39.28 C269.600009,39.6000016 270.939995,40.659991 271.86,42.46 C272.820005,44.2200088 273.379999,46.0399906 273.54,47.92 C273.58,48.3600022 273.6,48.9999958 273.6,49.84 C273.6,51.84001 273.420002,53.5599928 273.06,55 C272.659998,57.800014 270.980015,59.7199948 268.02,60.76 C267.539998,60.9200008 266.920004,61 266.16,61 C265.599997,61 264.990003,60.9700003 264.33,60.91 C263.669997,60.8499997 263.220001,60.8000002 262.98,60.76 Z M264.96,58.36 C265.400002,58.4800006 265.799998,58.54 266.16,58.54 C266.960004,58.54 267.639997,58.3100023 268.2,57.85 C268.760003,57.3899977 269.119999,56.7800038 269.28,56.02 C269.480001,55.0999954 269.699999,53.7200092 269.94,51.88 C270.02,50.9999956 270.1,50.3000026 270.18,49.78 C270.22,49.5399988 270.24,49.1800024 270.24,48.7 C270.24,47.0199916 269.920003,45.4700071 269.28,44.05 C268.639997,42.6299929 267.720006,41.8400008 266.52,41.68 C265.679996,41.5199992 265.060002,41.4200002 264.66,41.38 L264.96,58.36 Z" id="Уруссинская-старь" fill="#000000"></path>
            </g>
        </g>
    </g>
</svg>