<svg xmlns="http://www.w3.org/2000/svg" viewBox="0 0 320 240">
    <defs>
        <clipPath id="test">
            <path transform="scale(3.2)" d="M74.77,56.86c11.9-3,28.48-10.18,19.88-28.64C91.06,20.52,82.91,17,71,9.13,63.34,3.56,56-1.6,40.66.68,28,2.55,31.42,12.57,15.46,17.42,4.66,19.3.12,29.47.12,38S5,58.11,12.33,64.37C21.57,73.13,34.26,75.28,46,75,66.48,74.54,61,62.65,74.77,56.86Z"/>
        </clipPath>

        <style>
            .cls-1 {
            fill: #d2c0b1;
            }

            .cls-2 {
            fill: #cef1fe;
            }

            .cls-3 {
            fill: #b0a99a;
            }

            .cls-4 {
            fill: #85c549;
            }

            .cls-5 {
            fill: #ab8690;
            }

            .cls-6 {
            fill: #75b739;
            }

            .cls-7 {
            fill: #3b1f11;
            }

            .cls-8 {
            fill: #844824;
            }

            .cls-9 {
            fill: #548c9f;
            }

            .cls-10 {
            fill: #fdfefd;
            }

            .cls-11 {
            fill: #445681;
            }

            .cls-12 {
            fill: #fffbff;
            }

            .cls-13 {
            fill: #83402b;
            }

            .cls-14 {
            fill: #44731f;
            }

            .cls-15 {
            fill: #629da1;
            }

            .cls-16 {
            fill: #814626;
            }

            .cls-17 {
            fill: #9e4a45;
            }

            .cls-18 {
            fill: #7eaf9f;
            }

            .cls-19 {
            fill: #64341d;
            }

            .cls-20 {
            fill: #5f361b;
            }

            .cls-21 {
            fill: #7a3d32;
            }

            .cls-22 {
            fill: #73b843;
            }

            .cls-23 {
            fill: #70b03d;
            }

            .cls-24 {
            fill: #669740;
            }

            .cls-25 {
            fill: #79bd47;
            }

            .cls-26 {
            fill: #6f9934;
            }

            .cls-27 {
            fill: #5a3119;
            }

            .cls-28 {
            fill: #75b93d;
            }

            .cls-29 {
            fill: #86c04a;
            }

            .cls-30 {
            fill: #71b441;
            }

            .cls-31 {
            fill: #81b549;
            }

            .cls-32 {
            fill: #83c646;
            }

            .cls-33 {
            fill: #447d81;
            }

            .cls-34 {
            fill: #c9916c;
            }

            .cls-35 {
            fill: #a8795a;
            }

            .cls-36 {
            fill: #edbc85;
            }

            .cls-37 {
            fill: #d6aa78;
            }

            .cls-38 {
            fill: #f6ab65;
            }

            .cls-39 {
            fill: #92613b;
            }

            .cls-40 {
            fill: #abb765;
            }

            .cls-41 {
            fill: #d8b65e;
            }

            .cls-42 {
            fill: #c7b14b;
            }

            .cls-43 {
            fill: #cb8e4c;
            }

            .cls-44 {
            fill: #e7d068;
            }

            .cls-45 {
            fill: #d99652;
            }

            .cls-46 {
            fill: #ad7941;
            }

            .cls-47 {
            fill: #d18445;
            }

            .cls-48 {
            fill: #d2905a;
            }

            .cls-49 {
            fill: #d19156;
            }

            .cls-50 {
            fill: #73ab48;
            }

            .cls-51 {
            fill: #9874b3;
            }

            .cls-52 {
            fill: #b293c9;
            }

            .cls-53 {
            fill: #7a5694;
            }

            .cls-54 {
            fill: #bca7d5;
            }

            .cls-55 {
            fill: #84719c;
            }

            .cls-56 {
            fill: #d5c5e6;
            }

            .cls-57 {
            fill: #f1dfc2;
            }

            .cls-58 {
            fill: #ffd7cc;
            }

            .cls-59 {
            fill: #d4c7ad;
            }

            .cls-60 {
            fill: #c6b89b;
            }

            .cls-61 {
            fill: #c4a39c;
            }

            .cls-62 {
            fill: #f0dcc2;
            }

            .cls-63 {
            fill: #4a2949;
            }

            .cls-64 {
            fill: #382337;
            }

            .cls-65 {
            fill: #1f1f1f;
            }

            .cls-66 {
            fill: #b6aba2;
            }

            .cls-67 {
            fill: #2b2333;
            }

            .cls-68 {
            fill: #f5e1dd;
            }

            .cls-69 {
            fill: #5c3e5b;
            }

            .cls-70 {
            fill: #d9d0d7;
            }

            .cls-71 {
            fill: #b089aa;
            }

            .cls-72 {
            fill: #2b1d26;
            }

            .cls-73 {
            fill: #e0bfd5;
            }

            .cls-74 {
            fill: #e3cfdc;
            }

            .cls-75 {
            fill: #fefefe;
            }

            .cls-76 {
            fill: #020004;
            }
        </style>
    </defs>

    <g id="ololo" clip-path="url(#test)">
        <g id="Layer_2" data-name="Layer 2">
            <g id="Layer_1-2" data-name="Layer 1">
                <g id="Layer_4" data-name="Layer 4">
                    <polygon class="cls-1" points="320 167.53 319.81 240 0 240 0 159.86 320 167.53"/>
                    <polygon class="cls-2" points="320 128.36 319.81 0 0 0 0 141.61 320 128.36"/>
                    <polygon class="cls-3" points="269.85 173.08 293.72 207.49 301.06 215.36 240.64 218.76 229.53 213.36 218.39 219.18 174.76 198.29 195.33 173.2 213.76 170.67 256.41 169.91 264.07 170.36 269.85 173.08"/>
                    <path class="cls-4" d="M320,116.36a13.12,13.12,0,0,0-14.07,0c-6.22,4-3.33-2.13-7.77-2.06s-4.89-.77-7.77,1.4-6.89,2.85-9.11.26-10-2.08-12.88,0-13.19,3-15.15,1.76-6.39,1.09-9.28.54-4.22-3.73-10-3.23-4.66,3.34-10,4-9.11-2.06-13.55,1-5.1,6.37-11.55,6.87S60.3,125.7,54.75,123.53s-16.66-3.5-21.32.67-5.11-3.33-12.22-1.17S2.66,117.2.05,128.2v46.66S31.87,173,55,171.78s198.65-8.08,264.9,1.75Z"/>
                    <path class="cls-5" d="M319.81,174.37s-74.45-5.9-119.23-3.7c-5.25-4.31,67.15-5,119.23,2A8.57,8.57,0,0,0,319.81,174.37Z"/>
                    <path class="cls-6" d="M319.81,129.45s-10.57-1.28-16.36-1.09-12.71-8.77-22.11-7.14-16.93,5.71-21.49,5.71-12-2.07-15.88-1.44-12.26-1.82-16.77-1.82-15.08,5-22.1,5.78-35.27,5.59-39.61,6.29,19.15,6.45,19.15,6.45,86.31,7.17,89.52,7.17,13,2.75,22.06,8.5,23.78,6,23.78,6Z"/>
                    <polygon class="cls-7" points="228.09 186.74 291.97 188.74 294.38 198.29 270.56 199.93 241.96 199.93 234.75 199.93 227.2 187.35 228.09 186.74"/>
                    <rect class="cls-8" x="202.44" y="167.53" width="49.53" height="5.67"/>
                    <polygon class="cls-9" points="181.88 65.03 259.39 65.03 289.81 70.53 289.81 74.7 167.44 70.53 181.88 65.03"/>
                    <path class="cls-10" d="M220.09,73.86s.15,14.42.15,23.12c0,3-3.54,2.35-9.21,2.35s-8.59.58-8.59-2.25V72.61Z"/>
                    <path class="cls-11" d="M202.29,74.53s.15,14.42.15,23.12c0,3-3.53,2.34-9.21,2.34s-8.59.59-8.59-2.24V73.28Z"/>
                    <path class="cls-11" d="M237.38,73.86s.15,14.42.15,23.12c0,3-3.53,2.35-9.21,2.35s-8.59.58-8.59-2.25V72.61Z"/>
                    <rect class="cls-8" x="248.36" y="90.03" width="9.77" height="97.83"/>
                    <path class="cls-12" d="M256.91,72.61s.16,14.42.16,23.12c0,3-3.81,2.35-10,2.35s-9.5.58-9.5-2.25V71.36Z"/>
                    <rect class="cls-13" x="262.01" y="152.86" width="9.68" height="37.83"/>
                    <path class="cls-14" d="M291.47,198.49l-2.9-9.31v-1.83l-2.18-.61s-6.25-1.13-6.67-1.13-11.57-.31-11.82-.43S261,183.43,261,183.3s-9.88,1-9.88,1l-2.47,2.66-8,2.23c-.25.07-1.33,5.72-1.33,5.8S242,199.8,242,199.8l25.94-.27,3.79.4Z"/>
                    <polygon class="cls-15" points="290.38 149.36 260.85 131.2 195.77 130.2 193.54 149.36 197.33 153.03 286.83 152.86 290.38 149.36"/>
                    <rect class="cls-16" x="205.1" y="155.86" width="77.73" height="4"/>
                    <rect class="cls-17" x="215.43" y="128.36" width="8.16" height="4.63"/>
                    <rect class="cls-18" x="213.76" y="125.49" width="11.33" height="2.88"/>
                    <rect class="cls-17" x="201.35" y="129.8" width="8.16" height="4.63"/>
                    <rect class="cls-18" x="199.68" y="126.93" width="11.33" height="2.88"/>
                    <path class="cls-19" d="M173.45,207l44.81.5,6.83-7.25-7.83-14.5s-28.48-1.13-29-1.25-14.83,23-14.83,23"/>
                    <path class="cls-7" d="M223.6,200.11l-6.37.09-5.89.08h0l-2.58,0-9.14.13-11.5.16,6.66-15,20.66.87Z"/>
                    <polygon class="cls-20" points="240.66 207.49 265.73 207.49 270.06 200.61 233.59 200.61 240.66 207.49"/>
                    <polyline class="cls-21" points="233.59 200.61 224.56 186.74 228.09 186.74 236.25 199.11 270.06 198.74 270.06 200.61"/>
                    <path class="cls-22" d="M232.29,193.11s-.54-5.62,4.29-5.25,7.67,1.42,8.67,2.84,2.13,2.91,2.06,4.16-1.73,4.15-1.73,4.15l-9.33.1Z"/>
                    <path class="cls-23" d="M247.31,194.86s6.43.75,8.26-1.18,2.83-2.57,3.83-.57,0,6,0,6l-13.82-.1Z"/>
                    <path class="cls-24" d="M239.8,188.26s-.22-3,4.17-2.65,5.44-1.62,7.86-1.12,6.8,6.36,5.27,7.77-1.18,1.72-2.67,2.13a27.63,27.63,0,0,1-6.06.56c-1.06-.09-1.87-3.18-3.12-4.25S239.8,188.26,239.8,188.26Z"/>
                    <path class="cls-25" d="M263.07,198.36s.66-5.29,1.83-6.48-.44-4.14,1.94-4,5.89,4.24,5.89,5.62-2.67,5.26-2.67,5.26Z"/>
                    <path class="cls-26" d="M263.07,196h-3.22s.52-4.44-1.71-4.09c-.75-.16-1.73-3.16-1.73-3.16a5.12,5.12,0,0,1,2.49-3.13c2-1,4.17-1,5.17,0a7.42,7.42,0,0,1,1.42,3.16l-.13,1.93a24,24,0,0,0-1.33,3A15.86,15.86,0,0,1,263.07,196Z"/>
                    <polygon class="cls-27" points="266.46 206.33 293.72 207.49 296.21 199.11 269.55 201.43 266.46 206.33"/>
                    <polyline class="cls-19" points="296.21 199.11 292.55 188.74 290.38 188.74 293.3 197.74 270.06 198.74 269.55 201.43"/>
                    <path class="cls-28" d="M249.45,185.22s.79-5.48,6-5,7.82.62,9.32,1.87-.66,4-.66,4a2.83,2.83,0,0,0-3.12-.66c-2.05.66-4.88,2.91-4.54,2.91-1.36-1-3-3.58-5.53-3.6S249.45,185.22,249.45,185.22Z"/>
                    <path class="cls-29" d="M265.26,182.74s4.06.62,6.43,0,4.37-.75,3.87,2.87-.92,6.45-3.88,5.77c-1.87-2-3.82-3.79-4.84-3.52a2.2,2.2,0,0,0-1.36.91s-.58-3-1.41-3.16A15.22,15.22,0,0,0,265.26,182.74Z"/>
                    <path class="cls-24" d="M282.84,198.19c1.88-2.08,3.54-8.45,0-9.45s-.59.79-1.54,3.14-6.74,1.9-7.18-1.18a5.71,5.71,0,0,1-2.47.68s1.19,1.37,1,2.1a48.87,48.87,0,0,1-2.3,4.71l-.37.55Z"/>
                    <path class="cls-30" d="M275.64,183s.92-3.56,4.58-.59,4,6.62,2.66,6.34l-1.29-.28a10.88,10.88,0,0,0-.25,2.24c0,1.18-.1,2.17-1.43,2.41s-3,.89-4.27-.41a6.18,6.18,0,0,1-1.48-2,21.8,21.8,0,0,0,1.4-5.09C275.6,184,275.64,183,275.64,183Z"/>
                    <path class="cls-26" d="M283.84,196.63c1.88.61,4.55,1.32,4.55,1.32l4.91-.21-1.9-5.86s-1.51-3-1-4.94-1.67-.36-3.34.91a20.78,20.78,0,0,1-2.8,1.84,6,6,0,0,1,.67,3.61C284.51,194.86,283.84,196.63,283.84,196.63Z"/>
                    <path class="cls-31" d="M280.92,183s1.36-1.83,3.16-1,4,2.17,4.49,4c-.53,1.08-4.32,3.66-4.32,3.66l-.41-.95S283.16,184.57,280.92,183Z"/>
                    <path class="cls-32" d="M320,134.43s-21.26-.58-18.73,4.52S320,141.61,320,141.61"/>
                    <path class="cls-6" d="M0,130.68s7.24,3.06,19.19,3.73a83.76,83.76,0,0,1,22.09,3.89c5.07,1.4.72,5.82-3.26,4.15a15.86,15.86,0,0,0-13.4.37,18.47,18.47,0,0,1-13,1.71c-3.62-1-11.54.53-11.54.53Z"/>
                    <path class="cls-6" d="M0,156.7s13.76-.12,19.92,0,9,3.3,13.76,1.16,8-9.16,15.57-4.83,12.67,6.83,12.67,6.83l-7,11.92S5.18,174.7.05,174.86C0,170.41,0,156.7,0,156.7Z"/>
                    <rect class="cls-33" x="193.54" y="149.36" width="96.85" height="7.33"/>
                    <path class="cls-34" d="M225.42,140.61a10.53,10.53,0,0,1-1.3.63c-4.4,1.83-12.73,2.8-18.76,2.47-.83,0-1.62-.1-2.34-.19-6.6-.86-2.78-6.53,2.59-8.9s11.3-1.75,18.71-1.62S226.21,140.15,225.42,140.61Z"/>
                    <path class="cls-35" d="M224.42,138.3a16.71,16.71,0,0,0-.3,2.94c-4.4,1.83-12.73,2.8-18.76,2.47l2.74-4.77S218.65,140.23,224.42,138.3Z"/>
                    <path class="cls-36" d="M247.64,139.19c-4.31,2.5-15.79,3.75-22.4,2.9-3.63-.47-4.11-2.38-2.93-4.4a12.46,12.46,0,0,1,5.51-4.5c5.36-2.37,11.3-1.75,18.71-1.62a4.41,4.41,0,0,1,3.24,1C251.67,134.55,248.25,138.84,247.64,139.19Z"/>
                    <path class="cls-37" d="M247.64,139.19c-4.31,2.5-15.79,3.75-22.4,2.9-3.63-.47-4.11-2.38-2.93-4.4,0,0,25.86.37,27.43-5a.19.19,0,0,0,0-.1C251.67,134.55,248.25,138.84,247.64,139.19Z"/>
                    <path class="cls-38" d="M264,141.44c.17,1.75-9.33,5-22,5s-22.81-3.29-22.81-5a1,1,0,0,1,.27-.67c1.54-2,10-3.08,21.76-3.08,11.39,0,20.13,1.53,22.26,3.07A1.08,1.08,0,0,1,264,141.44Z"/>
                    <path class="cls-11" d="M272.62,72.61s.13,14.42.13,23.12c0,3-3.19,2.35-8.19,2.35s-7.49.58-7.49-2.25V71.36Z"/>
                    <polygon class="cls-33" points="290.38 74.7 171.57 74.7 173.79 70.53 290.38 70.53 290.38 74.7"/>
                    <path class="cls-5" d="M0,175.87s34.52-3.33,44-3.12c1.2-3.32,0-2.84,0-2.84s-37.42.88-44,3.17A23.58,23.58,0,0,1,0,175.87Z"/>
                    <ellipse class="cls-14" cx="199.25" cy="188.46" rx="4.87" ry="3.65"/>
                    <ellipse class="cls-39" cx="196.76" cy="192.77" rx="4.87" ry="3.65"/>
                    <ellipse class="cls-40" cx="194.85" cy="197.13" rx="4.87" ry="3.65"/>
                    <ellipse class="cls-41" cx="206.5" cy="188.46" rx="4.87" ry="3.65"/>
                    <path class="cls-42" d="M205.78,192c-.9,1.33-2.75.77-4.28,1.24-.95.28-.93,1.15,0,1.44,2.2.67,5.6,0,6.7-1.61C209,191.88,206.6,190.82,205.78,192Z"/>
                    <ellipse class="cls-43" cx="205.1" cy="193.11" rx="4.87" ry="3.65"/>
                    <path class="cls-42" d="M205.78,192c-.9,1.33-2.75.77-4.28,1.24-.95.28-.93,1.15,0,1.44,2.2.67,5.6,0,6.7-1.61C209,191.88,206.6,190.82,205.78,192Z"/>
                    <path class="cls-44" d="M210,197.58a3.31,3.31,0,0,1-.28,1.36,4.06,4.06,0,0,1-1,1.38l-9.14.13a3.84,3.84,0,0,1-1.4-2.87c0-2.43,2.64-4.43,5.91-4.43a6.19,6.19,0,0,1,5.35,2.59A3.36,3.36,0,0,1,210,197.58Z"/>
                    <ellipse class="cls-45" cx="213.7" cy="188.46" rx="4.57" ry="3.43"/>
                    <path class="cls-46" d="M214.2,187.29a3.28,3.28,0,0,0-.1.69c0,.2-.19.35-.24.53l-.06.2c0,.28,0,.31-.08.09a3.2,3.2,0,0,1-.64.21,4.51,4.51,0,0,0-2.2.76c-.32.3,0,.69.48.62a24.77,24.77,0,0,0,3.11-.26,5.48,5.48,0,0,0,1.26-.54,4.49,4.49,0,0,0,1.44-1.36C218.18,186.47,214.52,185.68,214.2,187.29Z"/>
                    <ellipse class="cls-47" cx="213.36" cy="192.39" rx="5.09" ry="3.82"/>
                    <path class="cls-46" d="M214.47,191.6a2.48,2.48,0,0,1-1.45,1.55,3.55,3.55,0,0,0-.66.38c-.36.25-.05.08-.52.21a4.41,4.41,0,0,0-1.23.38c-.26.15-.12.42.09.54a3.68,3.68,0,0,0,1.64.24,7,7,0,0,0,2.19-.12,4.88,4.88,0,0,0,3.39-2.47C218.71,190.71,215.06,189.91,214.47,191.6Z"/>
                    <path class="cls-48" d="M219.29,197.13a3.61,3.61,0,0,1-2.06,3.07l-5.89.08h0a4.51,4.51,0,0,1-1.58-1.33h0a3.08,3.08,0,0,1-.61-1.81,3,3,0,0,1,.34-1.39,5.29,5.29,0,0,1,4.73-2.43C217,193.31,219.29,195,219.29,197.13Z"/>
                    <path class="cls-49" d="M264,141.44c.17,1.75-9.33,5-22,5s-22.81-3.29-22.81-5a1,1,0,0,1,.27-.67,74.45,74.45,0,0,0,21.42,2.35c12-.5,18.31-1,22.6-2.35A1,1,0,0,1,264,141.44Z"/>
                    <path class="cls-50" d="M243.92,191.3a9,9,0,0,1-2.44-.28,9.67,9.67,0,0,1-1.09-.47l-.35-.17c-.34-.18-.17-.26-.35-.06.45-.5-.56-1.06-1.08-.63-.86.69.2,1.48.91,1.93a7.92,7.92,0,0,0,4.4,1.31C245.33,192.93,245.31,191.35,243.92,191.3Z"/>
                    <path class="cls-50" d="M238.42,192.27a4.38,4.38,0,0,1-1.38-1.16c-.17-.23-.38-.35-.38-.63a1.35,1.35,0,0,0,0-.53.22.22,0,0,0-.26-.11c-.65.1-.79.57-1,1-.24.67.2,1.25.72,1.76.8.8,2.57,2.2,4.06,1.82.17,0,.32-.15.31-.3C240.41,193.27,239.24,192.76,238.42,192.27Z"/>
                    <path class="cls-50" d="M258.57,192.92a1,1,0,0,0-1.64,0,12.2,12.2,0,0,1-.72,1.51,4.23,4.23,0,0,1-1.33,1.51s0,.08,0,.09a3.32,3.32,0,0,0,2.53-.72C258.08,194.73,259,193.73,258.57,192.92Z"/>
                    <path class="cls-50" d="M253.73,196.37a2.64,2.64,0,0,0-1.7-.12,13.37,13.37,0,0,1-1.42.11,4.65,4.65,0,0,0-1.12,0c-.21.05-.31.26-.14.39a3.52,3.52,0,0,0,2,.3c.72,0,1.87,0,2.35-.47C253.81,196.54,253.84,196.43,253.73,196.37Z"/>
                    <path class="cls-50" d="M267.79,189.47a.07.07,0,0,0-.11,0c-.15.16-.33.21-.47.41a3,3,0,0,0-.32,1,2.39,2.39,0,0,1-.69,1.11c-.31.29-.67.49-.74.87a.35.35,0,0,0,.32.42,2.39,2.39,0,0,0,2.27-1.58,3.33,3.33,0,0,0,.33-1.44C268.4,189.9,268,189.73,267.79,189.47Z"/>
                    <path class="cls-50" d="M270.35,192.7c-.62-.49-1.81.44-2.34.63a32.4,32.4,0,0,0-3.62,1.12c-.74.38-.1,1.19.7.9,1.1-.4,2.36-.51,3.48-.88C269.24,194.25,271.27,193.45,270.35,192.7Z"/>
                    <path class="cls-50" d="M273.47,185.43a.16.16,0,0,0-.15,0c-.6.44-.59,1.33-1,1.9a22.61,22.61,0,0,1-2,2.08c-.11.11.06.27.23.23a4.24,4.24,0,0,0,2.63-1.92C273.61,187.12,274.16,186,273.47,185.43Z"/>
                    <path class="cls-24" d="M270.2,187.82a1.65,1.65,0,0,1-.8.14c-.06,0-.06.06,0,.06a1.77,1.77,0,0,0,.86-.11C270.33,187.87,270.26,187.79,270.2,187.82Z"/>
                    <path class="cls-24" d="M271.36,187.74a.25.25,0,0,0-.22-.21,2.38,2.38,0,0,0-1.53.5c-.08.05,0,.15,0,.19a1.53,1.53,0,0,0,1.49-.09c.13-.06.24-.17.23-.29A.38.38,0,0,1,271.36,187.74Z"/>
                    <path class="cls-24" d="M279.9,190.5a11.23,11.23,0,0,0-2,.41,9.67,9.67,0,0,0-1.88.21.26.26,0,0,0-.17.32c.24.69,1.27.7,2.06.69a3.73,3.73,0,0,0,2.62-.78C280.86,191,280.46,190.5,279.9,190.5Z"/>
                    <path class="cls-24" d="M279.31,187.78a5.11,5.11,0,0,0-.48.45,2.7,2.7,0,0,1-.49.59c-.2.16,0,.49.3.39s.64-.15,1-.23a1.44,1.44,0,0,0,.76-.59C280.72,187.9,279.8,187.31,279.31,187.78Z"/>
                    <path class="cls-24" d="M288.77,195.41a2.25,2.25,0,0,0-2.29.3.06.06,0,0,0,0,.06,2.25,2.25,0,0,0,2.29.3A.34.34,0,0,0,288.77,195.41Z"/>
                    <path class="cls-24" d="M289.09,193.65a4.42,4.42,0,0,1-1.15,0,4.3,4.3,0,0,0-1.38-.23c-.23,0-.48.11-.53.31-.36,1.37,2.94,2,3.69.79C289.94,194.12,289.69,193.63,289.09,193.65Z"/>
                    <path class="cls-24" d="M289.26,191.81a1.22,1.22,0,0,0-1.15-.35,2.17,2.17,0,0,1-1.16,0c-.36-.22-1-.1-1,.3,0,1.1,1.43,1.45,2.66,1.2a.85.85,0,0,0,.75-.74A.59.59,0,0,0,289.26,191.81Z"/>
                    <path class="cls-46" d="M216,196.59a3.45,3.45,0,0,1-2.51,1.57c-.51.09-2.52-.11-2.48.58.05,1.16,2.56,1,3.55.83a3.83,3.83,0,0,0,3.2-2.43C218,196.38,216.5,195.81,216,196.59Z"/>
                    <path class="cls-42" d="M206,196.93a6.84,6.84,0,0,1-1.17.93,5.17,5.17,0,0,1-1.69.29,9.28,9.28,0,0,0-2.27.33.3.3,0,0,0-.19.26c-.06.94,1.91.8,2.73.86a7.35,7.35,0,0,0,2.34-.12,7,7,0,0,0,2.13-1.14C209.22,197.53,207.2,196,206,196.93Z"/>
                </g>
                <g id="Layer_1-3" data-name="Layer 1">
                    <path class="cls-51" d="M93.81,107.53s-6.89-2.86-7.09-3.44-9.48-8.58-9.76-8.9S75.24,90,75.24,90l1.44-2.82L79,82.82l1.34-1.49S90,93.49,90.56,93.64s5.84,3.25,5.84,3.25l-1.6,7.21Z"/>
                    <path class="cls-51" d="M103.4,88l-2.34-3.06S92,75.75,92,75.71s-4.2-10.87-4.2-10.87l-1.68.38s-3.08,2.94-3.21,3-2.53,4.23-2.53,4.23a32.11,32.11,0,0,0-1,4.23c.14.25,2.11,6,2.21,6.13l7,8.6c0,.05,7.28,6,7.28,6l3.4-5.22Z"/>
                    <path class="cls-51" d="M111.44,82c-.22-.46-6.64-5.92-6.64-5.92L98.8,64,96.65,51.18l-.81-2.12L93.4,50.62l-4.25,6.22s-1.68,4.7-1.59,4.87S89,68,89,68.12s5.77,10.54,5.66,10.69a75.92,75.92,0,0,0,5.68,6.79,19.73,19.73,0,0,1,2.27,1.79s3.86-2.75,4-2.67S111.44,82,111.44,82Z"/>
                    <path class="cls-51" d="M134.13,78.81l1.7-9,.5-19s-3.45-15.63-3.44-15.38-6.83-7.28-6.83-7.28-9-4.35-9.09-4.39-3.85-.68-4-.64-6.92,4.95-7.24,5.16-4.48,6.94-4.48,6.94c-.49.3-2.89,7.95-2.89,7.95L97.47,50,98,59.23l2,8.53,5.16,8,5.52,6,6.22-2.64,6.4-1Z"/>
                    <path class="cls-52" d="M94.8,102.9S78.94,98.5,77,86.37c-1.85,4.7,0,9.77,0,9.77S84.42,104,85,103.88s7.26,3.37,7.46,3.66a11.85,11.85,0,0,0,2.74.66Z"/>
                    <path class="cls-52" d="M98.8,92.88S83.2,84.66,81.74,70.1a14.86,14.86,0,0,0-1.19,10.12s3.56,7.91,4.22,8.08,7,5.77,7.18,6,3.7,3.16,4.12,3.17S98.8,92.88,98.8,92.88Z"/>
                    <path class="cls-52" d="M106.51,84.41s-16.93-15-16.26-29.13a20.59,20.59,0,0,0-1.56,9.94l2.24,5.48s1.06,3.43,1.34,3.43,4.23,7.43,4.57,7.58S103,86.77,103,86.77Z"/>
                    <path class="cls-52" d="M116.9,79.63s-20-18.89-10.24-46.48c-3.82,5.31-7,9-7,9s-3.31,3.95-3.31,4.53,1.9,13.44,1.85,13.65,3.31,11.14,3.58,11.35,7,7.93,7,7.93l3,1.61Z"/>
                    <path class="cls-51" d="M149.05,85.6c0-.2,6.77-8.71,6.77-8.71l2.27-12.56S160,52.91,159.9,53s-2.9-6.6-2.9-6.6l-2.76-3s-6.38-3.43-6.42-3.51-4.44-2.08-4.57-2.08-6.56.56-6.56.56l-1.56.76,1.2,8.88.54,7.95s-.54,11.61-.54,11.58-1.2,6.05-1.2,6.05l-.93,5.51s5,2.1,5.16,2.09S149.05,85.6,149.05,85.6Z"/>
                    <path class="cls-51" d="M159.31,96.69l4.91-3.47,6-6.45,3.38-7,1.8-6.44-1.26-5.41-1.4-3.38-2.12-6.6s-3.45-2.92-3.62-3-5.51-1.1-5.65-1.14-1.26-.26-1.26-.26l-.22,4.57-1.82,8.63-1.31,4.87-2.3,7-4.77,7.78,6.21,6.56Z"/>
                    <path class="cls-51" d="M167.18,105.41c.18,0,5.55-1.61,5.55-1.61l6.06-5.54,6.93-7.7s-.91-4.71-.91-5-.72-4.56-.72-4.56-2.17-3.85-2.22-4-3.26-2.67-3.26-2.67l-2.17-.15s-2.13,4.55-2.22,4.57-1.94,5.74-1.94,5.74l-3.79,4.57-4.61,4-4,3.17s1,3.4,1.22,3.92a15.14,15.14,0,0,0,2.94,3C164.51,103.46,167.18,105.41,167.18,105.41Z"/>
                    <path class="cls-53" d="M125.61,78.23c2.12-4.63,5.22-40.5-6.16-47.13a66.14,66.14,0,0,1,13.44,6.83s2.36,5,2.36,5.38,1.26,17.8,1.35,18.37-2.39,13.15-2.28,13.46a28.14,28.14,0,0,1-.65,3.67Z"/>
                    <path class="cls-53" d="M140.8,81.28c2.31-2.18,17.09-20.06,9.66-39.21,2.7.64,7.31,5,7.31,5s.89,11.93.85,12.44S156,73.76,155.86,74.39s-6.05,11.17-6.05,11.17Z"/>
                    <path class="cls-53" d="M154.75,92.08c1.66-.76,18.65-15.37,17.12-31A98.53,98.53,0,0,1,175.37,73a57,57,0,0,1-.94,5.81c-.29.54-3.68,7.31-3.66,7.56s-4.68,4.61-4.62,4.95-6.27,5-6.56,5.17S154.75,92.08,154.75,92.08Z"/>
                    <path class="cls-54" d="M75.24,90c.43.15,1.72-3.59,1.72-3.59l1.35-3.3L80,81.71l-1.39-2.44s-2.24,1-2.34,1.36-2.07,4.69-2.07,4.93S75.24,90,75.24,90Z"/>
                    <path class="cls-54" d="M79.67,76c0-.19,2.07-5.87,2.07-5.87l2.41-3.2,2.92-2-.65-3.72a26,26,0,0,0-2.48,1.33c-.13.19-3.12,2.3-3.32,2.39s-2.38,3.32-2.45,4.3A59.34,59.34,0,0,0,79.67,76Z"/>
                    <path class="cls-54" d="M88,60.29l5.43-8.63,3.42-3.49,0-2.07L96.65,43S92,46,91.36,46.27s-4.29,3.62-4.29,4.89-.41,5.26-.35,6.4A7,7,0,0,0,88,60.29Z"/>
                    <path class="cls-54" d="M98.26,42.71c.27-.19,4-4.09,4.14-4.39s6-6.39,6-6.39l3.94-1.72h4.81l6.92,2.73,5.3,2.86,3.22,2s-2.21-5.45-2.27-5.64-5.7-4.95-5.7-4.95L117.26,24s-4.36-1.59-4.75-1.34-5.89,5.59-5.89,5.59c-.83.76-5.51,5.52-5.51,5.52Z"/>
                    <path class="cls-54" d="M133.79,39.28l5-1,6,.07c.35,0,8.33,4.32,8.33,4.32l4.78,4.64L157.27,43s-3.23-5-3.37-5.23a59.31,59.31,0,0,0-5.56-4.32c-.34,0-9.84-1.14-9.84-1.14l-5.87,1.9Z"/>
                    <path class="cls-54" d="M159,53.54l.3-5.3s6.92,1.88,7,1.92,5.08,2.71,5.42,3,3.73,5.27,3.63,5.72.35,6.21.26,6.78-.2,5.75-.19,5.35-1.53-3.89-1.6-4.14S172,60.8,172,60.8L170.26,58l-2.76-2.73-3.76-1Z"/>
                    <path class="cls-54" d="M176.35,68.28,181,70.63l4.28,4.07S188,77.79,188,78.82s-.2,5.59-.34,6.1-2.24,4.43-2.24,4.43-.94-6-.88-6-.61-3.81-.61-3.81-3-2.71-3.21-3a43.15,43.15,0,0,0-3.68-2.61l-1.42-1.71Z"/>
                    <path class="cls-55" d="M184.15,80.63c1.57-1.45,1.57-3,1.89-5a29.68,29.68,0,0,1,2.66,7.75A36,36,0,0,1,186.42,88c-.5.47-1.74,1.82-1.72,1.37s1.29-5.22,1-5.45A29.41,29.41,0,0,1,184.15,80.63Z"/>
                    <path class="cls-55" d="M171.61,59.21c.23-.7,1.31-1,1.19-3.93.88-.13,1.63,3.93,1.63,3.93s.89,3.6,1.25,4.38-.09,5.25,0,5.55a10,10,0,0,1-.31,1.91,22.74,22.74,0,0,0-1.24-3.12,27.05,27.05,0,0,0-.68-4.12C173.23,63.44,171.61,59.21,171.61,59.21Z"/>
                    <path class="cls-55" d="M150,41.07s2.75-1.4.4-6.56a25,25,0,0,1,6.23,7.56l1.06,4.41-3-3.28Z"/>
                    <path class="cls-55" d="M120.58,31.09c.46-1.74,1.67-4.32-1.13-6.65a52.5,52.5,0,0,1,8.19,5.25s2.92,3.2,3.27,3.8,1.72,4.27,1.72,4.27l-3.72-2.66-6.29-3.55Z"/>
                    <path class="cls-56" d="M106.1,33.93c-1-1.37-2.52-2.38-.71-5.26a37.54,37.54,0,0,0-3.62,6.51L100.05,39,98.8,41.73l2.69-3.34,2.89-3.19Z"/>
                    <path class="cls-56" d="M90.56,54.77c-1.37-1.23-1.64-4.51-1.08-6.83a29.4,29.4,0,0,0-1.92,8s0,3.35,0,3.51,1.92-3.11,1.92-3.11Z"/>
                    <path class="cls-56" d="M81.74,70.09c-1.51-2-.81-3-1.59-3.94C79.33,66.83,79,71,79,71v3.36L79,76l1.32-3.46Z"/>
                    <path class="cls-56" d="M77.07,84.72a2.24,2.24,0,0,1-.93-1.65l-1,4.32.26,3,1.26-3.3Z"/>
                    <path class="cls-53" d="M162.11,102.36c2.65-1.17,18.36-6.51,22-21.32a25.3,25.3,0,0,1,.55,8.91c-.09.4-2.09,5-2.09,5s-5.29,5.55-5.13,5.94-5.72,3.23-5.72,3.23l-6.09,1.44Z"/>
                    <polygon class="cls-54" points="94.68 108.2 87.39 104.1 87.75 103.14 91.04 102.87 94.45 103.1 95.23 105.53 94.68 108.2"/>
                    <path class="cls-54" d="M95.14,102.84l-1.84-.92-2-4.15.44-3s3,1.55,3,1.9,1.69.72,1.69.72Z"/>
                    <polygon class="cls-54" points="98.19 93.29 97.29 92.08 93.9 92.74 92.27 95.09 96.49 97.77 98.19 93.29"/>
                    <path class="cls-54" d="M103,87.13l-2-2.21-2.87-1-1.7,2s-.35,3.88,0,4.13a22.84,22.84,0,0,1,1.8,2.7l3.43-3.84Z"/>
                    <path class="cls-54" d="M106.1,84.88l-2.21-1-3.15-.83s-1.28,1-1.07,1.05,2.73,2,2.73,2a4,4,0,0,0,.95.25C103.55,86.34,106.1,84.88,106.1,84.88Z"/>
                    <path class="cls-54" d="M110.68,81.29a15.26,15.26,0,0,0-1.43-1.49c-.2-.12-2.2-1.57-2.24-1.58s-1.15-.76-1.32-.51a24.83,24.83,0,0,0-.89,3.36,27,27,0,0,0,.42,3c.17.23.71,1.18.88,1.08S110.68,81.29,110.68,81.29Z"/>
                    <path class="cls-54" d="M121.09,77.42l-1.69-2.28-3-1.52a35.74,35.74,0,0,0-3.66-.61c-.24.1-4,1.34-4.28,1.46a18.45,18.45,0,0,0-2,2.26,30.31,30.31,0,0,0,2.2,4.37c.24.07,1.76.91,1.76.91Z"/>
                    <path class="cls-54" d="M121.75,77.51,121.4,76l2.92-3.65,5.12-3.17h4.28l1.53.91-1.47,8a36.59,36.59,0,0,1-4.31.5C129.37,78.41,121.75,77.51,121.75,77.51Z"/>
                    <path class="cls-54" d="M140.47,80.63l.18-2.41s-1-3.59-1.07-3.83a22,22,0,0,0-.57-2.23c-.1-.19-1.94-1.65-1.94-1.65l-1.22-.42-2.51,6.39.95,2.82Z"/>
                    <path class="cls-54" d="M141.92,81.34c-.1-.3,1.19-2.23,1.19-2.23l5.4-.52,4.44.64s-.81,2.76-.88,2.92a30.77,30.77,0,0,1-2.36,2.57c0-.09-2.16.29-2.24,0S141.92,81.34,141.92,81.34Z"/>
                    <path class="cls-54" d="M155.36,91.32l1.91-2.49v-4a24.55,24.55,0,0,1-1-2.82,7.34,7.34,0,0,0-1.7-2.05,24.28,24.28,0,0,0-2.29,1.37S150,84.82,150,84.91a41,41,0,0,0,2.64,3.3C152.82,88.24,155.36,91.32,155.36,91.32Z"/>
                    <path class="cls-54" d="M156.41,91.32A18.14,18.14,0,0,1,157.87,90c0,.09,4.48.25,4.48.25a17.65,17.65,0,0,1,2,.67l.44,1.33-2.41,2.22c-.13.13-3.29,2.06-3.29,2.06s-2.2-2.28-2.24-2.41S156.41,91.32,156.41,91.32Z"/>
                    <path class="cls-54" d="M162.93,101.63a17.29,17.29,0,0,0,1.83-1.55c0-.13,1.15-3,1.15-3.18s.24-1.58.24-2.09a8.15,8.15,0,0,0-.58-2.41,11.94,11.94,0,0,0-1.56,1l-2.81,2.78-.61,1.46Z"/>
                    <path class="cls-54" d="M164.32,102.89a17.49,17.49,0,0,1,.44-1.7l3.39-.32,3.66.38s1.83.43,1.83.63a8.67,8.67,0,0,1-1.66,1.5c-.1,0-2.16,1.33-2.3,1.3a17.81,17.81,0,0,1-2.29.13C167.1,104.68,164.32,102.89,164.32,102.89Z"/>
                    <path class="cls-57" d="M166.84,167l3.62-9.47.72-8.73,1.44-4.05,4.37-3.15,2.14-7.68V123.14l-1.71-4.32-2.94,1.07s-1.16,3-1.5,2.56-.24-8.63-.24-8.63l-2-5.21s-7.7-3.88-7.81-4.92-10.38-15.87-10.38-15.87l-14.95-8.34s-10.6-2.16-17.11-.7-14,5.43-18.45,10.68-6.48,8.83-6.77,22.9,0,23.68,0,23.68-1,14,9.57,28.79a239.36,239.36,0,0,0,19.28,23.7c.09.26,10.11,5.42,13,4.57s16.3-10.32,16.3-10.32Z"/>
                    <path class="cls-58" d="M109.7,164.11c1.4.18,6.9-6.72,5.62-17.26s-2.42-15-7.53-15.45-10,.63-9.84,8.32S103.7,163.37,109.7,164.11Z"/>
                    <path class="cls-59" d="M137,119.76c3.31,3.13,10.63,4.07,15.11,1.07s3.53-4.74,1.22-4.07-7.06,2.16-7.19,2.12S137,119.76,137,119.76Z"/>
                    <path class="cls-59" d="M101.75,126.4c3.59,1.37,9,1.81,11.79-.15s3.2-4.73.92-4.48-5.62,2.89-5.62,2.89Z"/>
                    <path class="cls-60" d="M129,179c.62.12,6,2.07,10.22-2.58s2.51-9.24,1.86-11.72a16.61,16.61,0,0,0-.5,6.06l-5.33,5.32Z"/>
                    <path class="cls-61" d="M118.91,139.52c.53.06,1.52,2.94,5.81,3.07s6.9-3.39,5.87-3.34-2.39,0-2.39,0l-2.32,1.18h-2.17l-3.61-.69Z"/>
                    <path class="cls-61" d="M133.45,141.13c1.25,1.21,3.74,1.31,4.32-.7,1-3.68-2.13-6.13-2.13-6.13l-.94,4.95Z"/>
                    <path class="cls-60" d="M164.32,105.53c1.14,2.59,3.7,12.42,2.87,26.54s-3.63,28.29-9.92,38S142,195.17,126.84,188.61c1.17,2.42,5,3.87,5,3.87l7.17-.86,11.63-6.81,10.51-11.48,6.49-9,3.06-9.11.06-8.41,2.05-2.09,4.6-2,1.71-8.41.08-7.94-.76-6.67-1.61-.83L174,120.43l-1.64,1.66.34-4.5-1.16-8.53-3-3Z"/>
                    <path class="cls-60" d="M96.16,107.64c.42-3.67,8.06-19.19,18-21.88s29-6.42,47,15.38c-5.23-8.21-9.57-14-10.5-14.36s-14.43-6.89-14.43-6.89L123,77.1l-11.65,4.14-9.75,6.28L96.4,96.89Z"/>
                    <path class="cls-62" d="M164.56,185.53l-.36,6.94-.48.86L158.87,202l-.1.17-.8,1c-.08.1-.16.19-.22.28-1.85,2.32-5.56,7-5.77,7.16s-3.89,9.47-4,9.73,1.09,11.67,1.09,11.67l2.45,7.87H121l0-10.6v-2.6l1.72-7.78.18-.85v-1.56l0-1.77,0-2.26-1.21-1.82-.12-.16L120.05,208l0,0-3.88-5.12-1-1.3-.73-5.24.38-2.05.25-1.33.25-1.34,0-.19,2.35-5.41.39-.42,1.53-1.61,2.79,2.7.6.38,6.86,4.36,6.62,1h0l.47.07,3-1,2.25-.72,1.27-.42,7.87-6.18.06,0,0,0,1.23-1,6.53-6.53.4-.4s.63.29,1.26.63,1.46.89,1.28,1.15c0,0,0,.12,0,.25a2.21,2.21,0,0,0,.09.47,1.1,1.1,0,0,0,0,.16c.11.43.28,1,.48,1.56.42,1.25,1,2.73,1.38,3.75C164.35,185,164.56,185.53,164.56,185.53Z"/>
                    <path class="cls-60" d="M162.8,179.24v1.14s-.07.1-.11.15a8.46,8.46,0,0,0-.49.86c-1.48,3-4.3,10-18.33,16.23s-18.81-1.35-20.3-3.5-.81,6,.81,8,5.66,7.24,5,12.69c-.6,5-2.89,18.09-1.07,25.13h-6.77V228.88l2.3-11.17-.84-2.94-1.18-4.08-.28-1-5.6-7.51-.88-9.23,4.55-9,3.39,3.07,1.71,1.57,6.06,3.44,5.71.38h0l3.46-.9,1.94-.5.31-.22,9.14-6.6.06,0,0,0,7.75-7.5h0l3,2.11Z"/>
                    <path class="cls-63" d="M201,181.63c.27.1-9,12.32-9,12.32l-3.77,5.32-.5.71-.15.22-.5.69-1.8,2.56-.33.46-.82,1.17-.29,1c-.16.59-.4,1.41-.67,2.36s-.62,2.18-.94,3.35l-.05.16q-.22.83-.45,1.62l0,.1c-.09.3-.18.6-.26.89-.64,2.25-1.12,4-1.12,4.16s0,.35,0,.84c0,.66,0,1.71.09,2.9v0c0,1.2.08,2.54.13,3.84,0,.89.06,1.76.08,2.54,0,.6.05,1.13.06,1.58,0,.85.05,1.39.05,1.39l.91.66,3.51,2.54,0,0c1.89,1.37,3.68,2.68,3.8,2.79s.72.77,1.39,1.54h0l.5.56h-.45l.13.14-.14-.14H151.94l-3.73-18,2.25-7.51s4.62-7.48,4.78-7.69,1.22-1.57,2.51-3.27c.06-.09.14-.18.22-.28l.9-1.18c1.42-1.87,2.72-3.56,2.72-3.56l2.12-4.94v-.21l.35-9.06.05-1.53-.81-3.05-.07-.07-1.15-1.29-1.25-1.4-1-1.09-.39-.44h0l6.65-7.75.34-.38.11-.25,3.14-7.21,1.53-8.53s0-.25.09-.64l0-.18,0-.25c.2-1.62.58-4.5.58-4.67a25.92,25.92,0,0,1,3.22-2.41l3.28-3.78.83-5.59s.27-7.61.27-8-.43-2-.75-3.24h0c-.19-.76-.35-1.36-.35-1.36l-.36-.87L177.6,119h-.13l-1.72.15-.95,1.06a17.53,17.53,0,0,0-2.08,2.68c0-.37.16-7.58.16-7.58l-.71-4-.18-1-1.41-1.5-3-3.21,1-.63,1.49-.89,4.62-2,1.2-1.14,4.39-4.19s.66-.58,1.37-1.18l.65-.55c.69-.56,1.25-1,1.14-.73a3.07,3.07,0,0,0,.13.85c.72,3,3.94,12.37,3.94,12.37l.19.57,3.34,10s.34.78.84,2c0,0,0,0,0,0,1.27,3,3.58,8.38,4.33,10a3.36,3.36,0,0,0,.24.48s.3,1.14.74,2.86c.93,3.72,2.52,10.19,3.38,13.68l.59,2.42,1.56,13,.61,5.26S200.75,181.55,201,181.63Z"/>
                    <path class="cls-64" d="M190.57,240.06l-.14-.13h0Z"/>
                    <path class="cls-64" d="M201,179.4l-4.34,7.73s-3.2,3.94-3.7,4.32a67.83,67.83,0,0,0-3.55,5.92l-1.29,1.88-.4.58-.09.11-.2.21-.56.67-.59.69-.82,1-2,2.3-.6,2.89-1.23,5.87,0,.09-.19.92,0,.28-.14,1.07-.89,6.52v0l-.24,1.75h0l.37,2.07.08.48.75,4.21.27,1.49v.08h0l.09.07.27.2.45.33c1.13.86,3.12,2.36,3.7,2.83.14.12.31.26.48.43l.46.42,0,0c.18.18.38.37.59.55s.61.59.94.89c.59.54,1.18,1.11,1.73,1.62H180.21a13.68,13.68,0,0,1-4.84-7.36c-1.6-6.85-.07-16.82,1.88-22.88s8.6-16.21,12.2-20.78,10.65-15.62,7.12-33.07-10-36.94-11.77-45.08-3.8-8.16-6.73-4.73a6.64,6.64,0,0,0-.82,7.28s2.68,1,3.54,4.79,2.68,9.25,1.77,17.18-1.46,11.36-4.44,13.47-2,10.25-4.23,14.41c-2.06,3.76-9.08,14.17-10.45,16.19l-.2.27a.22.22,0,0,1,0,.07l-.4-.3-.59-.43-3-2.26h0l.7-.86.2-.26,4-4.9,2.12-3,.45-.63,1.9-2.72,2.13-5.76.55-6.17.18-1.73,0-.18,0-.26.48-4.67s3.39-3.37,3.79-3.53a30.89,30.89,0,0,0,2.8-3.3s.87-6.87.87-7.14-.37-6.61-.51-9h0c0-.56,0-.9,0-.9l-.66-1.34L177.5,119h0l-2.67,1.2-.36.18-1.63,2.15c.23-.34.33-6.51.33-6.51l-.47-4s-.21-.31-.5-.77l-1.59-2.46c-.4-.64-.73-1.17-.79-1.33-.17-.38-.9-1.91-1.18-2.5l-.12-.25,3.57-1.68s3.22-2.12,3.69-2.06a.32.32,0,0,0,.16-.08,74.81,74.81,0,0,0,5.77-5.37l.55-.55h.1l1.27.12.49,0,1.63,3.83,2,9,.22,1,3.46,10.06.5.93s0,0,0,0c1.12,2.15,3.7,7.12,3.7,7.56,0,.15.26,1.1.64,2.46.27,1,.62,2.11,1,3.34,1.23,4.19,2.72,9.13,2.72,9.13l.65,4.56.44,3s.95,9.41.95,10c0,.14,0,.7,0,1.5,0,2.77-.08,8.34,0,8.75S201,179.4,201,179.4Z"/>
                    <path class="cls-62" d="M216.23,239.93H190.44l.13.13-.14-.13c-.55-.51-1.14-1.08-1.73-1.62l-.95-.89-.58-.54s0,0,0,0l-.45-.42-.48-.43c-.29-.28-.52-.5-.65-.61l-.12-.11a1.62,1.62,0,0,1-.24-.24l0,0c-.71-.77-2.64-2.95-3.78-4a3.45,3.45,0,0,0-.69-.57l-.06,0h0c-.33,0-.41-3.29-.41-6.15h0c0-2.26,0-4.26,0-4.26l.11-.44,1-4.32.09-.37.71-2.91,0-.16.56-2.38.38-1,1.6-4,.18-.47.57-1.43.88-2.22.24-.6.55.31.3.18.09,0,.64.37.56.32,5.19,3,11,5.33,7,5.16s3.26,10.15,3.26,10.4S216,236.32,216.23,239.93Z"/>
                    <path class="cls-60" d="M196.28,239.93H191l-.6-.56h0L188,237.17l-2.46-1.79,0,0-3-2.2-.45-.33-.27-.2-.09-.07h0l-1-.74v-7.7l.68-8.21.05-.7.06-.67.4-4.84,1.1-2,.89-1.62.93-1.67.51-.93,1.06-1.94.44-.78.41-.76.17-.31.33.28,0,0,.57.48.47.43,3.52,3.08s-4.11,3.25-4.25,11.35,1.14,14.31,5,19.46A39.44,39.44,0,0,1,196.28,239.93Z"/>
                    <path class="cls-63" d="M123,216.83l-.08.59-.19,1.53-.82,6.26-.91,4.12-1,4.39.71,6.21H86.3l1-3,3.11-9.9s.13-.81.33-2c.53-3.21,1.55-9.21,1.75-9.52s-3.16-7.25-2.72-7.87c.19-.25-1-1.78-2.54-3.55l0-.05h0c-.41-.49-.86-1-1.3-1.48-2-2.19-3.93-4.27-4.06-4.39-.28-.25-5.54-13.36-5.54-13.36l.46-8.38,2.45-8.52L82,157.69l-2.74-8.29h0l-.25-.76-6.88-17.07V118.27c0-.34,4.89-10.58,5.26-10.73s3-7.35,3-7.35l8.5,4.71,6.38,4.15-.76,17.29.23,15.74,4.13,12.33,10.65,17.75,9.73,11.07,0,0-1.08,2.35-2.77,6-.5,1.08v5.84l1.13,3.65.21.69.32,1.07L120,208l0,0,1.49,1.69.16.8,1.26,6Z"/>
                    <path class="cls-64" d="M106.26,166.83c1.81,4.93,7.76,19.66,8.17,27.75a72.29,72.29,0,0,1,3.94-11.06l-8-11.6Z"/>
                    <path class="cls-64" d="M78.89,106a26,26,0,0,0,10.59,8.86c2,5.92,4.68,24.19,5.5,25.8s.48-16.31.48-16.31l-.16-9.22-.69-6.5-6.53-3.86-8.76-4.66Z"/>
                    <path class="cls-62" d="M92.81,219.88,90.7,225l-1,2.32-2.35,7.45-.13,2.12-.17,3H57.8v-7.79c0-.33,1.53-7.18,1.8-7.86s3.9-5.33,4-5.59S72,212.51,72,212.51s9.45-5.66,9.81-5.83l4.76-2.3.65-.31h0l.19-.09,2.49,2.28s2.22,6.86,2.4,7.11S92.81,219.88,92.81,219.88Z"/>
                    <path class="cls-65" d="M87.88,205.3l-.41.22c-1.69.89-3.85,1.72-5.52,2.64-4,2.2-8,4.6-11.71,7.15-4.79,3.26-9.55,7.42-10.65,13.16-.72,3.71-.22,7.66-.38,11.46h-3c-.94-8.26,1.06-17.35,7.64-23,6.23-5.32,14.34-9.66,21.35-14.08l.59-.37.48-.31c.21.4.51,1.12.83,1.79h0l0,.06A6.43,6.43,0,0,0,87.88,205.3Z"/>
                    <path class="cls-65" d="M93.77,220.33c-1,4.4-4.13,8.09-5.07,12.42a43,43,0,0,0-.53,7.18H85.64a40.14,40.14,0,0,1,.48-6c.57-4.1,3.35-7.16,4.34-11.09,1.34-5.41,1.17-11.67-2.28-16.43-.23-.32-.47-.63-.71-.94s-.62-.77-.94-1.14-.86-1-1.29-1.49c-1.69-1.84-3.46-3.62-5-5.56a26.44,26.44,0,0,1-5-22.61c1-4.42,3.34-8.11,4.54-12.37s-.08-8.28-.55-12.61a.93.93,0,0,1,0-.34h0a1.29,1.29,0,0,1,2.37,0c.93,3.4,2,7.1,1.38,10.62-.76,4.1-3.11,7.66-4.07,11.71-1.34,5.71-2,11.91.18,17.56,1.81,4.73,5.38,8.06,8.61,11.93C92.16,206.6,95.37,213.36,93.77,220.33Z"/>
                    <path class="cls-65" d="M73.33,128.93c-.88-6.33,1.5-12.81,4.14-18.54,1.64-3.57,3.27-6.8,3.41-10.74.05-1.46-2.21-1.38-2.38,0-.62,5.13-4,9.7-6,14.47a33.23,33.23,0,0,0-2.42,14.81c.3,4.32,2.2,8.37,4.17,12.22a121.68,121.68,0,0,1,6.32,14.22.93.93,0,0,0,1.8-.23C82.77,145.83,74.6,138.08,73.33,128.93Z"/>
                    <path class="cls-65" d="M95.68,108.31c-4.63-3.46-10.12-5.29-14.3-9.39A22,22,0,0,1,76,89.32c-1.17-3.94.75-6.82,3-9.91a3.21,3.21,0,0,0-.68-1.18c-6.28,2.74-5.07,12-3.09,16.42,3.19,7.12,12,13,19.92,14.4C95.63,109.13,96.08,108.61,95.68,108.31Z"/>
                    <path class="cls-65" d="M96.4,96.89c-2-2-4.41-3.39-6.49-5.27-2.73-2.47-4.54-6.17-6.65-9.1-4.44-6.18-6.3-18,3.81-20.48a.47.47,0,0,0-.14-.93C78.8,61,76,70.44,77.22,76.42c1,4.9,4.69,8.73,7.56,12.72,2.72,3.76,6.51,7.08,11.29,8.28A.32.32,0,0,0,96.4,96.89Z"/>
                    <path class="cls-65" d="M104.12,87.22c-1.62-2.74-4.39-4.72-6.7-7-3.29-3.21-4.87-7.47-6.55-11.53-3.62-8.74-5-20.12,6.1-24.44a.94.94,0,1,0-.54-1.8C86.1,44.63,84.15,55,86.08,63.35A54.75,54.75,0,0,0,92.2,78.13c2.48,4.21,7.19,7,11.2,9.77C103.85,88.21,104.36,87.62,104.12,87.22Z"/>
                    <path class="cls-65" d="M112.22,22.1C100.79,27,96,40.56,95.4,51.54a35.06,35.06,0,0,0,4,18c2.17,4.26,5.87,10.86,11.32,11.83.23,0,.4-.2.23-.37C103.16,73.15,98.33,64,98.24,53.16s4.25-23.69,15.33-28.92C115.1,23.51,113.75,21.44,112.22,22.1Z"/>
                    <path class="cls-65" d="M135.77,39.55a24.34,24.34,0,0,0-9-12.7,27.57,27.57,0,0,0-6.61-3.4c-3.09-1.13-4.65-2.23-7.59-1.42-1.18.33-.19,2,.93,2.11,2,.18,5.28,1.58,7.15,2.5a24,24,0,0,1,7.41,5.26c3.8,3.7,4.85,9,5.73,13.86a68.17,68.17,0,0,1,.86,16c-.3,5.35-2.29,11.21-1.06,16.5a.45.45,0,0,0,.85,0C138.08,66,139.56,52,135.77,39.55Z"/>
                    <path class="cls-65" d="M160.17,49.4c-1.26-6.46-3.44-12.21-9.5-15.95-5.41-3.34-13.8-2.85-19.4-.32-.79.36-.38,1.52.44,1.51,6.22-.09,11.71-1.87,17.61,1,6.65,3.22,8,11.25,8.35,17.47.35,5.66-.84,11.3-2.35,16.75-.72,2.61-1.31,5.25-2.13,7.83-.87,2.75-2.78,4.51-4.16,6.92a.67.67,0,0,0,.79,1c5.33-2,6.26-8.9,7.47-13.37C159.33,64.68,161.69,57.25,160.17,49.4Z"/>
                    <path class="cls-65" d="M177.29,63.26A18.42,18.42,0,0,0,170,49.86,16.87,16.87,0,0,0,163.23,47,19.71,19.71,0,0,0,160,46.7c-.91,0-.17,1.4-.63.46a.27.27,0,0,0-.22-.12c-.44,0-.88-.08-1.27.17-1.07.7-.58,2,.64,2.16,5.42.63,9.52,1.45,13,5.77,3.19,4,3.29,9.47,3.1,14.26-.42,10.59-7.24,20-15.82,26.61-1,.79.44,2.13,1.47,1.36,5.82-4.35,11.2-9,14.36-15.39C177.46,76.16,177.82,69.55,177.29,63.26Z"/>
                    <path class="cls-65" d="M176.84,67.53a.94.94,0,1,0-.53,1.81c8.7,3.09,13.36,10.59,8.88,18.83-3.76,6.91-10.42,15.54-19.28,16.21-1.65.12-.12,2,1.39,1.62,5.4-1.53,9.06-3.17,12.91-7.11a40.58,40.58,0,0,0,8.61-12.74C192.09,78,185,69.58,176.84,67.53Z"/>
                    <path class="cls-65" d="M151.18,85.55c-4.66-5-14.72-7.56-21.44-8.73-7.36-1.27-14.71,1.2-20.86,4.81-6.52,3.82-11.64,9.3-13.74,16.25s-1,15.59-1.24,22.88c0,.84,1.24.94,1.5.19,1.86-5.43,1-11.36,1.18-17,.26-8.35,5.39-14.54,12.2-19.47a28.29,28.29,0,0,1,21.88-4.92c7.08,1.36,13,5.2,19.51,7.61C151.23,87.59,151.81,86.21,151.18,85.55Z"/>
                    <path class="cls-65" d="M170.88,104.86c-2-1.63-5.72-.55-8.09-5.24-3.53-7-10.2-17.11-19.54-17.21-.35,0-.63.47-.31.7,7.76,5.61,13.52,11,17.89,19.26,1.57,3,5.08,3.28,7.84,5.3,4.93,3.61,2.72,10.53,3.52,15.65.19,1.24,2,.74,2.13-.27C174.78,119.67,173.85,107.27,170.88,104.86Z"/>
                    <path class="cls-65" d="M179.93,120.48c-1.28-6.18-8.26-1.16-7.22,3.08a.55.55,0,0,0,.9.23,7.14,7.14,0,0,0,1.54-2.36c1.95-3.55,2.73.07,2.81,2,.22,5.6,2,17.07-5.21,19.79-1.7.64-.7,2.87,1,2.18C182.51,141.78,181.4,127.59,179.93,120.48Z"/>
                    <path class="cls-65" d="M175.07,135.13A5.08,5.08,0,0,0,172.9,132c-.42-.32-1.07.08-.77.56a12,12,0,0,1,1.33,2.27c.34,1-.44,1.86-1.1,2.52s.44,1.86,1.2,1.12A4,4,0,0,0,175.07,135.13Z"/>
                    <path class="cls-65" d="M175.86,123.1a8.62,8.62,0,0,0-2.31,3.23c-.31.59-.58,1.21-.86,1.83s-.6,1-.53,1.48a.13.13,0,0,0,.18.1c.78-.38,1.15-1.76,1.52-2.47a7.2,7.2,0,0,1,2.85-3.14C177.57,123.68,176.67,122.49,175.86,123.1Z"/>
                    <path class="cls-65" d="M139,191.62a22.24,22.24,0,0,1-8.46-1.14c-4.43-1.16-7.54-5.75-10.71-8.62-6.5-5.89-10.67-13.72-15.59-20.73-5.69-8.1-7.44-16.58-8-26.1-.35-6.42,1.83-13.84-1-19.87-.24-.5-1.09-.23-1.08.27.14,4.19-.62,8.28-.85,12.44a77,77,0,0,0,.84,14.22c1.17,8.79,4.5,15.87,9.54,23.31s9.53,14.42,16,20.81c4.44,4.35,12.25,9.28,19.2,7.25C139.82,193.22,139.91,191.59,139,191.62Z"/>
                    <path class="cls-65" d="M172.8,143.17c-2.58,1.26-2.74,4.83-2.63,7.24.31,7.15-2.41,12.2-6.46,18.11a97.68,97.68,0,0,1-13.19,14.95c-3.33,3.22-12.29,10.24-17.74,7.86-.8-.35-1.54.51-.94,1.14,2.76,2.9,7.86.84,10.95-.48,6.4-2.74,10.78-8.08,15.37-12.84,5.2-5.38,9-10.21,11.75-17,1.08-2.68,2.77-6,3-8.82.2-2.18-.94-7,.56-8.7C173.91,144.15,173.4,142.88,172.8,143.17Z"/>
                    <path class="cls-65" d="M123.45,224.34c-1.47,5.46-.89,10.19-1.1,15.59h-2.59a29.55,29.55,0,0,1,.17-12.9c1.62-6.67,4.34-12.42-.66-18.58-2.78-3.42-6.33-7-6.15-11.66.18-4.93,2.45-9.17,5.25-13.27a.72.72,0,0,1,.8-.25.53.53,0,0,1,.44.74c-2.55,5.89-6.56,12.74-1.92,18.8,2.28,3,5.49,5.95,6.47,9.62C125.28,216.61,124.55,220.22,123.45,224.34Z"/>
                    <path class="cls-65" d="M161.89,199.35c-5.9,7.39-12.11,14.42-12,24.12.07,5.91,1.93,11.06,3.51,16.46h-3.25c-2.62-9.3-6.14-19.13-.43-28,2-3.18,4.3-6.2,6.65-9.18,2.22-2.83,5.41-5.87,6.3-9.39a25.45,25.45,0,0,0-.47-12,8.49,8.49,0,0,0-3-4.69h0c-.57-.38-.34-1.33.31-1.3a1,1,0,0,1,.24.05l.35.13a7,7,0,0,1,3.37,3.78,25.72,25.72,0,0,1,1.49,5.48C165.94,190.17,165.44,194.91,161.89,199.35Z"/>
                    <path class="cls-65" d="M200.88,183c-2.14,4-5.11,7.44-7.6,11.21a60.26,60.26,0,0,1-4.3,5.41c-.24.3-.48.58-.7.87l-.08.11c-.17.21-.34.43-.5.65a19.93,19.93,0,0,0-1.59,2.44,37.76,37.76,0,0,0-3.88,15.5c-.12,4.73-2.29,10.44,2.19,13.93,2.5,1.94,6.65,4,8.46,6.84h-2.44l.13.13-.14-.13H189a51.43,51.43,0,0,0-5.43-3.86c-1.71-1.14-4-2.86-4.64-4.88-1.16-3.95,0-8,.2-12a47.63,47.63,0,0,1,2.58-12.25,22.26,22.26,0,0,1,4.66-8.15c3.19-3.63,5.49-7.87,8.41-11.69,3.33-4.35,6-9.73,6.23-15.17.17-3.3,0-4.43-.48-10,0-.28.94-.31,1.5-.17a.56.56,0,0,1,.34.17c.15.23.31.46.44.71C206.07,168.52,203.91,177.36,200.88,183Z"/>
                    <path class="cls-65" d="M204,163.6c.06-4.57-.86-9.25-1.33-13.81-.78-7.54-2.15-15-5.37-21.95-1.92-4.16-4.38-8-6-12.28a116.82,116.82,0,0,1-3.86-12.44c-.73-2.81-.54-9.1-4.4-9.89-.71-.15-1.76.72-1.14,1.1,2.73,1.63,3.55,10.49,4.47,13.35,2.34,7.33,5.78,14,8.57,21.1s3.82,15.05,4.53,22.7c.63,6.74.81,11,2,20.66a1.16,1.16,0,0,0,2.08.25C205,169.63,204,166.67,204,163.6Z"/>
                    <path class="cls-65" d="M218.25,239.93h-3.67a65.87,65.87,0,0,1-.66-8c-.17-5.45.65-14-4.33-17.93-4.34-3.41-9.64-5.54-14.44-8.27-1-.56-1.93-1.17-2.88-1.79a45.37,45.37,0,0,0-4.57-2.75,6.42,6.42,0,0,0-.64-.33.69.69,0,0,0-.15-.07l-.08,0-.07-.05a.68.68,0,0,1-.38-.47,1,1,0,0,1,1.24-1.23l.54.22.05,0,.77.32c3.75,1.62,7.27,4,10.89,5.86,4.62,2.29,10.35,4.43,13.65,8.38s3.49,9.93,3.68,14.6C217.36,232.32,217.75,236.11,218.25,239.93Z"/>
                    <path class="cls-65" d="M119.25,141.54c-1.56-2.23-3.6-2.21-2.9-6.61.29-1.89,1.93-4.6,2.64-6.44a15.7,15.7,0,0,0-2.81-16.3c-.21-.25-.65.08-.46.34,5.26,7.69,2.17,14.3-.62,22.08-1.71,4.76,4.7,7.57,5.39,11.72,0,.26.49.2.48-.06A8.14,8.14,0,0,0,119.25,141.54Z"/>
                    <path class="cls-65" d="M130.87,138.74a1.54,1.54,0,0,0-2-.46,6.08,6.08,0,0,0-1.32,1,5.16,5.16,0,0,1-4.66.65c-1-.29-4.63-2.1-5.09-.27,0,0,0,.1.08.07,1.6-.85,4.59,1.26,6.34,1.49a6.18,6.18,0,0,0,3-.43c1.35-.48,1.73-1.83,3.4-1.53A.31.31,0,0,0,130.87,138.74Z"/>
                    <path class="cls-65" d="M136.69,136a6.73,6.73,0,0,0-1.95-2.65,27.51,27.51,0,0,0-3.08-3.12.3.3,0,0,0-.34,0l-.07.08c-.05.37.3.71.5,1a36.39,36.39,0,0,0,2.63,3.4c2.66,2.91-2.29,4.12-.93,6.36a.7.7,0,0,0,1.14,0C135.46,140,137.18,137.52,136.69,136Z"/>
                    <path class="cls-65" d="M95.14,102.84a1.67,1.67,0,0,0-.18,0h0c-2.65-.84-6.15-1-8.45.74-.28.21,0,.68.36.57a12.45,12.45,0,0,1,7.73-.11C95.33,104.15,95.85,103.13,95.14,102.84Z"/>
                    <path class="cls-65" d="M98.46,91.77c-3-.58-6.79.94-7.68,3.93s1.29,6.2,3.79,8.15a.15.15,0,0,0,.23-.06c.52-1.33-1.72-3.17-2.34-4.23-1.19-2-.61-3.94,1.08-5.49,1.46-1.35,3.22-.88,4.92-1.43A.45.45,0,0,0,98.46,91.77Z"/>
                    <path class="cls-65" d="M106.29,84.27c-2.49-1.13-6.49-3-9-.8a5.91,5.91,0,0,0,.79,9.24c.12.08.24,0,.22-.16-.56-2.74-3.08-6,.19-8.27,2-1.37,5.21.28,7,1.15C106.4,85.83,107.12,84.64,106.29,84.27Z"/>
                    <path class="cls-65" d="M122.13,77.34c-2.79-4.09-7.4-6.47-12.54-4.07s-6.31,7.13-4.3,11.89a.25.25,0,0,0,.46,0,4.39,4.39,0,0,0,.09-2.82,6.77,6.77,0,0,1,2.92-7.17,10.17,10.17,0,0,1,5.73-1.41c3.2,0,4.68,2.19,6.18,4.38C121.26,79,122.72,78.21,122.13,77.34Z"/>
                    <path class="cls-65" d="M135.7,68.62C129.53,67,120.17,71.21,120.59,78a.54.54,0,0,0,1.07,0c.83-5.93,9.86-11.27,15.36-6.9,3.44,2.75,2.19,7.08,3.57,10.49a.66.66,0,0,0,1.24,0C143.27,77.69,140.31,69.81,135.7,68.62Z"/>
                    <path class="cls-65" d="M158.62,84.42a7.13,7.13,0,0,0-3.27-5c-3.54-2.54-11.62-2.59-14.58.8-.32.37.07.81.53.63,4-1.6,8.4-2.36,12.46-.41,2.37,1.13,3,3.33,3.1,5.64.08,2.08-.5,3.07-1.71,4.75-.72,1,1,1.93,1.71.93C158.75,89.1,159,87.71,158.62,84.42Z"/>
                    <path class="cls-65" d="M165.47,90.71c-1.87-2-4.55-2.1-7.17-1.68-1.25.2-3.52.5-3.68,2-.06.6.88,1,1.29.5,1.78-1.95,6.79-1,8.27.44,2.46,2.37,1.12,7.85-2,9.29-1,.44-.28,2,.73,1.62,2.1-.68,3.38-3.1,4.08-4.93A7.06,7.06,0,0,0,165.47,90.71Z"/>
                    <path class="cls-65" d="M175,101c-1.75-.55-13-2-12.87,1.37a.42.42,0,0,0,.52.37,32,32,0,0,1,4.66-.85,20.15,20.15,0,0,1,7.18.84A.9.9,0,1,0,175,101Z"/>
                    <path class="cls-65" d="M80.28,81.25c-2.09-.24-3.53,3.62-4.07,5.07-.6,1.63-1.79,5.66-.64,7.22a.62.62,0,0,0,.8.19.52.52,0,0,0,.2-.74c-.58-1.21,0-3.31.18-4.54a13.58,13.58,0,0,1,3.57-7.12A0,0,0,0,0,80.28,81.25Z"/>
                    <path class="cls-65" d="M87.62,64.44c-1.32-.86-5.23,3.6-5.82,4.37a13,13,0,0,0-2.66,9.94c.08.43.83.42.92,0,.57-2.86.47-5.37,1.9-8.08a17.88,17.88,0,0,1,5.65-5.77A.26.26,0,0,0,87.62,64.44Z"/>
                    <path class="cls-65" d="M96.8,48.17l0-.05a.4.4,0,0,0-.53-.13c-4.91,2.82-9.52,10-9.14,15.41a.66.66,0,0,0,1.31,0,19,19,0,0,1,3-8.39c1.28-2,3.32-5,5.36-6.49A.29.29,0,0,0,96.8,48.17Z"/>
                    <path class="cls-65" d="M135.08,39.18c-3.05-3.13-5.34-3.94-9.22-6s-7.62-4.11-12.13-3.95c-8.3.29-14.12,11.22-17.06,17.17a.19.19,0,0,0,.33.18c4.15-5.27,7.93-13.23,15.08-15.59,6.58-2.18,17.4,5.29,22,9.13C134.75,40.74,135.71,39.84,135.08,39.18Z"/>
                    <path class="cls-65" d="M133.56,37.64v.63c0,.06.11.06.11,0v-.63C133.67,37.58,133.56,37.58,133.56,37.64Z"/>
                    <path class="cls-65" d="M133.44,37.64c0,.25-.15.41-.08.66a.13.13,0,0,0,.23,0,1.89,1.89,0,0,0,.2-.69C133.81,37.42,133.46,37.43,133.44,37.64Z"/>
                    <path class="cls-65" d="M150,40.24c-2.22-1.11-4.38-3.08-7.09-3a31.79,31.79,0,0,0-9.68,1.26c-.58.18-.34.93.25.84,5.3-.82,9.77-1.31,14.56,1.45a54.39,54.39,0,0,1,6,3.41c2,1.56,3,4.36,4.18,6.47.2.36.86.2.83-.21C158.65,45.52,154.28,42.37,150,40.24Z"/>
                    <path class="cls-65" d="M174.57,66.87a28.53,28.53,0,0,0-3.16-9.11c-2.47-4.09-8.12-5.29-12.83-4.91a.14.14,0,0,0-.1.25,2.57,2.57,0,0,0,2.11,1.06c3.59.43,7.31,1.45,9.39,4.39,3.08,4.37,3.27,10.53,4.53,15.51a.52.52,0,0,0,1,0C176,71.55,175.11,69.35,174.57,66.87Z"/>
                    <path class="cls-66" d="M153.16,116.15a3.82,3.82,0,0,0,2.35-3.38c-.18-1.52-3.37-5.36-5.8-6.32s-6.89-.2-11.13,1.41-7.56,2.39-6.05,6.35,3.35,4.06,3.35,4.06l15.56-1.19Z"/>
                    <path class="cls-66" d="M114.81,120.88c.62-.84,2.39-3.46.51-4.73s-4.23-2.93-7.49-2.94-8.14,2.69-9.41,4.38-1.71,6.15,0,7.09,5.8,1.47,5.8,1.47l9.15-3.22Z"/>
                    <path class="cls-65" d="M184.74,80.33c-1.46-3.08-4.94-7.52-9.07-7-.22,0-.34.29-.12.41,3.18,1.73,5.59,3.35,7.41,6.47,2.34,4,1,8.36.32,12.49a.56.56,0,0,0,1,.41C186.6,89.65,186.49,84,184.74,80.33Z"/>
                    <path class="cls-67" d="M154.37,101.34a16.46,16.46,0,0,0-9.55-1.65c-5,.68-9.73,3.81-14.74,4.12a1.21,1.21,0,0,0-.65,2.27c2.22,1.12,4.11.4,6.3-.54,5.72-2.44,11.39-6.29,17.84-2.91C154.47,103.1,155.25,101.84,154.37,101.34Z"/>
                    <path class="cls-67" d="M113.11,107.57c-3.83.78-7.54.71-11.44.85-2.75.11-5.08,2.2-7,3.82-.53.44.15,1.21.74.89,2.05-1.08,3.8-2.29,6.29-2.3,1.61,0,3.34.3,5,.42,2.75.21,5.22.18,7.69-1C115.92,109.41,114.76,107.24,113.11,107.57Z"/>
                    <path class="cls-68" d="M102.11,101.88c.57-1.28,6.25-11.29,20.24-12.67s12.66,5.69,0,8.22S99.83,107,102.11,101.88Z"/>
                    <path class="cls-68" d="M118.79,131.45c-.72,1.46-1.72,4.12-.68,5.38s4.16.7,6.31,0-1.19-4.56-1.18-6S119.68,129.66,118.79,131.45Z"/>
                    <path class="cls-69" d="M77.76,122.34c-.69,2.85,3,13.6,6.78,20.42s4.55,10.14-.8,29,2.79,16.51,6.33,24.06c3.83,8.17,8.82,19.88,8.72,21.67s.19-17.34-6.56-27.36c-6.41-9.54-5.31-12.2-1.49-20.86A33.85,33.85,0,0,0,89,139.53C82.24,127.44,79.49,115.18,77.76,122.34Z"/>
                    <path class="cls-69" d="M165.44,239.93h-6.23c-.85-2.7-2-6.12-3.59-10.25-4.39-11.62,5.3-18.27,7.35-20.57l.47-.54c-1.15,1.57-5.07,7.65-4,14.68C160.15,227.94,163,234.75,165.44,239.93Z"/>
                    <path class="cls-70" d="M190.57,240.06l-.14-.13h0Z"/>
                    <g>
                        <path class="cls-71" d="M130.08,151.78l2.86,2.23,3.53,2,2.4,2.87,1.72,2-.5-1.69L137,152.88l-3.43-4.7-2.31-1.39s-2.76-.26-3,0a26.51,26.51,0,0,1-4.24,1.52l-3.81.13s-1.72,1.9-1.72,2S118,154,118,154v4.87l.08,4.36s.46-.11.48,0,1.35-2.2,1.44-2.33.95-3,.95-3l1.22-1.71.18-1.93.18-1.31,1.76.09s2.17-.21,2.31-.21,1.9-.22,2-.22a8.59,8.59,0,0,0,1.1-1"/>
                        <path class="cls-72" d="M140.19,160.81s-1.39-2.71-1.66-2.71-4-2.67-4-2.67L130.88,152l-2.36-.86L127,152.64l-2.31.26-2.17-.13-.75,2.19-.83,2.41-1.2,3.44-1.17,2.43-.61.58.55,1,1.72,1.12,1.66,2.07,2.66,1.81L128,171h3.6l3.25-1.78,3.09-3,3.25-4-.88-1.1Z"/>
                        <path class="cls-73" d="M120.57,163.61c.43-1.71,2.35-5.16,5.32-4.93a12,12,0,0,0,6.77-1.34c2.55-1.16,6.5,5.18,7.43,6.43a72.67,72.67,0,0,1-5.47,5.94l-3.74,1.59-5.39-.61-4.66-3.42-.4-1.71A12.84,12.84,0,0,1,120.57,163.61Z"/>
                        <path class="cls-74" d="M120.52,166s3-3,5.29-3.47,4.73.07,6.5-.8,7.35,2.84,7.35,2.84l-1.27,1.73-2.12,2.11-2.59,2.09-3.19.94s-5.37-.86-5.62-.95-3.5-2.74-3.5-2.74Z"/>
                        <path class="cls-75" d="M121,157s3.77-.5,7.1-.9a44.31,44.31,0,0,0,6.36-1.29l-2.07-1.7-2.27-1.49-3.49,1-3.73.22-1.11,1.87Z"/>
                        <path class="cls-71" d="M140.69,161.62a1.38,1.38,0,0,1,.71,1.18,6.54,6.54,0,0,1-.66,2.09s-.45,2.22-.48,2.41-.34,1.78-.41,2.1-.78,2.07-.81,2.19-1.09,1.58-1.36,2a16.27,16.27,0,0,1-2.81,2,29.31,29.31,0,0,1-3.5,1.17c-.44,0-2.54,0-2.81,0s-4-2.18-4.14-2.28-3.33-3.46-3.33-3.46-2.09-3.56-2.18-3.81a17.76,17.76,0,0,1-.61-2.44V163.5s.59,1.42.59,1.52,2.4,2.22,2.4,2.22l4,2.6,3.06,1.11,2.34-.06,2.71-.89,3.12-2.09,2-2.29,2.38-2.76-.07-.6Z"/>
                        <path class="cls-76" d="M129,150.87a7.25,7.25,0,0,1-3.55,1.51c-.93.08-2-.28-3-.27a.65.65,0,0,0-.65.46,28.72,28.72,0,0,1-1.75,6.26c-.7,1.64-1,3.31-2,4.84-.12.18.13.42.33.3a3.78,3.78,0,0,0,1.52-2.05c.68-1.7,1.06-3.35,1.73-5,.26-.69.68-1.79.91-2.66.32-1.24,1.17-.91,2.37-.78a6.48,6.48,0,0,0,4.85-1.37A.7.7,0,0,0,129,150.87Z"/>
                        <path class="cls-76" d="M140.72,161.16a3.94,3.94,0,0,1-1-1.36,12.33,12.33,0,0,0-3.37-3.91c-1-.78-2.07-1.68-3.1-2.38s-2.25-2.16-3.6-2.71c-.34-.14-.62.61-.39.88,1.67,1.94,4.2,3.36,6.25,4.9a37.76,37.76,0,0,1,2.8,2.56c.84.77,1.41,2,2.28,2.74C141.12,162.33,141.18,161.65,140.72,161.16Z"/>
                        <path class="cls-76" d="M122.9,148.26c-2.67-1.31-4.28.44-4.74,2.66a27.8,27.8,0,0,0-.57,6.49c.09,2-.31,4.1.37,6.41,0,.15.74,0,.7-.21-.67-2.58-.14-5.76-.08-8.4a31,31,0,0,1,.35-3.84c.3-2.13,1.53-3.08,3.93-2.42A2,2,0,0,0,122.9,148.26Z"/>
                        <path class="cls-76" d="M140.92,161.36c-.64-1.16-.45-2.68-.92-3.92a30.08,30.08,0,0,0-1.51-3.34,33.76,33.76,0,0,0-4.92-6.43,4.17,4.17,0,0,0-3.87-1.17c-3.25.37-3.76,2.63-8.23,1.37-.19-.05-1.22.24-1,.32a10.63,10.63,0,0,0,3.93.9c3.39.14,5.52-3.79,9.12.22a30.91,30.91,0,0,1,4.43,6.22c1.08,2.07,1.54,3.93,2.58,5.94C140.82,162.07,141.25,162,140.92,161.36Z"/>
                        <path class="cls-76" d="M141.2,162.18c-3.11,2.95-4.78,6.48-9.32,7.87-6.11,1.89-9.27-2.23-13.18-5.62a.34.34,0,0,0-.55.15l-.06.2a.08.08,0,0,0,.07.1c1.51.46,2.58,3.15,5.36,4.91a9.7,9.7,0,0,0,7.57,1.64c5.46-.76,7.45-5.25,10.3-9.13C141.46,162.2,141.29,162.09,141.2,162.18Z"/>
                        <path class="cls-76" d="M141.37,162.55a8.17,8.17,0,0,0-1.38,3.87A10.82,10.82,0,0,1,134.6,175c-3.38,2-7.07,1.66-10.41-1.17-2.7-2.28-5.59-8.78-5.53-8.8.41-.07-.7-.49-.58-.12,1.19,3.52,2.64,7,5.2,9.82,2.83,3.06,6.59,4.27,9.93,2.9a11,11,0,0,0,5.43-4.3c2.43-3.67,1.47-6.81,3.08-10.51C141.84,162.49,141.54,162.26,141.37,162.55Z"/>
                        <path class="cls-70" d="M124.34,173a8.3,8.3,0,0,0,5,2.21c2.37.26,3-1.51,1-1.77S122.79,171.05,124.34,173Z"/>
                        <path class="cls-70" d="M119.12,153.25c.09-1.08.42-4,2.2-4.05s-.43.55-.95,1.43S119.06,153.87,119.12,153.25Z"/>
                    </g>
                    <path class="cls-65" d="M134.58,117.22c.16-.43,4.68.32,7.35.19a28.25,28.25,0,0,0,7.46-1.36c1.38-.56,4-2,4.68-1.68s3,1.44,3.39,1.61c-.77.12-2.46.26-2.46.26s-.64.72,3,1.68c-1.61-.06-3.53-.28-3.53-.28s.33.32,1.45,1.67a17.26,17.26,0,0,1-2.8-.84,2.33,2.33,0,0,0,1,1.79c-1.19-.4-4.66-1.25-4.66-1.25a3.23,3.23,0,0,1-1.21,2.22,5.72,5.72,0,0,0-.77-2,4.18,4.18,0,0,1-.86,2.16c0-.59-.31-2.14-.31-2.14a3.27,3.27,0,0,1-1.47,2.33,4.76,4.76,0,0,0,0-2.17,5.05,5.05,0,0,1-1.49,2.12c-.08-.5-.19-1.63-.19-1.63s-.29.76-1.88,1.75l.57-1.69a10.15,10.15,0,0,1-2.13,1.46c.83-1,.45-1.15.45-1.15a5.57,5.57,0,0,1-1.61.9,4,4,0,0,1,.71-1.27,7.45,7.45,0,0,1-2.11,1,2.87,2.87,0,0,0,.5-1.11S133.23,120.89,134.58,117.22Z"/>
                    <path class="cls-65" d="M114.58,120.21a4.82,4.82,0,0,0-3.48.54,10.76,10.76,0,0,1-5.53,2.25c-1.84.23-5,.45-5.68,1a17.34,17.34,0,0,0-2,2.47,5.84,5.84,0,0,0,1.8-.32c-.29.75-.53,1.24-.53,1.24a9.91,9.91,0,0,0,2.15-1,11.91,11.91,0,0,0-.3,1.27,8.12,8.12,0,0,0,1.52-1.19l.27.94A15.57,15.57,0,0,0,104.6,126c.05.72.45.88.45.88s1-1.19,1.38-1.65c-.76,3.27.84,0,.84,0l.48,1.06.81-1.52.53,1.26.48-1.39s.92.44.94.82-.13-1.16-.13-1.16,1.6-.37,2.27.34a6.53,6.53,0,0,1-.35-1.21s1.06-.39,1.48.05a.78.78,0,0,1,.21-.79l1.18-.25S116.3,120.28,114.58,120.21Z"/>
                    <path class="cls-58" d="M140.11,142.18s5.82,6,5,11.12,12.47,15.2,17-2.44,1.27-24.15.23-25.29-8.32,2.71-12.13,2.67-9.51-2.14-10.4.29S138,139.58,140.11,142.18Z"/>
                </g>
            </g>
        </g>
    </g>
</svg>